<svg width="111" height="88" viewBox="0 0 111 88" fill="none" xmlns="http://www.w3.org/2000/svg">
<path d="M17.3424 58.795H14.7826L14.0477 56.4634H10.2967L9.56173 58.795H7.00195L10.8289 48.3025H13.6422L17.3424 58.795ZM13.4901 54.6386L12.3749 51.1157C12.2989 50.8623 12.2229 50.5328 12.1975 50.178H12.1468C12.1215 50.4821 12.0708 50.7862 11.9694 51.0904L10.8289 54.6386H13.4901V54.6386Z" fill="white"/>
<path d="M25.2996 51.293L22.2583 59.3779C21.5233 61.3294 20.4335 62.2925 18.9636 62.2925C18.406 62.2925 17.9498 62.2164 17.5696 62.0897V60.2396C17.8737 60.417 18.2032 60.5184 18.5834 60.5184C19.1663 60.5184 19.5972 60.2396 19.8253 59.682L20.2308 58.7443L17.1895 51.2677H19.7492L21.1432 55.8297C21.2192 56.1085 21.2952 56.4379 21.3459 56.8434H21.3713C21.4219 56.5647 21.498 56.2352 21.6247 55.855L23.044 51.293H25.2996V51.293Z" fill="white"/>
<path d="M29.7368 58.9724C28.4949 58.9724 27.5065 58.6176 26.7969 57.9333C26.0872 57.2236 25.7324 56.2859 25.7324 55.0947C25.7324 53.8528 26.1126 52.8897 26.8476 52.1801C27.5826 51.4705 28.5963 51.141 29.8635 51.141C31.1054 51.141 32.0938 51.4958 32.7781 52.1801C33.4878 52.8897 33.8426 53.8021 33.8426 54.968C33.8426 56.2098 33.4878 57.1983 32.7528 57.9079C31.9925 58.6176 31.004 58.9724 29.7368 58.9724ZM29.7875 52.8897C29.2299 52.8897 28.8244 53.0672 28.5203 53.4473C28.2162 53.8275 28.0641 54.3597 28.0641 55.044C28.0641 56.4886 28.647 57.1983 29.8129 57.1983C30.928 57.1983 31.4856 56.4633 31.4856 54.9933C31.4602 53.574 30.9027 52.8897 29.7875 52.8897Z" fill="white"/>
<path d="M37.6169 58.795H35.3105V47.6942H37.6169V58.795Z" fill="white"/>
<path d="M47.3749 54.5879C47.3749 57.5278 46.0824 58.9724 43.5226 58.9724C41.0642 58.9724 39.8477 57.5532 39.8477 54.7399V48.3025H40.8107V54.6639C40.8107 55.8044 41.0388 56.6661 41.495 57.249C41.9512 57.8319 42.6862 58.1107 43.6493 58.1107C45.4741 58.1107 46.4118 56.9956 46.4118 54.7653V48.3025H47.3749V54.5879V54.5879Z" fill="white"/>
<path d="M54.8024 58.4654C54.2449 58.7949 53.5606 58.9723 52.7749 58.9723C52.2427 58.9723 51.7611 58.8963 51.3303 58.6935C50.8994 58.4908 50.5446 58.2373 50.2405 57.9079C49.9363 57.5784 49.7082 57.1729 49.5562 56.7167C49.4041 56.2605 49.3027 55.7536 49.3027 55.2214C49.3027 54.6638 49.3788 54.1316 49.5562 53.6247C49.7336 53.1178 49.987 52.6869 50.2912 52.3321C50.5953 51.9773 51.0261 51.6732 51.4823 51.4451C51.9639 51.2423 52.4961 51.1156 53.1044 51.1156C53.7126 51.1156 54.2956 51.2423 54.8024 51.4704V52.4588C54.2449 52.104 53.662 51.9266 53.0283 51.9266C52.5721 51.9266 52.192 52.0026 51.8372 52.1801C51.4823 52.3575 51.2036 52.5856 50.9755 52.8644C50.7474 53.1431 50.5699 53.498 50.4432 53.8781C50.3165 54.2583 50.2658 54.6891 50.2658 55.12C50.2658 55.5255 50.3165 55.9057 50.4179 56.2605C50.5193 56.6153 50.6713 56.9448 50.8994 57.2236C51.1275 57.5024 51.381 57.7305 51.7104 57.8825C52.0399 58.0346 52.4201 58.136 52.8763 58.136C53.5859 58.136 54.2195 57.9332 54.7771 57.5024V58.4654H54.8024Z" fill="white"/>
<path d="M61.6431 58.795V54.3851C61.6431 53.5487 61.4911 52.9405 61.1869 52.535C60.8828 52.1295 60.4013 51.9267 59.7676 51.9267C59.4635 51.9267 59.1847 51.9774 58.9059 52.1041C58.6272 52.2308 58.3991 52.4083 58.1963 52.6364C57.9935 52.8644 57.8161 53.1432 57.7148 53.4727C57.588 53.8022 57.5373 54.1824 57.5373 54.5879V58.7697H56.5996V47.6942H57.5373V52.5857H57.5627C58.1456 51.5972 58.982 51.1157 60.0718 51.1157C60.9081 51.1157 61.5417 51.3691 61.9473 51.876C62.3781 52.3829 62.5809 53.1432 62.5809 54.1317V58.7697H61.6431V58.795Z" fill="white"/>
<path d="M69.7291 58.795V57.5278H69.7037C69.1968 58.4909 68.4112 58.9724 67.3467 58.9724C65.5726 58.9724 64.6855 57.8826 64.6855 55.703V51.2931H65.6233V55.5256C65.6233 56.4126 65.7754 57.0969 66.1048 57.5278C66.4343 57.9586 66.9158 58.1614 67.5748 58.1614C67.9043 58.1614 68.1831 58.1107 68.4619 57.984C68.7153 57.8573 68.9687 57.6799 69.1461 57.4518C69.3489 57.2237 69.501 56.9449 69.6023 56.6407C69.7037 56.3366 69.7544 55.9818 69.7544 55.5763V51.2931H70.6922V58.795H69.7291Z" fill="white"/>
<path d="M78.1431 58.7949V54.4864C78.1431 52.7883 77.5348 51.952 76.2929 51.952C75.9635 51.952 75.6593 52.028 75.3805 52.1547C75.1018 52.2814 74.8737 52.4588 74.6709 52.6869C74.4681 52.915 74.3161 53.1938 74.1894 53.498C74.0626 53.8021 74.012 54.1569 74.012 54.5117V58.7949H73.0742V51.293H74.012V52.5856H74.0373C74.5949 51.5971 75.4312 51.1156 76.5464 51.1156C77.3574 51.1156 77.991 51.369 78.4218 51.9013C78.8527 52.4335 79.0555 53.1938 79.0555 54.2076V58.7696H78.1431V58.7949Z" fill="white"/>
<path d="M99.6433 27.4843C94.1436 23.5306 88.137 27.5857 87.0219 28.422C86.9205 28.4981 86.7684 28.4727 86.667 28.3967C81.6995 23.5813 71.131 25.1019 69.7624 32.8319C68.4698 40.055 77.1376 45.7575 82.8654 48.9002C86.2869 50.7757 86.5403 52.8793 86.3629 53.9944C86.3376 54.1718 86.591 54.2732 86.6924 54.1211C87.9089 52.4231 88.2384 50.0914 88.1623 48.2666C88.061 44.9718 84.4367 45.5041 83.4736 44.8198C82.6119 44.2115 83.3469 42.6402 83.5243 42.336C83.5497 42.3107 83.5497 42.26 83.5243 42.2347C83.1188 41.6264 83.5497 41.0688 83.6764 40.9168C83.7017 40.8914 83.7017 40.8661 83.6764 40.8407C83.3976 40.2071 83.7017 40.0297 83.9045 39.7763C84.1073 39.5228 84.4114 39.3201 84.1073 38.9906C83.8285 38.6611 83.423 38.3316 83.6511 37.9008C83.8031 37.5713 84.7409 37.3686 85.2731 36.8617C85.2224 36.8363 85.1717 36.811 85.121 36.7856C85.045 36.7349 84.969 36.6843 84.9183 36.6082C84.8676 36.5322 84.8169 36.4815 84.7662 36.4055C84.8169 36.4815 84.8676 36.5322 84.9436 36.5829C85.0196 36.6336 85.0703 36.6843 85.1464 36.7096C85.2224 36.7349 85.2984 36.7603 85.3745 36.7603C85.5012 36.6082 85.6026 36.4308 85.6279 36.2281C85.78 35.0369 86.0588 33.5416 86.8191 32.249C87.5794 30.9565 88.4665 30.0694 90.1645 33.7443C91.5331 36.7349 93.4846 37.7234 94.1943 38.0022C94.3463 38.0528 94.397 38.2303 94.3463 38.357C92.3441 43.6539 93.8141 47.5063 94.397 48.6974C94.4984 48.9002 94.7519 49.0016 94.98 48.8749C99.694 46.2897 102.076 42.2853 102.076 42.2853C104.332 39.092 105.726 31.8435 99.6433 27.4843Z" fill="#F5365C"/>
</svg>
