<svg width="97" height="38" viewBox="0 0 97 38" fill="none" xmlns="http://www.w3.org/2000/svg">
<path d="M10.3424 33.795H7.78265L7.04766 31.4634H3.29671L2.56173 33.795H0.00195312L3.82894 23.3025H6.64216L10.3424 33.795ZM6.49009 29.6386L5.37494 26.1157C5.29891 25.8623 5.22288 25.5328 5.19753 25.178H5.14684C5.1215 25.4821 5.07081 25.7862 4.96943 26.0904L3.82894 29.6386H6.49009Z" fill="white"/>
<path d="M18.2996 26.293L15.2583 34.3779C14.5233 36.3294 13.4335 37.2925 11.9636 37.2925C11.406 37.2925 10.9498 37.2164 10.5696 37.0897V35.2396C10.8737 35.417 11.2032 35.5184 11.5834 35.5184C12.1663 35.5184 12.5972 35.2396 12.8253 34.682L13.2308 33.7443L10.1895 26.2677H12.7492L14.1432 30.8297C14.2192 31.1085 14.2952 31.4379 14.3459 31.8434H14.3713C14.4219 31.5647 14.498 31.2352 14.6247 30.855L16.044 26.293H18.2996Z" fill="white"/>
<path d="M22.7368 33.9724C21.4949 33.9724 20.5065 33.6176 19.7969 32.9333C19.0872 32.2236 18.7324 31.2859 18.7324 30.0947C18.7324 28.8528 19.1126 27.8897 19.8476 27.1801C20.5826 26.4705 21.5963 26.141 22.8635 26.141C24.1054 26.141 25.0938 26.4958 25.7781 27.1801C26.4878 27.8897 26.8426 28.8021 26.8426 29.968C26.8426 31.2098 26.4878 32.1983 25.7528 32.9079C24.9925 33.6176 24.004 33.9724 22.7368 33.9724ZM22.7875 27.8897C22.2299 27.8897 21.8244 28.0672 21.5203 28.4473C21.2162 28.8275 21.0641 29.3597 21.0641 30.044C21.0641 31.4886 21.647 32.1983 22.8129 32.1983C23.928 32.1983 24.4856 31.4633 24.4856 29.9933C24.4602 28.574 23.9027 27.8897 22.7875 27.8897Z" fill="white"/>
<path d="M30.6169 33.795H28.3105V22.6942H30.6169V33.795Z" fill="white"/>
<path d="M40.3749 29.5879C40.3749 32.5278 39.0824 33.9724 36.5226 33.9724C34.0642 33.9724 32.8477 32.5532 32.8477 29.7399V23.3025H33.8107V29.6639C33.8107 30.8044 34.0388 31.6661 34.495 32.249C34.9512 32.8319 35.6862 33.1107 36.6493 33.1107C38.4741 33.1107 39.4118 31.9956 39.4118 29.7653V23.3025H40.3749V29.5879Z" fill="white"/>
<path d="M47.8024 33.4654C47.2449 33.7949 46.5606 33.9723 45.7749 33.9723C45.2427 33.9723 44.7611 33.8963 44.3303 33.6935C43.8994 33.4908 43.5446 33.2373 43.2405 32.9079C42.9363 32.5784 42.7082 32.1729 42.5562 31.7167C42.4041 31.2605 42.3027 30.7536 42.3027 30.2214C42.3027 29.6638 42.3788 29.1316 42.5562 28.6247C42.7336 28.1178 42.987 27.6869 43.2912 27.3321C43.5953 26.9773 44.0261 26.6732 44.4823 26.4451C44.9639 26.2423 45.4961 26.1156 46.1044 26.1156C46.7126 26.1156 47.2956 26.2423 47.8024 26.4704V27.4588C47.2449 27.104 46.662 26.9266 46.0283 26.9266C45.5721 26.9266 45.192 27.0026 44.8372 27.1801C44.4823 27.3575 44.2036 27.5856 43.9755 27.8644C43.7474 28.1431 43.5699 28.498 43.4432 28.8781C43.3165 29.2583 43.2658 29.6891 43.2658 30.12C43.2658 30.5255 43.3165 30.9057 43.4179 31.2605C43.5193 31.6153 43.6713 31.9448 43.8994 32.2236C44.1275 32.5024 44.381 32.7305 44.7104 32.8825C45.0399 33.0346 45.4201 33.136 45.8763 33.136C46.5859 33.136 47.2195 32.9332 47.7771 32.5024V33.4654H47.8024Z" fill="white"/>
<path d="M54.6431 33.795V29.3851C54.6431 28.5487 54.4911 27.9405 54.1869 27.535C53.8828 27.1295 53.4013 26.9267 52.7676 26.9267C52.4635 26.9267 52.1847 26.9774 51.9059 27.1041C51.6272 27.2308 51.3991 27.4083 51.1963 27.6364C50.9935 27.8644 50.8161 28.1432 50.7148 28.4727C50.588 28.8022 50.5373 29.1824 50.5373 29.5879V33.7697H49.5996V22.6942H50.5373V27.5857H50.5627C51.1456 26.5972 51.982 26.1157 53.0718 26.1157C53.9081 26.1157 54.5417 26.3691 54.9473 26.876C55.3781 27.3829 55.5809 28.1432 55.5809 29.1317V33.7697H54.6431V33.795Z" fill="white"/>
<path d="M62.7291 33.795V32.5278H62.7037C62.1968 33.4909 61.4112 33.9724 60.3467 33.9724C58.5726 33.9724 57.6855 32.8826 57.6855 30.703V26.2931H58.6233V30.5256C58.6233 31.4126 58.7754 32.0969 59.1048 32.5278C59.4343 32.9586 59.9158 33.1614 60.5748 33.1614C60.9043 33.1614 61.1831 33.1107 61.4619 32.984C61.7153 32.8573 61.9687 32.6799 62.1461 32.4518C62.3489 32.2237 62.501 31.9449 62.6023 31.6407C62.7037 31.3366 62.7544 30.9818 62.7544 30.5763V26.2931H63.6922V33.795H62.7291Z" fill="white"/>
<path d="M71.1431 33.7949V29.4864C71.1431 27.7883 70.5348 26.952 69.2929 26.952C68.9635 26.952 68.6593 27.028 68.3805 27.1547C68.1018 27.2814 67.8737 27.4588 67.6709 27.6869C67.4681 27.915 67.3161 28.1938 67.1894 28.498C67.0626 28.8021 67.012 29.1569 67.012 29.5117V33.7949H66.0742V26.293H67.012V27.5856H67.0373C67.5949 26.5971 68.4312 26.1156 69.5464 26.1156C70.3574 26.1156 70.991 26.369 71.4218 26.9013C71.8527 27.4335 72.0555 28.1938 72.0555 29.2076V33.7696H71.1431V33.7949Z" fill="white"/>
<path d="M92.6433 2.48428C87.1436 -1.46943 81.137 2.58566 80.0219 3.42202C79.9205 3.49805 79.7684 3.47271 79.667 3.39668C74.6995 -1.41874 64.131 0.10192 62.7624 7.83193C61.4698 15.055 70.1376 20.7575 75.8654 23.9002C79.2869 25.7757 79.5403 27.8793 79.3629 28.9944C79.3376 29.1718 79.591 29.2732 79.6924 29.1211C80.9089 27.4231 81.2384 25.0914 81.1623 23.2666C81.061 19.9718 77.4367 20.5041 76.4736 19.8198C75.6119 19.2115 76.3469 17.6402 76.5243 17.336C76.5497 17.3107 76.5497 17.26 76.5243 17.2347C76.1188 16.6264 76.5497 16.0688 76.6764 15.9168C76.7017 15.8914 76.7017 15.8661 76.6764 15.8407C76.3976 15.2071 76.7017 15.0297 76.9045 14.7763C77.1073 14.5228 77.4114 14.3201 77.1073 13.9906C76.8285 13.6611 76.423 13.3316 76.6511 12.9008C76.8031 12.5713 77.7409 12.3686 78.2731 11.8617C78.2224 11.8363 78.1717 11.811 78.121 11.7856C78.045 11.7349 77.969 11.6843 77.9183 11.6082C77.8676 11.5322 77.8169 11.4815 77.7662 11.4055C77.8169 11.4815 77.8676 11.5322 77.9436 11.5829C78.0196 11.6336 78.0703 11.6843 78.1464 11.7096C78.2224 11.7349 78.2984 11.7603 78.3745 11.7603C78.5012 11.6082 78.6026 11.4308 78.6279 11.2281C78.78 10.0369 79.0588 8.54157 79.8191 7.24901C80.5794 5.95645 81.4665 5.0694 83.1645 8.74432C84.5331 11.7349 86.4846 12.7234 87.1943 13.0022C87.3463 13.0528 87.397 13.2303 87.3463 13.357C85.3441 18.6539 86.8141 22.5063 87.397 23.6974C87.4984 23.9002 87.7519 24.0016 87.98 23.8749C92.694 21.2897 95.0764 17.2853 95.0764 17.2853C97.332 14.092 98.7259 6.8435 92.6433 2.48428Z" fill="#F5365C"/>
</svg>
