<svg width="123" height="20" viewBox="0 0 123 20" fill="none" xmlns="http://www.w3.org/2000/svg">
<g opacity="0.7">
<path d="M59.9778 19.4037C58.2579 19.6867 56.5165 19.818 54.7737 19.7962C51.505 19.7962 48 17.6512 48 11.6623V8.15732C48 1.80723 51.6745 0.00119802 55.0056 0.00119802C56.6702 -0.0135993 58.3332 0.108702 59.9778 0.366863C60.2096 0.393619 60.4237 0.496184 60.4237 0.759284V2.06587C60.4237 2.2487 60.3211 2.32897 60.0848 2.32897H59.9822C58.4393 2.19965 57.2353 2.14614 55.0101 2.14614C52.5797 2.14614 50.3813 3.45272 50.3813 8.15732V11.6623C50.3813 15.979 52.3434 17.678 54.7782 17.678C56.3702 17.678 57.4538 17.5754 58.0692 17.5219V10.0436C58.0637 9.9776 58.0717 9.91116 58.0929 9.84838C58.114 9.7856 58.1477 9.72779 58.192 9.67851C58.2362 9.62924 58.2901 9.58953 58.3503 9.56182C58.4104 9.53412 58.4756 9.51901 58.5419 9.51741H59.9555C60.0899 9.52431 60.2165 9.58292 60.3088 9.68099C60.401 9.77905 60.4518 9.90898 60.4504 10.0436V18.8285C60.4545 18.9653 60.4088 19.099 60.3219 19.2047C60.235 19.3105 60.1128 19.3812 59.9778 19.4037Z" fill="white"/>
<path d="M74.3053 19.1765C72.7355 19.5611 71.1276 19.769 69.5115 19.7963C65.6141 19.7963 63.8125 17.259 63.8125 13.3392V11.5064C63.8125 7.58222 65.5962 5.04932 69.5115 5.04932C71.1329 5.06898 72.7469 5.27092 74.3231 5.65133C74.7958 5.75389 74.8716 5.88321 74.8716 6.24888V18.5923C74.8627 18.9357 74.778 19.0918 74.3053 19.1765ZM72.5528 7.22547C71.5416 7.05801 70.5186 6.97152 69.4937 6.96683C66.9028 6.96683 66.0957 8.71935 66.0957 11.4886V13.3214C66.0957 16.0639 66.9028 17.8431 69.4937 17.8431C70.5188 17.8382 71.5419 17.7502 72.5528 17.58V7.22547Z" fill="white"/>
<path d="M95.2521 19.6224H93.892C93.8259 19.6214 93.7608 19.6069 93.7007 19.5796C93.6405 19.5524 93.5866 19.5131 93.5423 19.4642C93.498 19.4153 93.4642 19.3578 93.443 19.2952C93.4218 19.2327 93.4138 19.1665 93.4193 19.1007V9.62459C93.4193 7.39492 92.4516 7.06048 91.0692 7.06048H90.4717C88.7994 7.06048 88.242 7.35033 88.242 8.84421V19.1007C88.247 19.1682 88.2378 19.236 88.215 19.2998C88.1923 19.3636 88.1565 19.4219 88.1099 19.471C88.0633 19.5201 88.0069 19.559 87.9444 19.585C87.8819 19.6111 87.8147 19.6238 87.747 19.6224H86.4092C86.3436 19.6208 86.279 19.6058 86.2193 19.5783C86.1597 19.5509 86.1063 19.5115 86.0625 19.4626C86.0186 19.4138 85.9852 19.3564 85.9643 19.2942C85.9434 19.232 85.9355 19.1661 85.941 19.1007V8.84421C85.941 7.35479 85.3657 7.06048 83.7113 7.06048H83.1093C81.7715 7.06048 80.7592 7.37709 80.7592 9.62459V19.0918C80.7667 19.1621 80.7585 19.2332 80.7353 19.3001C80.7122 19.3669 80.6745 19.4278 80.6252 19.4785C80.5758 19.5292 80.5158 19.5683 80.4496 19.5932C80.3834 19.6181 80.3125 19.628 80.242 19.6224H78.8774C78.8137 19.6179 78.7515 19.6008 78.6945 19.572C78.6374 19.5433 78.5867 19.5035 78.5452 19.4549C78.5037 19.4064 78.4723 19.35 78.4527 19.2892C78.4332 19.2284 78.426 19.1643 78.4315 19.1007V9.62459C78.4315 6.94899 79.9476 5.04932 83.0825 5.04932H83.6846C85.2542 5.04932 86.2754 5.25891 87.087 5.99024C87.8674 5.30796 88.9154 5.04932 90.485 5.04932H91.087C94.2086 5.04932 95.7381 6.93115 95.7381 9.62459V19.0918C95.7451 19.1594 95.7376 19.2277 95.7162 19.2922C95.6949 19.3568 95.6601 19.416 95.6142 19.4662C95.5683 19.5163 95.5123 19.5561 95.4498 19.583C95.3874 19.61 95.32 19.6234 95.2521 19.6224Z" fill="white"/>
<path d="M109.921 13.1564H101.172V13.4685C101.172 16.4741 102.585 17.861 104.989 17.861C106.482 17.8424 107.972 17.7202 109.448 17.4953H109.578C109.63 17.4883 109.683 17.4926 109.733 17.5077C109.784 17.5229 109.83 17.5486 109.87 17.5833C109.91 17.6179 109.942 17.6605 109.963 17.7084C109.985 17.7563 109.997 17.8083 109.997 17.861V18.7528C109.997 19.0962 109.894 19.279 109.475 19.3549C107.995 19.6597 106.487 19.8092 104.976 19.8008C101.97 19.8008 98.8574 18.3649 98.8574 13.3437V11.5064C98.8574 7.79181 100.922 5.04932 104.655 5.04932C108.472 5.04932 110.407 7.76951 110.407 11.4797V12.5811C110.416 12.9334 110.233 13.1564 109.921 13.1564ZM108.088 11.2701C108.088 8.47408 106.964 7.06048 104.663 7.06048C102.362 7.06048 101.172 8.57665 101.172 11.2701V11.4039H108.102L108.088 11.2701Z" fill="white"/>
<path d="M117.712 19.7963C116.326 19.7952 114.944 19.6638 113.583 19.4039C113.239 19.3236 113.03 19.1676 113.03 18.8822V17.968C113.043 17.8545 113.1 17.7504 113.188 17.6774C113.276 17.6044 113.388 17.5679 113.503 17.5756H113.605C114.863 17.7317 116.771 17.861 117.712 17.861C119.411 17.861 120.303 17.415 120.303 16.0059C120.303 15.2211 119.83 14.7216 118.341 13.8342L115.701 12.2645C114.105 11.2968 113.025 10.1731 113.025 8.5276C113.025 5.80741 115.068 5.04932 117.761 5.04932C119.128 5.04837 120.493 5.16174 121.841 5.38823C122.18 5.44174 122.336 5.62458 122.336 5.90997V6.77508C122.345 6.83555 122.339 6.89706 122.319 6.95485C122.299 7.01263 122.267 7.06513 122.224 7.10827C122.181 7.1514 122.128 7.18401 122.07 7.20357C122.013 7.22312 121.951 7.22909 121.891 7.22102H121.815C120.896 7.14521 119.224 7.01143 117.761 7.01143C116.299 7.01143 115.326 7.19872 115.326 8.53206C115.326 9.3169 115.928 9.81189 117.132 10.5165L119.728 12.0416C121.895 13.3258 122.604 14.4496 122.604 15.9925C122.604 18.6726 120.642 19.7963 117.712 19.7963Z" fill="white"/>
</g>
<path d="M14.4618 19.5829C13.2845 19.7658 10.0024 19.9976 8.86531 19.9976C3.81735 19.9976 0.392578 18.7312 0.392578 12.39V0.831435C0.393721 0.764488 0.408195 0.698439 0.435154 0.637149C0.462113 0.575858 0.501016 0.520555 0.549592 0.474471C0.598167 0.428387 0.655439 0.392446 0.718063 0.368748C0.780686 0.345049 0.847405 0.334069 0.91432 0.336449H5.17744C5.24451 0.33345 5.31149 0.344003 5.37439 0.367476C5.43728 0.390949 5.4948 0.426861 5.5435 0.473067C5.5922 0.519272 5.63109 0.574821 5.65784 0.636395C5.68459 0.697969 5.69865 0.764304 5.69918 0.831435V12.39C5.69918 14.7446 6.48403 15.5116 8.34357 15.5116C9.18291 15.5089 10.0213 15.4552 10.8542 15.351V0.831435C10.8547 0.764304 10.8688 0.697969 10.8955 0.636395C10.9223 0.574821 10.9611 0.519272 11.0099 0.473067C11.0586 0.426861 11.1161 0.390949 11.179 0.367476C11.2419 0.344003 11.3088 0.33345 11.3759 0.336449H15.6123C15.7504 0.330356 15.8854 0.378865 15.988 0.471491C16.0906 0.564117 16.1527 0.693416 16.1608 0.831435V17.5673C16.1608 19.03 15.7148 19.4001 14.4618 19.5829Z" fill="white"/>
<path d="M24.3711 19.7657H20.0812C19.944 19.7623 19.8135 19.7053 19.7177 19.607C19.6219 19.5087 19.5683 19.3768 19.5684 19.2395V0.831422C19.5695 0.765245 19.5837 0.699945 19.6101 0.639252C19.6365 0.578559 19.6746 0.523662 19.7222 0.477696C19.7699 0.431731 19.8261 0.395597 19.8877 0.371359C19.9492 0.347122 20.015 0.335255 20.0812 0.336436H24.3711C24.4381 0.333437 24.5051 0.343989 24.568 0.367463C24.6309 0.390936 24.6884 0.426848 24.7371 0.473053C24.7858 0.519258 24.8247 0.574808 24.8515 0.636382C24.8782 0.697956 24.8923 0.764291 24.8928 0.831422V19.2395C24.8934 19.3084 24.8803 19.3768 24.8544 19.4406C24.8284 19.5044 24.7901 19.5624 24.7416 19.6114C24.6931 19.6603 24.6354 19.6991 24.5718 19.7256C24.5082 19.7521 24.44 19.7657 24.3711 19.7657Z" fill="white"/>
<path d="M39.5389 19.5284C38.349 19.8676 37.1147 20.0254 35.8778 19.9966C31.0662 19.9966 27.8242 17.3834 27.8242 11.3945V8.71895C27.8242 2.71223 31.0662 0.0990612 35.8778 0.0990612C37.1146 0.0725102 38.3485 0.230318 39.5389 0.567291C39.9581 0.701071 40.1141 0.77688 40.1141 1.14254V4.4915C40.1141 4.83041 39.9581 4.98649 39.6682 4.98649H39.5879C38.3725 4.84449 37.1504 4.76709 35.9268 4.7546C34.5132 4.7546 33.2512 5.37891 33.2512 8.70111V11.3767C33.2512 14.6722 34.5088 15.3277 35.9268 15.3277C37.1505 15.314 38.3726 15.2351 39.5879 15.0913H39.637C39.9491 15.0913 40.0829 15.2474 40.0829 15.5863V18.9531C40.1141 19.292 39.9581 19.399 39.5389 19.5284Z" fill="white"/>
</svg>
