<svg width="159" height="20" viewBox="0 0 159 20" fill="none" xmlns="http://www.w3.org/2000/svg">
<path d="M5.76928 9.13681C5.47476 8.81285 5.033 8.84224 4.82684 9.22511L0.055635 18.7969C-0.121074 19.1797 0.144047 19.6216 0.556369 19.6216H7.21237C7.41853 19.6216 7.62468 19.5038 7.71303 19.2976C9.15616 16.323 8.27266 11.8169 5.76928 9.13681Z" fill="url(#paint0_linear_6148_4836)"/>
<path d="M9.2749 0.448707C6.59481 4.68973 6.77152 9.37246 8.53861 12.9066C10.3057 16.4408 11.6605 19.121 11.7489 19.3272C11.8372 19.5333 12.0434 19.651 12.2495 19.651H18.9055C19.3179 19.651 19.6124 19.2093 19.4063 18.8264C19.4063 18.8264 10.4529 0.91996 10.2173 0.478188C10.0406 0.0364146 9.53996 0.0363858 9.2749 0.448707Z" fill="white"/>
<path d="M99.7141 14.88C99.7141 12.0821 98.212 10.7568 94.0299 9.84378C91.7032 9.3431 91.1436 8.81297 91.1436 8.07669C91.1436 7.16369 91.9683 6.75137 93.4998 6.75137C95.3552 6.75137 97.1812 7.31097 98.9189 8.10617V4.42472C97.7114 3.80624 95.8265 3.33496 93.6176 3.33496C89.4649 3.33496 87.3149 5.13156 87.3149 8.10617C87.3149 10.4623 88.4047 12.3471 92.7046 13.1717C95.2669 13.7019 95.797 14.1142 95.797 14.9683C95.797 15.793 95.2669 16.3231 93.4409 16.3231C91.3498 16.3231 88.8464 15.6162 87.2266 14.6443V18.5025C88.5224 19.1504 90.2306 19.8573 93.4114 19.8573C97.9175 19.8573 99.7141 17.8546 99.7141 14.88Z" fill="white"/>
<path d="M145.01 3.60059V19.6223H148.426V7.39995L149.869 10.6396L154.699 19.6223H158.999V3.60059H155.583V13.9381L154.287 10.9341L150.399 3.60059H145.01Z" fill="white"/>
<path d="M123.309 3.60059H119.568V19.6223H123.309V3.60059Z" fill="white"/>
<path d="M115.263 14.88C115.263 12.0821 113.761 10.7568 109.579 9.84378C107.252 9.3431 106.692 8.81297 106.692 8.07669C106.692 7.16369 107.517 6.75137 109.049 6.75137C110.904 6.75137 112.73 7.31097 114.468 8.10617V4.42472C113.26 3.80624 111.375 3.33496 109.166 3.33496C105.014 3.33496 102.864 5.13156 102.864 8.10617C102.864 10.4623 103.953 12.3471 108.253 13.1717C110.816 13.7019 111.346 14.1142 111.346 14.9683C111.346 15.793 110.816 16.3231 108.99 16.3231C106.899 16.3231 104.395 15.6162 102.775 14.6443V18.5025C104.071 19.1504 105.779 19.8573 108.96 19.8573C113.466 19.8573 115.263 17.8546 115.263 14.88Z" fill="white"/>
<path d="M58.334 3.60059V19.6223H65.9914L67.1989 16.147H62.0743V3.60059H58.334Z" fill="white"/>
<path d="M43.168 3.60107V7.04696H47.3206V19.6228H51.0904V7.04696H55.5081V3.60107H43.168Z" fill="white"/>
<path d="M37.7212 3.60107H32.8028L27.207 19.6228H31.4775L32.2727 16.9132C33.2151 17.1783 34.2165 17.355 35.2767 17.355C36.337 17.355 37.3089 17.2077 38.2808 16.9132L39.0759 19.6228H43.3464L37.7212 3.60107ZM35.2472 14.027C34.5404 14.027 33.8336 13.9092 33.1856 13.7325L35.2472 6.72296L37.3088 13.7325C36.6609 13.9387 35.9835 14.027 35.2472 14.027Z" fill="white"/>
<path d="M79.2468 3.60059H74.2989L68.7031 19.6223H72.9736L73.7688 16.9127C74.7112 17.1778 75.7126 17.3545 76.7728 17.3545C77.8036 17.3545 78.805 17.2072 79.7769 16.9127L80.5721 19.6223H84.8426L79.2468 3.60059ZM76.7728 14.0265C76.066 14.0265 75.3591 13.9087 74.7112 13.732L76.7728 6.72248L78.8344 13.732C78.1865 13.9382 77.4797 14.0265 76.7728 14.0265Z" fill="white"/>
<path d="M136.737 3.60059H131.818L126.223 19.6223H130.493L131.288 16.9127C132.231 17.1778 133.232 17.3545 134.292 17.3545C135.323 17.3545 136.324 17.2072 137.296 16.9127L138.092 19.6223H142.362L136.737 3.60059ZM134.292 14.0265C133.586 14.0265 132.879 13.9087 132.231 13.732L134.292 6.72248L136.354 13.732C135.677 13.9382 134.999 14.0265 134.292 14.0265Z" fill="white"/>
<defs>
<linearGradient id="paint0_linear_6148_4836" x1="8.38307" y1="10.6054" x2="3.33766" y2="19.3444" gradientUnits="userSpaceOnUse">
<stop stop-color="white" stop-opacity="0.4"/>
<stop offset="0.9228" stop-color="white"/>
</linearGradient>
</defs>
</svg>
