<svg width="111" height="88" viewBox="0 0 111 88" fill="none" xmlns="http://www.w3.org/2000/svg">
<path fill-rule="evenodd" clip-rule="evenodd" d="M48.9872 41.9037H45.6227V40.251H48.7669V38.9924H45.6227V37.552H48.9188V36.2935H43.9062V43.1698H48.9872V41.9037Z" fill="white"/>
<path fill-rule="evenodd" clip-rule="evenodd" d="M59.8574 36.2936V43.1699H61.5739V40.4027H62.9409C64.5282 40.4027 65.2118 39.2958 65.2118 38.3254C65.2118 37.3853 64.5055 36.286 62.9257 36.286H59.8574V36.2936ZM61.5742 37.5521H62.1818C63.1084 37.5521 63.4425 37.7644 63.4425 38.3482C63.4425 38.8637 63.1615 39.1442 62.3717 39.1442H61.5742V37.5521Z" fill="white"/>
<path fill-rule="evenodd" clip-rule="evenodd" d="M66.7598 36.2935V43.1698H68.4762V40.3723H68.9699C69.8964 40.3723 70.1698 41.6914 70.9065 43.1698H72.8052C71.8331 41.1531 71.6205 40.304 70.9141 39.9553C71.704 39.5914 72.0989 39.0303 72.0989 38.2722C72.0989 37.2411 71.2635 36.2935 69.8433 36.2935H66.7598ZM68.4763 37.552H69.3422C69.9877 37.552 70.3219 37.8174 70.3219 38.3253C70.3219 38.9091 69.8586 39.1138 69.3801 39.1138H68.4688V37.552H68.4763Z" fill="white"/>
<path fill-rule="evenodd" clip-rule="evenodd" d="M80.0438 41.9037H76.6793V40.251H79.8236V38.9924H76.6793V37.552H79.9755V36.2935H74.9629V43.1698H80.0438V41.9037Z" fill="white"/>
<path fill-rule="evenodd" clip-rule="evenodd" d="M87.1977 36.7332C86.3319 36.3617 85.6332 36.2025 84.8661 36.2025C83.2712 36.2025 82.2383 36.991 82.2383 38.1813C82.2383 40.6528 85.7471 40.2358 85.7471 41.3655C85.7471 41.7673 85.3901 42.0023 84.737 42.0023C83.9775 42.0023 83.3699 41.7673 82.3826 41.1153V42.6012C83.0661 42.9576 83.6661 43.2684 84.8661 43.2684C86.4002 43.2684 87.5167 42.5027 87.5167 41.1835C87.5167 38.7802 84.0079 39.0759 84.0079 38.0372C84.0079 37.6961 84.4028 37.4762 85.018 37.4762C85.6028 37.4762 86.2028 37.6506 87.1977 38.0903V36.7332Z" fill="white"/>
<path fill-rule="evenodd" clip-rule="evenodd" d="M94.4809 36.7332C93.6151 36.3617 92.9164 36.2025 92.1493 36.2025C90.5544 36.2025 89.5215 36.991 89.5215 38.1813C89.5215 40.6528 93.0303 40.2358 93.0303 41.3655C93.0303 41.7673 92.6733 42.0023 92.0202 42.0023C91.2607 42.0023 90.6531 41.7673 89.6658 41.1153V42.6012C90.3493 42.9576 90.9493 43.2684 92.1493 43.2684C93.6834 43.2684 94.7999 42.5027 94.7999 41.1835C94.7999 38.7802 91.2911 39.0759 91.2911 38.0372C91.2911 37.6961 91.686 37.4762 92.3012 37.4762C92.886 37.4762 93.486 37.6506 94.4809 38.0903V36.7332Z" fill="white"/>
<path fill-rule="evenodd" clip-rule="evenodd" d="M104.475 41.7673H102.25C103.48 40.2055 104.118 39.0228 104.118 38.1585C104.118 36.9379 103.29 36.2025 101.938 36.2025C101.285 36.2025 100.753 36.3845 100.009 36.8545V38.295C100.564 37.7567 101.179 37.4383 101.665 37.4383C102.181 37.4383 102.584 37.8932 102.584 38.4239C102.584 38.9621 102.401 39.4625 101.839 40.3192C101.346 41.0774 100.647 42.0857 99.918 42.9727V43.1622H104.475V41.7673Z" fill="white"/>
<path fill-rule="evenodd" clip-rule="evenodd" d="M110.535 36.2026H109.563L106.32 40.38V41.4793H109.009V43.17H110.535V41.4793H110.999V40.38H110.535V36.2026ZM108.994 38.4998H109.016V40.3724H107.543L108.994 38.4998Z" fill="white"/>
<path fill-rule="evenodd" clip-rule="evenodd" d="M54.4789 38.4314L53.1118 36.2935H51.1599L53.37 39.6065L51.084 43.1698H52.9979L54.4789 40.7817L55.9675 43.1698H57.8813L55.5953 39.6065L57.8054 36.2935H55.8535L54.4789 38.4314Z" fill="white"/>
<path fill-rule="evenodd" clip-rule="evenodd" d="M48.9501 41.8886H45.5856V40.2358H48.7298V38.9773H45.5856V37.5368H48.8817V36.2783H43.8691V43.1471H48.9501V41.8886Z" fill="white"/>
<path fill-rule="evenodd" clip-rule="evenodd" d="M59.8125 36.2783V43.1547H61.5289V40.395H62.8884C64.4757 40.395 65.1593 39.2881 65.1593 38.3177C65.1593 37.3776 64.4529 36.2783 62.8808 36.2783H59.8125ZM61.5293 37.5369H62.1369C63.0635 37.5369 63.3976 37.7491 63.3976 38.3329C63.3976 38.8484 63.1166 39.129 62.3268 39.129H61.5293V37.5369Z" fill="white"/>
<path fill-rule="evenodd" clip-rule="evenodd" d="M66.707 36.2783V43.1547H68.4235V40.3647H68.9171C69.8437 40.3647 70.1171 41.6839 70.8538 43.1547H72.7449C71.7728 41.138 71.5601 40.2889 70.8538 39.9401C71.6437 39.5762 72.0386 39.0152 72.0386 38.2571C72.0386 37.226 71.2032 36.2783 69.7905 36.2783H66.707ZM68.4236 37.5369H69.2894C69.935 37.5369 70.2692 37.8022 70.2692 38.3102C70.2692 38.8939 69.8059 39.0986 69.3274 39.0986H68.416V37.5369H68.4236Z" fill="white"/>
<path fill-rule="evenodd" clip-rule="evenodd" d="M79.9833 41.8886H76.6188V40.2358H79.7554V38.9773H76.6188V37.5368H79.9073V36.2783H74.9023V43.1471H79.9833V41.8886Z" fill="white"/>
<path fill-rule="evenodd" clip-rule="evenodd" d="M87.1293 36.7181C86.2635 36.3466 85.5648 36.1874 84.7977 36.1874C83.2028 36.1874 82.1699 36.9758 82.1699 38.1661C82.1699 40.6377 85.6711 40.2207 85.6711 41.3503C85.6711 41.7521 85.3142 41.9872 84.661 41.9872C83.9015 41.9872 83.3015 41.7521 82.3066 41.1001V42.5785C82.9902 42.9348 83.5902 43.2457 84.7901 43.2457C86.3243 43.2457 87.4331 42.4799 87.4331 41.1608C87.4331 38.7651 83.9319 39.0532 83.9319 38.0145C83.9319 37.6733 84.3269 37.4535 84.942 37.4535C85.5268 37.4535 86.1268 37.6278 87.1217 38.0676V36.7181H87.1293Z" fill="white"/>
<path fill-rule="evenodd" clip-rule="evenodd" d="M94.4047 36.7181C93.5389 36.3466 92.8402 36.1874 92.0731 36.1874C90.4782 36.1874 89.4453 36.9758 89.4453 38.1661C89.4453 40.6377 92.9465 40.2207 92.9465 41.3503C92.9465 41.7521 92.5896 41.9872 91.9364 41.9872C91.1769 41.9872 90.5769 41.7521 89.582 41.1001V42.5785C90.2656 42.9348 90.8655 43.2457 92.0655 43.2457C93.5997 43.2457 94.7085 42.4799 94.7085 41.1608C94.7085 38.7651 91.2073 39.0532 91.2073 38.0145C91.2073 37.6733 91.6022 37.4535 92.2174 37.4535C92.8022 37.4535 93.4022 37.6278 94.3971 38.0676V36.7181H94.4047Z" fill="white"/>
<path fill-rule="evenodd" clip-rule="evenodd" d="M104.393 41.7521H102.175C103.406 40.1904 104.044 39.0077 104.044 38.1434C104.044 36.9228 103.216 36.1874 101.864 36.1874C101.211 36.1874 100.679 36.3693 99.9349 36.8394V38.2798C100.489 37.7491 101.104 37.4231 101.591 37.4231C102.107 37.4231 102.51 37.878 102.51 38.4087C102.51 38.9394 102.327 39.4474 101.765 40.3041C101.272 41.0622 100.573 42.0706 99.8438 42.9576V43.1471H104.401V41.7521H104.393Z" fill="white"/>
<path fill-rule="evenodd" clip-rule="evenodd" d="M110.453 36.1873H109.481L106.238 40.357V41.4563H108.927V43.147H110.453V41.4563H110.917V40.357H110.453V36.1873ZM108.912 38.4844H108.934V40.357H107.461L108.912 38.4844Z" fill="white"/>
<path fill-rule="evenodd" clip-rule="evenodd" d="M54.4415 38.4163L53.0669 36.2783H51.115L53.3251 39.5914L51.0391 43.1471H52.953L54.4415 40.7665L55.9301 43.1471H57.8364L55.5504 39.5914L57.7605 36.2783H55.8086L54.4415 38.4163Z" fill="white"/>
<path fill-rule="evenodd" clip-rule="evenodd" d="M46.5121 47.9158C46.1096 47.749 45.7982 47.6732 45.4944 47.6732C44.5527 47.6732 43.8691 48.3328 43.8691 49.235C43.8691 49.8567 44.3552 50.7134 45.4716 50.7134C45.9349 50.7134 46.2539 50.6072 46.5501 50.4556V49.9931C46.2159 50.213 45.8514 50.3267 45.5172 50.3267C44.8033 50.3267 44.3172 49.8642 44.3172 49.2047C44.3172 48.5527 44.8185 48.0675 45.502 48.0675C45.8438 48.0675 46.1628 48.166 46.5273 48.3783V47.9158H46.5121ZM48.8512 47.696H48.5474L47.2715 50.6755H47.7044L48.6917 48.2722L49.7398 50.6755H50.1727L48.8512 47.696ZM51.1382 47.7113H50.7129L52.0116 50.6756C51.9888 50.8803 51.7838 51.0016 51.6698 51.0016C51.4952 51.0016 51.3736 50.9637 51.2749 50.8652V51.2442C51.3736 51.3049 51.5028 51.3504 51.6471 51.3504C51.9888 51.3504 52.2091 51.1533 52.3838 50.6756L53.4926 47.7113H53.0749L52.2015 50.1904L51.1382 47.7113ZM56.1125 48.9167C55.8011 48.9167 55.596 48.8334 55.4213 48.3936C55.2163 47.8705 54.9884 47.7189 54.5707 47.7189H54.5024V48.098C54.8821 48.098 54.9656 48.2344 55.0872 48.5832C55.1631 48.803 55.353 49.0229 55.5353 49.1063C55.2922 49.22 55.1403 49.3261 54.9581 49.5991L54.2441 50.6756H54.7378L55.315 49.7734C55.4745 49.5233 55.7783 49.2655 56.1125 49.2655V50.6756H56.5378V49.2655C56.8719 49.2655 57.1757 49.5233 57.3352 49.7734L57.9124 50.6756H58.4061L57.6922 49.5991C57.5099 49.3261 57.358 49.22 57.115 49.1063C57.2973 49.0229 57.4871 48.7954 57.5631 48.5832C57.6846 48.2344 57.7605 48.098 58.1479 48.098V47.7189H58.0795C57.6618 47.7189 57.434 47.8705 57.2289 48.3936C57.0542 48.8334 56.8492 48.9167 56.5378 48.9167V47.7113H56.1125V48.9167ZM59.4473 50.6757H60.4726C61.1029 50.6757 61.5358 50.3422 61.5358 49.7887C61.5358 49.2277 61.0953 48.9017 60.4726 48.9017H59.8726V48.0981H61.3384V47.719H59.4473V50.6757ZM59.8711 49.2805H60.4407C60.8812 49.2805 61.1015 49.4625 61.1015 49.7885C61.1015 50.0614 60.8812 50.2888 60.5242 50.2888H59.8711V49.2805ZM63.783 47.6961H63.4792L62.2032 50.6756H62.6362L63.0083 49.8037H64.269L64.664 50.6756H65.0969L63.783 47.6961ZM63.6239 48.3479L64.1023 49.4245H63.1758L63.6239 48.3479ZM70.0633 50.2965H69.6304L68.6051 47.696H68.3013L67.3216 50.2965H66.8887V51.2214H67.3216V50.6755H69.6304V51.2214H70.0633V50.2965ZM68.4468 48.3176L69.1987 50.2964H67.748L68.4468 48.3176ZM70.8379 49.1971C70.8379 50.0007 71.4531 50.7209 72.4252 50.7209C73.4277 50.7209 74.0277 50.0007 74.0277 49.1971C74.0277 48.3707 73.4125 47.6732 72.4328 47.6732C71.4683 47.6732 70.8379 48.3707 70.8379 49.1971ZM71.2793 49.1971C71.2793 48.5451 71.773 48.0675 72.4337 48.0675C73.1021 48.0675 73.5881 48.5451 73.5881 49.1971C73.5881 49.8415 73.0945 50.3267 72.4337 50.3267C71.773 50.3267 71.2793 49.8415 71.2793 49.1971ZM77.6137 47.9158C77.2112 47.749 76.8998 47.6732 76.596 47.6732C75.6542 47.6732 74.9707 48.3328 74.9707 49.235C74.9707 49.8567 75.4568 50.7134 76.5732 50.7134C77.0365 50.7134 77.3555 50.6072 77.6517 50.4556V49.9931C77.3175 50.213 76.9529 50.3267 76.6188 50.3267C75.9049 50.3267 75.4188 49.8642 75.4188 49.2047C75.4188 48.5527 75.9201 48.0675 76.6036 48.0675C76.9454 48.0675 77.2643 48.166 77.6289 48.3783V47.9158H77.6137ZM80.9327 47.7113H78.4492V48.0904H79.4745V50.6681H79.8998V48.0904H80.9251V47.7113H80.9327ZM83.111 47.696H82.8072L81.5312 50.6755H81.9642L82.3363 49.8037H83.597L83.992 50.6755H84.4249L83.111 47.696ZM82.9522 48.3479L83.4307 49.4245H82.5117L82.9522 48.3479ZM85.2988 50.6756H86.3165C87.0608 50.6756 87.3342 50.2511 87.3342 49.8872C87.3342 49.4854 87.0608 49.1973 86.6203 49.1139V49.1063C86.9317 48.9774 87.076 48.7803 87.076 48.4694C87.076 48.098 86.8026 47.7113 86.1646 47.7113H85.3064V50.6756H85.2988ZM85.7246 48.0978H86.1195C86.5145 48.0978 86.636 48.2873 86.636 48.5072C86.636 48.8256 86.4309 48.9772 86.0056 48.9772H85.7246V48.0978ZM85.7246 49.3639H86.2411C86.6892 49.3639 86.9018 49.5534 86.9018 49.8264C86.9018 50.0462 86.7651 50.2964 86.2638 50.2964H85.7322V49.3639H85.7246ZM88.2832 47.7113V50.6756H88.7085V49.2655H88.83C89.111 49.2655 89.4072 49.4399 89.6579 49.8796L90.1212 50.6756H90.6072L90.0908 49.7734C89.8781 49.402 89.6503 49.1897 89.4452 49.0987C89.6047 49.0229 89.7794 48.7954 89.8553 48.5832C89.9768 48.2344 90.0528 48.098 90.4401 48.098V47.7189H90.3718C89.9541 47.7189 89.7262 47.8705 89.5212 48.3936C89.3465 48.8334 89.1414 48.9167 88.83 48.9167H88.7085V47.7113H88.2832ZM94.2302 47.7113H94.0252L92.1417 49.963V47.7113H91.7088V50.706H91.9138L93.7973 48.4922V50.6681H94.2226V47.7113H94.2302Z" fill="#FFC521"/>
<path fill-rule="evenodd" clip-rule="evenodd" d="M18.5622 31C25.6026 31 31.3139 36.7012 31.3139 43.7292C31.3139 50.7572 25.6026 56.4584 18.5622 56.4584C11.5219 56.4584 5.81055 50.7572 5.81055 43.7292C5.81814 36.7012 11.5219 31 18.5622 31Z" fill="#FFC521"/>
<path fill-rule="evenodd" clip-rule="evenodd" d="M18.5617 51.0528C8.30873 51.0528 0 47.9066 0 46.0339C0 44.1613 4.35943 42.9711 10.6327 41.7732C10.6252 42.1144 10.6252 42.4707 10.6252 42.8118C10.891 44.1841 14.3238 44.9043 18.5693 44.9043C22.8148 44.9043 26.2553 44.131 26.5135 42.8118C26.5135 42.4631 26.5135 42.1144 26.5059 41.7732C32.7792 42.9711 37.1311 44.1613 37.1311 46.0339C37.1311 47.9066 28.8147 51.0528 18.5617 51.0528Z" fill="#8CC798"/>
<path fill-rule="evenodd" clip-rule="evenodd" d="M25.7837 50.5297C24.1356 52.0459 21.5154 53.0315 18.5686 53.0315C15.6218 53.0315 13.0016 52.0535 11.3535 50.5297C13.5712 50.8557 16.0091 51.0452 18.5686 51.0452C21.1205 51.0528 23.566 50.8557 25.7837 50.5297Z" fill="#8CC798"/>
<path fill-rule="evenodd" clip-rule="evenodd" d="M18.3939 53.0315C15.5155 52.9936 12.9636 52.0232 11.3535 50.5372C12.5155 50.704 13.7383 50.8405 15.0066 50.9315C15.2421 51.2575 16.161 52.3492 18.3939 53.0315Z" fill="#4FA26C"/>
<path fill-rule="evenodd" clip-rule="evenodd" d="M18.5692 34.4268C14.4224 34.4268 10.9288 37.6489 10.6326 41.7807L10.625 42.1674C10.8528 43.3349 14.3237 44.2598 18.5692 44.2598C22.8147 44.2598 26.2855 43.3349 26.5134 42.1674L26.5058 41.7807C26.2096 37.6489 22.716 34.4268 18.5692 34.4268Z" fill="#009DE2"/>
<path fill-rule="evenodd" clip-rule="evenodd" d="M24.0914 43.6457L24.1597 43.6305C24.8281 43.4486 26.3622 42.9558 26.5141 42.1749L26.5065 41.7883C26.3167 39.0741 24.7142 36.6253 22.2534 35.3365C22.1395 35.2758 22.056 35.2303 21.8965 35.1621C22.018 35.2531 24.0914 36.9362 24.0914 40.9467V43.6457Z" fill="#A0D8F7"/>
<path fill-rule="evenodd" clip-rule="evenodd" d="M10.625 42.1749V42.8193C10.8908 44.1916 14.3237 44.9118 18.5692 44.9118C22.8147 44.9118 26.2551 44.1385 26.5134 42.8193V42.1749C26.2855 43.3425 22.8147 44.2674 18.5692 44.2674C14.3161 44.2674 10.8452 43.3425 10.625 42.1749Z" fill="#FFEC00"/>
<path fill-rule="evenodd" clip-rule="evenodd" d="M18.5706 46.6858C19.277 46.6858 19.8542 47.262 19.8542 47.967V47.9746C19.4896 48.149 19.0491 48.2476 18.5706 48.2476C18.0922 48.2476 17.6517 48.149 17.2871 47.9746V47.967C17.2871 47.262 17.8643 46.6858 18.5706 46.6858Z" fill="#FFEC00"/>
<path fill-rule="evenodd" clip-rule="evenodd" d="M17.2871 47.9824V47.9748V47.9445C17.3023 47.3911 17.682 46.9134 18.1909 46.7542L18.2213 46.7466L18.2517 46.7391L18.2744 46.7315H18.282L18.3048 46.7239H18.3124H18.32L18.3504 46.7163L18.3732 46.7087H18.3808H18.4035H18.4111H18.4339H18.4491H18.4719H18.4947C18.4871 46.7163 17.9327 47.0272 17.8339 47.6261C17.8036 47.8232 17.796 48.0127 17.796 48.1795C17.6137 48.1113 17.439 48.0507 17.2871 47.9824Z" fill="#FFCB00"/>
<path fill-rule="evenodd" clip-rule="evenodd" d="M19.8542 47.9822V48.3537C19.4896 48.528 19.0491 48.6266 18.5706 48.6266C18.0922 48.6266 17.6517 48.528 17.2871 48.3537V47.9822C17.6517 48.1566 18.0922 48.2551 18.5706 48.2551C19.0415 48.2551 19.4896 48.149 19.8542 47.9822Z" fill="#EE7C00"/>
<path fill-rule="evenodd" clip-rule="evenodd" d="M11.3402 46.0339C12.0465 46.0339 12.6237 46.6101 12.6237 47.3152V47.3228C12.2591 47.4971 11.8186 47.5957 11.3402 47.5957C10.8617 47.5957 10.4212 47.4971 10.0566 47.3228V47.3152C10.0566 46.6101 10.6338 46.0339 11.3402 46.0339Z" fill="#FFEC00"/>
<path fill-rule="evenodd" clip-rule="evenodd" d="M10.0566 47.323V47.3154V47.2851C10.0718 46.724 10.4516 46.254 10.9604 46.0948L10.9908 46.0872L11.0212 46.0796L11.044 46.072H11.0516L11.0743 46.0645H11.0819H11.0895L11.1199 46.0569H11.1427H11.1503H11.1731H11.1807H11.2035H11.2186H11.2414H11.2642C11.2566 46.0645 10.7022 46.3753 10.6035 46.9742C10.5731 47.1638 10.5655 47.3609 10.5655 47.5277C10.3756 47.4594 10.2085 47.3988 10.0566 47.323Z" fill="#FFCB00"/>
<path fill-rule="evenodd" clip-rule="evenodd" d="M12.6237 47.3228V47.6942C12.2591 47.8686 11.8186 47.9672 11.3402 47.9672C10.8617 47.9672 10.4212 47.8686 10.0566 47.6942V47.3228C10.4212 47.4971 10.8617 47.5957 11.3402 47.5957C11.811 47.5957 12.2591 47.4971 12.6237 47.3228Z" fill="#EE7C00"/>
<path fill-rule="evenodd" clip-rule="evenodd" d="M25.4281 46.0338C26.1344 46.0338 26.7116 46.61 26.7116 47.3151V47.3227C26.347 47.497 25.9065 47.5956 25.4281 47.5956C24.9496 47.5956 24.5091 47.497 24.1445 47.3227V47.3151C24.1445 46.61 24.7217 46.0338 25.4281 46.0338Z" fill="#FFEC00"/>
<path fill-rule="evenodd" clip-rule="evenodd" d="M24.1445 47.3229V47.3153V47.285C24.1597 46.7239 24.5395 46.2539 25.0483 46.0947L25.0787 46.0871L25.1091 46.0795L25.1319 46.0719H25.1395L25.1622 46.0643H25.1698H25.1774L25.2078 46.0568H25.2306H25.2382H25.261H25.2686H25.2913H25.3065H25.3293H25.3521C25.3445 46.0643 24.7901 46.3752 24.6914 46.9741C24.661 47.1636 24.6534 47.3608 24.6534 47.5276C24.4711 47.4593 24.304 47.3987 24.1445 47.3229Z" fill="#FFCB00"/>
<path fill-rule="evenodd" clip-rule="evenodd" d="M26.7116 47.3228V47.6942C26.347 47.8686 25.9065 47.9672 25.4281 47.9672C24.9496 47.9672 24.5091 47.8686 24.1445 47.6942V47.3228C24.5091 47.4971 24.9496 47.5957 25.4281 47.5957C25.9065 47.5957 26.347 47.4971 26.7116 47.3228Z" fill="#EE7C00"/>
<path fill-rule="evenodd" clip-rule="evenodd" d="M30.3187 44.0096C31.025 44.0096 31.6022 44.5858 31.6022 45.2909V45.2985C31.2377 45.4729 30.7972 45.5714 30.3187 45.5714C29.8402 45.5714 29.3997 45.4729 29.0352 45.2985V45.2909C29.0352 44.5858 29.6124 44.0096 30.3187 44.0096Z" fill="#FFEC00"/>
<path fill-rule="evenodd" clip-rule="evenodd" d="M29.0352 45.3061V45.2986V45.2682C29.0503 44.7072 29.4301 44.2372 29.9389 44.078L29.9693 44.0704L29.9997 44.0628L30.0225 44.0552H30.0301L30.0529 44.0476H30.0605L30.0908 44.0401L30.1136 44.0325H30.1212H30.144H30.1516H30.1744H30.1896H30.2124H30.2351C30.2275 44.0401 29.6731 44.3509 29.5744 44.9498C29.544 45.1394 29.5364 45.3365 29.5364 45.5033C29.3617 45.435 29.1946 45.3744 29.0352 45.3061Z" fill="#FFCB00"/>
<path fill-rule="evenodd" clip-rule="evenodd" d="M31.6022 45.306V45.6775C31.2377 45.8519 30.7972 45.9505 30.3187 45.9505C29.8402 45.9505 29.3997 45.8519 29.0352 45.6775V45.306C29.3997 45.4804 29.8402 45.579 30.3187 45.579C30.7972 45.579 31.2377 45.4728 31.6022 45.306Z" fill="#EE7C00"/>
<path fill-rule="evenodd" clip-rule="evenodd" d="M1.40592 44.3357C2.92488 43.4866 5.59826 42.7815 8.95516 42.0992C9.51718 41.9931 10.0792 41.8793 10.626 41.7732V41.8035C10.6184 42.1371 10.6184 42.4858 10.6184 42.8194C10.8463 44.0173 13.4893 44.7224 16.9829 44.8816C17.3626 44.9043 17.7576 44.9195 18.1525 44.9271C13.626 44.9498 10.2083 45.0863 2.63628 47.2849C0.995795 46.3979 0.357831 45.3895 1.40592 44.3357Z" fill="#4FA26C"/>
<path fill-rule="evenodd" clip-rule="evenodd" d="M18.5617 51.0528C9.12897 51.0528 1.34428 48.3842 0.159491 46.504C0.0683534 46.3448 0.0227845 46.2083 0.00759482 46.0946C0.00759482 46.0718 0 46.0491 0 46.0339C0 45.3971 0.501258 44.8436 1.40504 44.3433C-1.64808 47.391 9.56188 50.1279 18.5617 50.1279C27.5692 50.1279 38.7791 47.3834 35.7184 44.3357C36.6222 44.8361 37.1235 45.3971 37.1235 46.0263C37.1235 46.0491 37.1235 46.0718 37.1159 46.087C37.1007 46.2007 37.0551 46.3372 36.964 46.4964C35.7868 48.3842 27.9945 51.0528 18.5617 51.0528Z" fill="#006126"/>
<path fill-rule="evenodd" clip-rule="evenodd" d="M6.59212 44.0096C7.29844 44.0096 7.87564 44.5858 7.87564 45.2909V45.2985C7.51109 45.4729 7.07059 45.5714 6.59212 45.5714C6.11364 45.5714 5.67315 45.4729 5.30859 45.2985V45.2909C5.30859 44.5858 5.8858 44.0096 6.59212 44.0096Z" fill="#FFEC00"/>
<path fill-rule="evenodd" clip-rule="evenodd" d="M5.30859 45.3061V45.2986V45.2682C5.32378 44.7072 5.70352 44.2372 6.21238 44.078L6.24276 44.0704L6.27314 44.0628L6.29592 44.0552H6.30352L6.3263 44.0476H6.33389H6.34149L6.37187 44.0401L6.39465 44.0325H6.40225H6.42503H6.43263H6.45541H6.4706H6.49339H6.51617C6.50858 44.0401 5.95415 44.3509 5.85542 44.9498C5.82504 45.1394 5.81745 45.3365 5.81745 45.5033C5.63517 45.435 5.46049 45.3744 5.30859 45.3061Z" fill="#FFCB00"/>
<path fill-rule="evenodd" clip-rule="evenodd" d="M7.87564 45.306V45.6775C7.51109 45.8519 7.07059 45.9505 6.59212 45.9505C6.11364 45.9505 5.67315 45.8519 5.30859 45.6775V45.306C5.67315 45.4804 6.11364 45.579 6.59212 45.579C7.063 45.579 7.51109 45.4728 7.87564 45.306Z" fill="#EE7C00"/>
</svg>
