<svg width="111" height="88" viewBox="0 0 111 88" fill="none" xmlns="http://www.w3.org/2000/svg">
<path d="M24.0236 29.1205C25.4694 28.1177 26.9021 27.0981 28.3536 26.1041C23.1226 31.0779 17.8744 36.0349 12.6353 41.0007C12.605 41.0376 12.5446 41.1113 12.5136 41.1481C12.4899 38.7998 12.5037 36.4506 12.507 34.1023C12.9138 34.6437 13.3296 35.1779 13.7233 35.7282C13.7257 35.7322 13.7315 35.7386 13.7339 35.7426C13.8287 35.8715 13.9299 35.9973 14.0549 36.0998C17.3672 33.7587 20.7031 31.4504 24.0236 29.1205Z" fill="#ED1B24"/>
<path d="M13.7246 35.7284C13.7274 35.733 13.734 35.7403 13.7368 35.7449C13.734 35.7403 13.7274 35.733 13.7246 35.7284Z" fill="#AF7977"/>
<path d="M8.00195 36.1187C9.12102 36.1203 10.2401 36.1162 11.36 36.1203C11.3567 36.785 11.36 37.4498 11.3583 38.1146C10.9205 38.1154 10.4835 38.1106 10.0465 38.1162C10.0498 40.1281 10.044 42.1409 10.0489 44.1528C12.809 44.1496 15.5699 44.1544 18.33 44.1512C19.3454 44.136 20.2537 43.2718 20.2962 42.2763C20.3051 41.553 20.2945 40.8298 20.3002 40.1065C20.3125 39.187 19.5806 38.3244 18.6584 38.1634C19.1616 37.6332 19.7203 37.1559 20.2333 36.6345C21.5132 37.3481 22.3407 38.7489 22.3513 40.1906C22.3472 40.9091 22.3603 41.6283 22.344 42.3475C22.2623 43.9494 21.1122 45.4383 19.5594 45.9445C19.0635 46.1167 18.5351 46.172 18.0115 46.1648C15.3567 46.1632 12.7028 46.1664 10.0481 46.1632C10.0481 47.5016 10.044 48.8399 10.0506 50.1783C9.36852 50.1831 8.68646 50.1791 8.0044 50.1799C8.00032 45.4928 8.0044 40.8057 8.00195 36.1187Z" fill="white"/>
<path d="M23.9941 36.1182C27.4722 36.1198 30.9503 36.1158 34.4284 36.1198C36.4329 36.191 38.2185 37.8906 38.3296 39.8585C38.3402 40.6883 38.3353 41.5181 38.3329 42.3478C38.2683 43.9786 37.0627 45.4595 35.4919 45.9593C36.428 46.8844 37.3731 47.8014 38.31 48.7265C38.3688 49.2039 38.3206 49.6964 38.3329 50.1802C37.8509 50.1802 37.3698 50.1802 36.8887 50.1794C35.5246 48.841 34.1588 47.5035 32.7947 46.1643C30.5435 46.1619 28.2915 46.1675 26.0403 46.1619C26.0338 47.5003 26.033 48.8394 26.0403 50.1786C25.3591 50.1826 24.677 50.1762 23.9958 50.1826C23.9925 45.4939 23.9958 40.806 23.9941 36.1182ZM26.037 38.1125C26.0387 40.1261 26.0305 42.1396 26.0411 44.1532C28.8069 44.1476 31.5727 44.1564 34.3386 44.1492C35.3506 44.1307 36.245 43.2625 36.2924 42.2742C36.3063 41.5485 36.2965 40.8221 36.2973 40.0964C36.2941 39.3195 35.7803 38.5818 35.0525 38.2823C34.7037 38.1197 34.3108 38.1045 33.9326 38.1133C31.3007 38.1141 28.6689 38.1141 26.037 38.1125Z" fill="white"/>
<path d="M43.7551 36.1264C45.8985 36.1063 48.0427 36.1256 50.1861 36.1175C51.4162 36.0911 52.6194 36.687 53.3905 37.6153C53.9836 38.3057 54.3242 39.1987 54.3364 40.1022C54.3364 42.1334 54.3364 44.1646 54.3356 46.1965C54.3242 47.1408 53.968 48.0787 53.3301 48.7884C52.5778 49.6534 51.4334 50.1772 50.2727 50.178C48.1759 50.1804 46.079 50.1844 43.9822 50.1764C42.4016 50.1668 40.8954 49.1552 40.304 47.7199C40.1039 47.2361 39.9854 46.7155 39.9928 46.1917C39.992 44.1638 39.992 42.1366 39.9928 40.1094C39.9879 39.1211 40.3841 38.1359 41.0751 37.4159C41.758 36.6734 42.739 36.204 43.7551 36.1264ZM43.9961 38.1191C42.971 38.1415 42.0692 39.0217 42.0333 40.0253C42.0267 42.0837 42.03 44.1429 42.0316 46.2013C42.03 47.2257 42.9383 48.1444 43.983 48.1732C46.0799 48.1812 48.1759 48.1756 50.2727 48.1764C51.3411 48.1788 52.2968 47.2466 52.2886 46.1965C52.2919 44.1477 52.2968 42.0989 52.287 40.0509C52.2715 39.0169 51.3264 38.1175 50.2759 38.1167C48.1824 38.1135 46.0888 38.1087 43.9961 38.1191Z" fill="white"/>
<path d="M59.8101 36.2561C60.9373 35.9926 62.1062 36.152 63.2416 36.2737C63.2408 36.8704 63.2441 37.4671 63.24 38.0638C63.0284 38.0646 62.8177 38.0638 62.6069 38.0614C62.5163 37.7154 62.4141 37.3718 62.3194 37.0274C61.4388 37.0787 60.4799 36.8664 59.6704 37.3037C59.0602 37.6065 58.8707 38.5444 59.4213 38.9873C59.9775 39.3982 60.6767 39.5375 61.3171 39.7754C62.0384 40.0317 62.8217 40.3441 63.2367 41.0185C63.6157 41.6953 63.5357 42.5827 63.0815 43.2074C62.62 43.8402 61.8293 44.1485 61.0656 44.2487C59.9718 44.372 58.7833 44.2767 57.8301 43.6936C57.9281 43.4069 58.0016 43.1121 58.1143 42.831C58.825 43.2475 59.6663 43.4029 60.4872 43.382C60.9863 43.3588 61.5181 43.2731 61.9151 42.9535C62.3578 42.5979 62.473 41.9011 62.1421 41.4382C61.8505 41.0409 61.3531 40.8767 60.9022 40.7205C60.0772 40.4394 59.1689 40.2384 58.517 39.6304C57.8905 39.0666 57.8121 38.0854 58.1813 37.3638C58.4974 36.7583 59.155 36.4059 59.8101 36.2561Z" fill="white"/>
<path d="M90.4053 37.0874C91.2507 36.381 92.3886 36.0879 93.4848 36.1175C94.233 36.1335 94.9804 36.2016 95.7237 36.2849C95.7237 36.8776 95.7221 37.4711 95.7253 38.0638C95.5146 38.0638 95.3047 38.0638 95.0956 38.0646C94.9992 37.7186 94.8995 37.3742 94.8023 37.029C93.8964 37.0602 92.9514 36.9088 92.0855 37.246C91.285 37.536 90.6463 38.1983 90.3751 38.9897C90.1014 39.7842 90.1137 40.6732 90.4069 41.4606C90.6863 42.2054 91.2777 42.8366 92.0308 43.1377C92.6949 43.4245 93.4456 43.4092 94.1472 43.2891C94.603 43.1986 95.0621 43.0656 95.446 42.7997C95.5366 43.0889 95.6232 43.3804 95.7286 43.6655C95.1985 44.0412 94.5352 44.1765 93.8973 44.2542C92.5895 44.404 91.1739 44.0668 90.2158 43.1473C88.5307 41.5671 88.6222 38.562 90.4053 37.0874Z" fill="white"/>
<path d="M64.9395 36.2496C66.6238 36.256 68.3073 36.248 69.9916 36.2536C69.994 36.5604 69.9932 36.868 69.9932 37.1755C68.6814 37.1747 67.3695 37.1779 66.0569 37.1739C66.0602 37.9596 66.0577 38.7446 66.0577 39.5303C67.1882 39.5351 68.3195 39.5447 69.45 39.5255C69.499 39.8298 69.4631 40.1398 69.4745 40.4473C68.335 40.4481 67.1964 40.4441 66.0577 40.4497C66.0659 41.3804 66.043 42.3127 66.07 43.2434C67.4153 43.2362 68.7614 43.2402 70.1068 43.241C70.1092 43.547 70.1084 43.8537 70.1051 44.1605C68.384 44.1549 66.663 44.1557 64.9427 44.1597C64.937 41.523 64.9419 38.8863 64.9395 36.2496Z" fill="white"/>
<path d="M71.6859 36.248C72.5534 36.2601 73.4208 36.2432 74.2891 36.2577C75.0945 36.2945 75.9661 36.4923 76.5322 37.0962C77.1424 37.745 77.22 38.7293 76.9823 39.5471C76.7731 40.2976 76.1442 40.8775 75.4131 41.1466C76.0225 42.1501 76.6376 43.1497 77.2363 44.1597C76.8336 44.1541 76.4309 44.1565 76.029 44.1573C75.4466 43.2274 74.8814 42.2879 74.2949 41.3604C73.7941 41.3893 73.291 41.3724 72.7903 41.3748C72.7919 42.3023 72.7886 43.229 72.7911 44.1565C72.4227 44.1573 72.0535 44.1541 71.6851 44.1605C71.6638 41.5238 71.6777 38.8855 71.6859 36.248ZM72.7919 37.1763C72.7894 38.2712 72.7886 39.3653 72.7927 40.4602C73.2616 40.4498 73.7312 40.4714 74.2001 40.4482C74.7278 40.4177 75.2759 40.2343 75.6247 39.8282C76.0282 39.3276 76.1042 38.5996 75.8501 38.0181C75.6353 37.5408 75.1101 37.2909 74.6077 37.2196C74.0065 37.1371 73.3963 37.1899 72.7919 37.1763Z" fill="white"/>
<path d="M77.4961 36.2538C77.8792 36.2755 78.2835 36.2074 78.6544 36.2819C79.4295 38.1753 80.1917 40.0759 80.9652 41.9709C81.1269 42.3994 81.3401 42.8135 81.4185 43.2692C81.6268 42.4811 82.0009 41.7491 82.286 40.9866C82.9289 39.4087 83.5603 37.8253 84.2121 36.2506C84.5944 36.253 84.9775 36.253 85.3606 36.2546C84.257 38.8889 83.1461 41.5208 82.0434 44.1559C81.6309 44.1567 81.2184 44.1583 80.8059 44.1559C79.7105 41.5184 78.5858 38.8929 77.4961 36.2538Z" fill="white"/>
<path d="M86.4315 36.2537C86.8015 36.2529 87.1724 36.2521 87.544 36.2505C87.5538 38.8864 87.5448 41.5223 87.5489 44.1573C87.174 44.1517 86.7991 44.1685 86.4258 44.1461C86.438 41.5158 86.4266 38.8848 86.4315 36.2537Z" fill="white"/>
<path d="M97.1934 44.1565C97.1999 41.5214 97.1868 38.8863 97.1999 36.2512C98.8826 36.2528 100.565 36.252 102.247 36.252C102.245 36.5588 102.245 36.8655 102.247 37.1731C100.937 37.1771 99.6267 37.1771 98.3165 37.1731C98.3043 37.9604 98.3157 38.7469 98.3116 39.5343C99.447 39.5351 100.583 39.5375 101.719 39.5327C101.724 39.8378 101.721 40.143 101.721 40.4489C100.584 40.4457 99.447 40.4457 98.31 40.4489C98.3181 41.3796 98.3026 42.3103 98.3173 43.241C99.6659 43.2394 101.015 43.2378 102.363 43.2418C102.362 43.547 102.362 43.8529 102.363 44.1589C100.64 44.1549 98.9169 44.1581 97.1934 44.1565Z" fill="white"/>
<path d="M58.1208 46.613C58.3111 46.609 58.5022 46.609 58.6934 46.6162C59.1271 47.3026 59.5355 48.005 59.9709 48.6906C60.394 47.997 60.8131 47.3002 61.2501 46.6154C61.4396 46.6098 61.6307 46.609 61.8219 46.6114C61.8211 47.7463 61.8178 48.882 61.8243 50.0178C61.6626 50.0194 61.5017 50.0202 61.3416 50.021C61.3399 49.0767 61.3285 48.1324 61.3669 47.1897C61.0001 47.8512 60.5933 48.4896 60.2094 49.1415C60.0485 49.1407 59.8884 49.1407 59.7291 49.1415C59.3419 48.4848 58.9286 47.8424 58.57 47.1704C58.6248 48.1187 58.5872 49.0695 58.597 50.0186C58.4369 50.0194 58.2776 50.0202 58.1191 50.021C58.1224 48.8852 58.1183 47.7487 58.1208 46.613Z" fill="white"/>
<path d="M68.4238 46.6115C68.6027 46.6107 68.7816 46.6115 68.9621 46.6115C69.5927 47.5445 70.2511 48.4624 70.8351 49.4251C70.8057 48.488 70.8221 47.5501 70.8155 46.6131C70.9658 46.6106 71.1178 46.6099 71.2705 46.6107C71.2648 47.7472 71.2697 48.8845 71.2681 50.021C71.0826 50.0218 70.8988 50.0202 70.7159 50.0146C70.1122 49.0663 69.431 48.1653 68.8568 47.2001C68.869 48.1396 68.8739 49.0783 68.8715 50.0178C68.722 50.0186 68.5733 50.0194 68.4255 50.021C68.4238 48.8845 68.4255 47.748 68.4238 46.6115Z" fill="white"/>
<path d="M82.2188 46.6129C82.9449 46.6073 83.6711 46.6113 84.3981 46.6105C84.3973 46.7467 84.3923 46.882 84.3858 47.019C83.8238 47.0022 83.261 47.011 82.699 47.0126C82.6884 47.3498 82.6941 47.6878 82.6901 48.0258C83.1842 48.0338 83.6784 48.0266 84.1726 48.0306C84.1694 48.1595 84.1669 48.2893 84.1636 48.419C83.6809 48.4126 83.1981 48.4254 82.7162 48.4126C82.6631 48.8139 82.7007 49.2184 82.6884 49.622C83.2741 49.6404 83.8614 49.626 84.4479 49.6292C84.4479 49.7582 84.4487 49.8871 84.4512 50.0177C83.7078 50.0233 82.9645 50.0209 82.222 50.0193C82.2171 48.8836 82.2228 47.7486 82.2188 46.6129Z" fill="white"/>
<path d="M95.9126 46.6097C96.0948 46.6097 96.2785 46.6105 96.4623 46.6162C97.0856 47.5564 97.7587 48.4671 98.3329 49.4378C98.3108 48.4959 98.3141 47.5532 98.3133 46.6113C98.4611 46.6105 98.6098 46.6097 98.7601 46.6097C98.7585 47.7463 98.7617 48.882 98.7585 50.0177C98.5779 50.0201 98.3974 50.0201 98.2194 50.0201C97.5937 49.0766 96.9394 48.1515 96.3333 47.196C96.3978 48.1347 96.3496 49.0774 96.3643 50.0185C96.2124 50.0193 96.0605 50.0193 95.9102 50.0209C95.9183 48.8836 95.9142 47.7471 95.9126 46.6097Z" fill="white"/>
<path d="M74.2678 46.6178C74.4491 46.6098 74.6313 46.6098 74.8135 46.6162C75.2799 47.7535 75.7683 48.8828 76.238 50.0194C76.0738 50.0202 75.9097 50.0202 75.7463 50.021C75.6107 49.699 75.48 49.3762 75.3509 49.0526C74.8094 49.055 74.2686 49.055 73.7287 49.051C73.6045 49.3746 73.4706 49.6942 73.3448 50.0178C73.1773 50.0186 73.0115 50.0194 72.8457 50.0186C73.3187 48.8844 73.8063 47.7567 74.2678 46.6178ZM74.5382 46.9974C74.3626 47.5757 74.0946 48.122 73.8823 48.6882C74.3201 48.6938 74.7587 48.6906 75.1982 48.6914C74.9874 48.1228 74.7285 47.5725 74.5382 46.9974Z" fill="white"/>
<path d="M77.7904 47.2378C78.1106 46.8045 78.6571 46.5739 79.1938 46.5562C79.5768 46.545 79.9608 46.5787 80.3414 46.6283C80.3422 46.8814 80.3422 47.1337 80.343 47.3876C80.2752 47.3884 80.1388 47.3908 80.071 47.3916C80.0294 47.2418 79.9877 47.0929 79.9493 46.9439C79.4747 46.9495 78.9536 46.875 78.537 47.1513C77.7145 47.6591 77.752 49.0271 78.5852 49.5077C79.0189 49.768 79.5605 49.7127 80.0212 49.559C80.0204 49.3075 80.0212 49.0568 80.0204 48.8061C79.7664 48.8101 79.5131 48.8101 79.2599 48.8029C79.2583 48.6859 79.2566 48.5698 79.255 48.4537C79.6577 48.4008 80.0653 48.444 80.4713 48.4272C80.4884 48.8549 80.4697 49.2834 80.4835 49.7111C79.8709 50.154 78.9961 50.1965 78.3271 49.8513C77.3902 49.3731 77.1721 48.042 77.7904 47.2378Z" fill="white"/>
<path d="M86.2368 46.6124C86.4288 46.6084 86.6216 46.6092 86.8151 46.6164C87.2456 47.3052 87.6598 48.0036 88.0894 48.6924C88.5093 47.9996 88.9389 47.3124 89.358 46.6188C89.5515 46.61 89.746 46.6084 89.9412 46.6124C89.9387 47.7481 89.9436 48.8838 89.9379 50.0188C89.7803 50.0204 89.6226 50.0204 89.4674 50.0204C89.4641 49.0761 89.4592 48.131 89.4838 47.1867C89.1252 47.853 88.7102 48.489 88.3296 49.1433C88.167 49.1417 88.0061 49.1401 87.8452 49.1409C87.4784 48.4866 87.0455 47.8682 86.7171 47.1947C86.7032 48.1366 86.7188 49.0785 86.7163 50.0204C86.5546 50.0196 86.3945 50.0196 86.2344 50.0196C86.2409 48.8838 86.236 47.7481 86.2368 46.6124Z" fill="white"/>
<path d="M91.8998 46.6122C92.6268 46.609 93.3529 46.6106 94.0799 46.6106C94.0799 46.7436 94.0791 46.8773 94.0799 47.0111C93.513 47.0111 92.9461 47.0055 92.3801 47.0143C92.3825 47.3523 92.3784 47.6911 92.3801 48.0291C92.8702 48.0291 93.3611 48.0323 93.852 48.0267C93.8545 48.1564 93.8569 48.287 93.8586 48.4183C93.3668 48.4175 92.8751 48.4191 92.3841 48.4167C92.376 48.8196 92.3817 49.2233 92.3809 49.627C92.9649 49.6342 93.549 49.6278 94.1338 49.631C94.1314 49.7591 94.1322 49.8889 94.1322 50.0186C93.3872 50.0218 92.6415 50.0218 91.8965 50.0186C91.903 48.8829 91.8973 47.748 91.8998 46.6122Z" fill="white"/>
<path d="M100.361 46.61C101.241 46.6124 102.121 46.6068 103.001 46.6132C102.998 46.7469 102.997 46.8807 102.997 47.0153C102.634 47.0137 102.271 47.0145 101.909 47.0153C101.91 48.0164 101.912 49.0184 101.909 50.0204C101.748 50.0196 101.589 50.0204 101.431 50.0212C101.431 49.02 101.428 48.0188 101.432 47.0177C101.08 47.0153 100.728 47.0064 100.378 47.0249C100.321 46.8919 100.349 46.7477 100.361 46.61Z" fill="white"/>
<path d="M64.8163 46.622C65.0058 46.606 65.1969 46.606 65.3873 46.626C65.8308 47.7674 66.3283 48.8895 66.8012 50.0196C66.6313 50.0196 66.463 50.0196 66.2948 50.018C66.1722 49.6944 66.0334 49.3773 65.9092 49.0553C65.3693 49.0513 64.8294 49.0569 64.2902 49.0529C64.1538 49.3716 64.0313 49.6968 63.8998 50.0188C63.7332 50.0196 63.5673 50.0196 63.4023 50.0196C63.8712 48.8863 64.3687 47.7634 64.8163 46.622ZM65.081 46.9873C64.9421 47.5783 64.6407 48.119 64.4381 48.6908C64.8784 48.6924 65.3178 48.69 65.7589 48.6916C65.5367 48.1222 65.2901 47.5615 65.081 46.9873Z" fill="white"/>
</svg>
