<svg width="112" height="88" viewBox="0 0 112 88" fill="none" xmlns="http://www.w3.org/2000/svg">
<path d="M2.94576 48.8841V38.6705H5.45006L7.12923 37.2999L5.45006 35.9292H0.954071C0.700941 35.9295 0.458273 36.0232 0.27938 36.1899C0.100486 36.3565 4.09963e-07 36.5824 5.57565e-07 36.818V50.7357C-0.000134985 50.8523 0.0244434 50.9679 0.0723292 51.0757C0.120215 51.1836 0.19047 51.2815 0.279077 51.3641C0.367685 51.4466 0.472906 51.5121 0.588726 51.5568C0.704546 51.6015 0.828694 51.6245 0.954071 51.6245H7.43866V48.8841H2.94576Z" fill="#D12E56"/>
<path d="M13.9204 38.6705V48.8842H11.4161L9.74107 50.2548L11.4202 51.6255H15.9162C16.0416 51.6255 16.1658 51.6025 16.2816 51.5578C16.3974 51.5131 16.5026 51.4476 16.5912 51.3651C16.6798 51.2825 16.7501 51.1845 16.798 51.0767C16.8459 50.9689 16.8704 50.8533 16.8703 50.7366V36.819C16.8703 36.5834 16.7698 36.3575 16.5909 36.1908C16.412 36.0242 16.1694 35.9304 15.9162 35.9302H9.43164V38.6715L13.9204 38.6705Z" fill="#D12E56"/>
<path d="M27.7994 45.0565L25.5522 44.4958C24.7234 44.2698 24.1509 43.9611 23.8347 43.5698C23.5185 43.1785 23.36 42.6375 23.3594 41.9466C23.3594 41.0736 23.6487 40.4559 24.2274 40.0936C24.806 39.7313 25.7955 39.5504 27.1958 39.551C28.8158 39.5745 30.2045 39.6825 31.3618 39.8748L31.1791 41.4899C29.644 41.4676 28.487 41.4561 27.7081 41.4555C27.2814 41.4555 26.9859 41.4555 26.8216 41.4637C26.6558 41.4699 26.4909 41.4895 26.3288 41.5224C26.1636 41.5568 26.0635 41.6129 26.0275 41.6852C25.9846 41.7908 25.9657 41.9035 25.9721 42.0162C25.9718 42.0673 25.9747 42.1183 25.9808 42.169C25.9872 42.2143 26.0031 42.2579 26.0275 42.2974C26.0508 42.3363 26.0732 42.3671 26.0907 42.3879C26.1181 42.4182 26.151 42.4439 26.1879 42.4638C26.2252 42.4873 26.2649 42.5073 26.3065 42.5235C26.3366 42.5353 26.391 42.5552 26.4707 42.5823C26.5504 42.6094 26.6107 42.6311 26.6535 42.6429L26.8906 42.7026C27.0063 42.7306 27.0947 42.7496 27.156 42.7614L29.4577 43.3392C30.2618 43.5544 30.8343 43.8405 31.1752 44.1974C31.516 44.5543 31.6865 45.0842 31.6865 45.7872C31.6865 46.785 31.3761 47.462 30.7553 47.8183C30.1345 48.1746 29.0685 48.3527 27.5574 48.3527C26.2056 48.3607 24.8555 48.2645 23.5207 48.0652L23.685 46.432C24.123 46.4567 25.1644 46.4682 26.809 46.4663C27.7466 46.4663 28.3587 46.4296 28.6451 46.356C28.7723 46.3337 28.8862 46.2687 28.9652 46.1733C29.0443 46.0779 29.0829 45.9589 29.0737 45.8387C29.0741 45.7874 29.0711 45.7361 29.065 45.685C29.059 45.6401 29.0434 45.5968 29.0193 45.5575C28.9988 45.5249 28.9743 45.4945 28.9464 45.4671C28.9103 45.4373 28.8705 45.4118 28.8278 45.3911C28.7724 45.3631 28.7306 45.3405 28.6995 45.3224C28.6437 45.2961 28.5859 45.2738 28.5265 45.2555C28.441 45.2265 28.3739 45.2075 28.3253 45.1958L28.0697 45.1361C27.9777 45.1154 27.8874 45.0888 27.7994 45.0565Z" fill="white"/>
<path d="M32.818 41.6573L32.5624 39.9572C34.1115 39.6916 35.6829 39.5551 37.2581 39.5493C38.475 39.5493 39.3702 39.779 39.9437 40.2384C40.5172 40.6978 40.8033 41.4936 40.802 42.6258V48.1684H38.6636L38.3895 46.8933C37.4888 47.879 36.3804 48.3718 35.0643 48.3718C34.1992 48.3718 33.4929 48.1608 32.9454 47.7388C32.3978 47.3168 32.1237 46.7248 32.123 45.9627V45.1127C32.123 44.4435 32.366 43.9235 32.854 43.5482C33.3419 43.1729 34.0204 42.9875 34.8816 42.9875H38.0969V42.6141C38.0853 42.1836 37.9787 41.8948 37.7771 41.7477C37.5769 41.6003 37.1939 41.5252 36.6175 41.5252C35.619 41.5222 34.3525 41.5662 32.818 41.6573ZM34.7912 45.2954V45.6173C34.7912 46.1961 35.1443 46.4851 35.8506 46.4845C36.5816 46.4845 37.3307 46.2132 38.0979 45.6706V44.495H35.6679C35.0834 44.5077 34.7912 44.7745 34.7912 45.2954Z" fill="white"/>
<path d="M47.7487 37.7686H46.0486C45.5983 37.7686 45.2847 37.8479 45.1078 38.0064C44.9309 38.165 44.8427 38.4483 44.8434 38.8565V39.7915H46.939V41.4736H44.8434V48.1682H42.1218V41.47H41.2305V39.8729L42.1218 39.7879V38.5128C42.1218 36.7898 43.108 35.9286 45.0805 35.9292C46.3597 35.9292 47.3343 35.9859 48.0043 36.0992L47.7487 37.7686Z" fill="white"/>
<path d="M53.2095 44.8224H49.9533C50.0389 45.4337 50.2368 45.8443 50.5472 46.0541C50.8576 46.2639 51.3721 46.3688 52.0907 46.3688C53.2142 46.3592 54.3364 46.2958 55.4529 46.1789L55.7085 47.7424C54.7702 48.1644 53.4609 48.3755 51.7807 48.3755C50.0875 48.3755 48.8815 48.0357 48.1629 47.3563C47.4443 46.6768 47.0853 45.5534 47.0859 43.9859C47.0859 42.3431 47.4362 41.1931 48.1367 40.5359C48.8371 39.8788 50.0155 39.5499 51.6718 39.5493C53.1706 39.5493 54.2547 39.7905 54.9241 40.2728C55.5935 40.7551 55.934 41.4879 55.9457 42.4712C55.9457 43.2543 55.7299 43.8394 55.2973 44.231C54.8648 44.6225 54.1679 44.8224 53.2095 44.8224ZM49.9047 43.3095H52.462C52.7915 43.3095 53.0132 43.2362 53.1288 43.0879C53.2445 42.9396 53.3028 42.7262 53.3028 42.4431C53.3028 42.0452 53.193 41.77 52.9733 41.6175C52.7536 41.465 52.3499 41.3878 51.7622 41.386C51.0669 41.386 50.5919 41.5132 50.3373 41.7676C50.0826 42.022 49.9365 42.5351 49.8989 43.3068L49.9047 43.3095Z" fill="white"/>
<path d="M58.7553 39.7881L58.9556 41.0288C60.2587 40.0419 61.544 39.5487 62.8115 39.5493C63.6273 39.5493 64.2513 39.7477 64.6835 40.1444C65.1157 40.5411 65.3322 41.1189 65.3328 41.8779V48.1684H62.6462V42.6602C62.6462 42.2858 62.5821 42.0271 62.4518 41.8879C62.3216 41.7486 62.0961 41.6745 61.7714 41.6745C61.1986 41.6745 60.3643 41.9298 59.2685 42.4404V48.1684H56.5625V39.7881H58.7553Z" fill="white"/>
<path d="M72.105 44.8223H68.8566C68.9422 45.4336 69.1401 45.8442 69.4505 46.054C69.7615 46.2638 70.2748 46.3687 70.994 46.3687C72.1162 46.359 73.2371 46.2956 74.3523 46.1788L74.6079 47.7424C73.6696 48.1644 72.3603 48.3754 70.6801 48.3754C68.9869 48.3754 67.7809 48.0357 67.0623 47.3562C66.3437 46.6768 65.9844 45.5545 65.9844 43.9894C65.9844 42.3466 66.3346 41.1966 67.0351 40.5395C67.7356 39.8823 68.914 39.5535 70.5702 39.5529C72.0678 39.5529 73.1515 39.794 73.8216 40.2763C74.4916 40.7586 74.8328 41.4902 74.8451 42.4711C74.8451 43.2542 74.6283 43.8393 74.1968 44.2309C73.7652 44.6225 73.0673 44.8223 72.105 44.8223ZM68.8002 43.3094H71.3576C71.6861 43.3094 71.9087 43.2361 72.0244 43.0878C72.14 42.9395 72.1974 42.7261 72.1974 42.4431C72.1974 42.0452 72.0879 41.7699 71.8688 41.6174C71.6498 41.4649 71.2474 41.3877 70.6616 41.3859C69.9663 41.3859 69.4913 41.5131 69.2367 41.7675C68.9801 42.0189 68.8352 42.5362 68.7983 43.3067L68.8002 43.3094Z" fill="white"/>
<path d="M78.8708 41.4698V45.4308C78.8708 45.7482 78.9447 45.9733 79.0895 46.0936C79.2343 46.2139 79.4929 46.2799 79.8574 46.2799H81.0092L81.3008 48.0316C80.6068 48.2577 79.7602 48.371 78.7609 48.3716C77.9458 48.3716 77.3124 48.1606 76.8607 47.7386C76.409 47.3166 76.1822 46.7245 76.1803 45.9625V41.4698H75.2715V39.8728L76.1803 39.7878V37.442H78.8708V39.7878H81.3737V41.4698H78.8708Z" fill="white"/>
<path d="M84.6118 39.788L84.8062 41.0115C85.0978 40.5087 85.4749 39.9453 86.1738 39.7627C86.9514 39.5583 87.7056 39.5673 88.388 39.5673C90.4616 39.5673 91.4983 41.0628 91.4983 44.0536C91.4983 45.6633 91.2213 46.788 90.6673 47.4276C90.1132 48.0673 89.2453 48.3874 88.0633 48.388C86.8451 48.388 85.8407 48.1167 85.0501 47.5741C85.1107 48.1732 85.1289 48.7752 85.1046 49.3765V51.3994H82.418V39.788H84.6118ZM85.1046 42.3382V46.1788C86.0539 46.4055 86.7343 46.5188 87.1458 46.5188C87.7426 46.5188 88.1537 46.3603 88.3792 46.0431C88.6047 45.726 88.7175 45.0629 88.7175 44.0536C88.7175 43.0679 88.6138 42.4024 88.4064 42.0569C88.2004 41.7124 87.8339 41.5387 87.31 41.5387C86.7181 41.5387 86.0629 41.3154 85.1046 42.3382Z" fill="white"/>
<path d="M92.8669 41.6573L92.6102 39.9572C94.1597 39.6916 95.7315 39.5551 97.3069 39.5493C98.5239 39.5493 99.4188 39.779 99.9916 40.2384C100.564 40.6978 100.851 41.4936 100.851 42.6258V48.1684H98.7124L98.4383 46.8933C97.5376 47.879 96.4292 48.3718 95.1131 48.3718C94.2481 48.3718 93.5417 48.1608 92.9942 47.7388C92.4466 47.3168 92.1725 46.7248 92.1719 45.9627V45.1127C92.1719 44.4435 92.4158 43.9235 92.9028 43.5482C93.3898 43.1729 94.0692 42.9875 94.9314 42.9875H98.1467V42.6141C98.1344 42.1836 98.0278 41.8948 97.8269 41.7477C97.6257 41.6003 97.2437 41.5252 96.6674 41.5252C95.6701 41.5222 94.4033 41.5662 92.8669 41.6573ZM94.84 45.2954V45.6173C94.84 46.1961 95.1932 46.4851 95.8995 46.4845C96.6304 46.4845 97.3795 46.2132 98.1467 45.6706V44.495H95.7167C95.1335 44.5077 94.8423 44.7745 94.8429 45.2954H94.84Z" fill="white"/>
<path d="M111.002 39.7878L107.804 48.2884C107.641 48.7267 107.43 49.1482 107.174 49.5463C106.906 49.9532 106.583 50.3272 106.215 50.6595C105.804 51.0281 105.304 51.2992 104.757 51.4499C104.133 51.6234 103.475 51.6696 102.83 51.5856L102.612 50.107C103.341 49.9261 103.914 49.691 104.329 49.4016C104.757 49.0987 105.092 48.6972 105.301 48.2369L105.338 48.17H104.824C104.373 48.17 104.081 47.9656 103.949 47.5577L101.008 39.7896H103.895L105.575 45.211C105.685 45.6089 105.776 46.0249 105.849 46.4689H106.087C106.123 46.3333 106.184 46.1223 106.27 45.8359C106.355 45.5465 106.416 45.3404 106.452 45.2147L108.115 39.7933L111.002 39.7878Z" fill="white"/>
</svg>
