<svg width="111" height="88" viewBox="0 0 111 88" fill="none" xmlns="http://www.w3.org/2000/svg">
<path d="M55.5 76C37.8572 76 23.5 61.6428 23.5 44C23.5 26.3572 37.8572 12 55.5 12C73.1428 12 87.5 26.3572 87.5 44C87.5 61.6428 73.1428 76 55.5 76ZM55.5 13.4402C38.6224 13.4402 24.9402 27.1224 24.9402 44C24.9402 60.8776 38.6224 74.5598 55.5 74.5598C72.3326 74.5598 86.0598 60.8776 86.0598 44C86.0598 27.1224 72.3326 13.4402 55.5 13.4402Z" fill="white"/>
<path d="M55.4982 67.7637C42.4011 67.7637 31.6895 57.097 31.6895 43.955C31.6895 30.8129 42.3561 20.1462 55.4982 20.1462C68.5952 20.1462 79.3069 30.8129 79.3069 43.955C79.3069 57.097 68.5952 67.7637 55.4982 67.7637ZM55.4982 21.6315C43.1662 21.6315 33.1297 31.668 33.1297 44C33.1297 56.3319 43.1662 66.3685 55.4982 66.3685C67.8301 66.3685 77.8667 56.3319 77.8667 44C77.8667 31.668 67.8301 21.6315 55.4982 21.6315Z" fill="white"/>
<path fill-rule="evenodd" clip-rule="evenodd" d="M61.9955 17.5109C62.059 17.2705 62.3053 17.1272 62.5456 17.1907C71.3753 19.5239 78.5112 26.1106 81.5768 34.5753C81.6614 34.809 81.5406 35.067 81.3068 35.1517C81.0731 35.2363 80.8151 35.1155 80.7304 34.8818C77.765 26.6938 70.8588 20.3185 62.3157 18.061C62.0753 17.9975 61.932 17.7512 61.9955 17.5109Z" fill="white"/>
<path d="M29.8454 35.1787C29.8004 35.1787 29.7554 35.1787 29.7103 35.1337C29.4853 35.0437 29.3503 34.7736 29.4403 34.5486C32.5008 25.9972 39.6119 19.5162 48.4333 17.1759C48.6583 17.1309 48.9283 17.2659 48.9734 17.4909C49.0184 17.7159 48.8833 17.986 48.6583 18.031C40.152 20.2813 33.2659 26.5823 30.2504 34.8636C30.2054 35.0887 30.0254 35.1787 29.8454 35.1787Z" fill="white"/>
<path d="M30.1615 39.7694L29.6214 39.5894L29.8015 38.8693L27.3711 38.3292L27.5061 37.6091L29.9365 38.1492L30.1165 37.384L30.6566 37.5191L30.1615 39.7694Z" fill="white"/>
<path d="M29.5305 42.1098C29.2154 42.3348 28.8104 42.3798 28.3153 42.3348C28.0003 42.2898 27.6852 42.1998 27.4602 42.0648C27.2351 41.9297 27.0551 41.7497 26.9651 41.5247C26.8751 41.2996 26.8301 41.0296 26.8751 40.7596C26.9201 40.4895 27.0101 40.2195 27.1451 40.0394C27.2801 39.8594 27.5052 39.7244 27.7302 39.6344C28.0003 39.5444 28.2703 39.5444 28.6304 39.5894C28.9454 39.6344 29.2154 39.7244 29.4855 39.8594C29.7105 39.9944 29.8905 40.1745 29.9806 40.3995C30.0706 40.6245 30.1156 40.8496 30.0706 41.1646C30.0256 41.5697 29.8455 41.8847 29.5305 42.1098ZM29.3505 40.5795C29.2154 40.4445 28.9454 40.3995 28.5403 40.3545C28.1803 40.3095 27.8652 40.3545 27.6852 40.3995C27.5052 40.4895 27.4152 40.6245 27.3702 40.8496C27.3251 41.0746 27.4152 41.2096 27.5502 41.3447C27.6852 41.4797 27.9552 41.5247 28.3603 41.5697C28.7204 41.6147 29.0354 41.5697 29.2154 41.5247C29.3955 41.4347 29.4855 41.2996 29.5305 41.0746C29.5755 40.8496 29.4855 40.6695 29.3505 40.5795Z" fill="white"/>
<path d="M29.799 44.45C29.754 44.6301 29.619 44.7651 29.484 44.9001L29.0789 44.54C29.2589 44.315 29.3489 44.09 29.3489 43.8649C29.3489 43.7299 29.3039 43.6399 29.2589 43.5499C29.2139 43.4599 29.1239 43.4599 29.0339 43.4599C28.9439 43.4599 28.8989 43.4599 28.8539 43.5049C28.8089 43.5499 28.7639 43.5949 28.7188 43.6849C28.6738 43.7749 28.6288 43.9099 28.5838 44.045C28.4938 44.36 28.3588 44.585 28.2238 44.7201C28.0887 44.8551 27.8637 44.9451 27.5937 44.9451C27.4136 44.9451 27.2336 44.9001 27.0986 44.8101C26.9636 44.7201 26.8286 44.585 26.7385 44.405C26.6485 44.225 26.6035 44 26.6035 43.7749C26.6035 43.5049 26.6485 43.3248 26.7385 43.0998C26.8286 42.9198 26.9186 42.7398 27.0536 42.6047L27.5487 42.9648C27.4586 43.0998 27.3686 43.1898 27.3236 43.3248C27.2786 43.4599 27.2336 43.5949 27.2336 43.7299C27.2336 43.8649 27.2786 44 27.3236 44.09C27.3686 44.18 27.5037 44.225 27.5937 44.225C27.6837 44.225 27.7287 44.225 27.7737 44.18C27.8187 44.135 27.8637 44.09 27.9087 44C27.9537 43.9099 27.9987 43.8199 28.0437 43.6399C28.1338 43.2798 28.2688 43.0548 28.4488 42.9198C28.5838 42.7848 28.8089 42.6947 29.0339 42.6947C29.2139 42.6947 29.3489 42.7398 29.484 42.8298C29.619 42.9198 29.709 43.0548 29.799 43.2348C29.889 43.4149 29.889 43.5949 29.889 43.8199C29.889 44.09 29.889 44.27 29.799 44.45Z" fill="white"/>
<path d="M26.9652 47.2855L28.2704 47.1505L28.1804 46.2504L26.8752 46.3854L26.7852 45.6653L29.8456 45.3502L29.9356 46.0703L28.7205 46.2054L28.8105 47.1055L29.9807 46.9705L30.0707 47.6906L27.0552 48.0056L26.9652 47.2855Z" fill="white"/>
<path d="M30.3399 48.9507L27.3245 49.5808L27.1895 48.8607L30.2049 48.2306L30.3399 48.9507ZM30.7 50.661L29.1698 49.9859L27.7295 51.3811L27.5495 50.571L28.9447 49.2658L30.565 49.8958L30.7 50.661Z" fill="white"/>
<path d="M31.3327 52.6863L30.8377 52.7763L30.5226 51.7411L29.8025 51.9662L30.0725 52.8663L29.5775 53.0013L29.3074 52.1012L28.5423 52.3262L28.9023 53.4064L28.4523 53.6314L27.8672 51.8311L30.7926 50.886L31.3327 52.6863Z" fill="white"/>
<path d="M29.6209 56.4668L29.2609 55.6117L31.1062 53.8564C30.9261 53.9914 30.7461 54.0815 30.5661 54.1715C30.4311 54.2615 30.206 54.3515 29.981 54.4415L28.9458 54.8916L28.6758 54.3065L31.4662 53.0913L31.8263 53.9014L29.981 55.6567C30.341 55.4317 30.6561 55.2516 30.9711 55.1166L32.0963 54.6215L32.3664 55.2066L29.6209 56.4668Z" fill="white"/>
<path d="M33.6726 57.547L33.1325 57.7721L32.7724 57.097L30.5671 58.3122L30.207 57.6821L32.4124 56.4669L32.0523 55.7918L32.5474 55.5217L33.6726 57.547Z" fill="white"/>
<path d="M36.1041 61.2827C36.1041 61.6428 35.9241 62.0028 35.474 62.3629C35.024 62.7229 34.6189 62.8579 34.2588 62.8129C33.8988 62.7229 33.5837 62.5429 33.2687 62.1828L32.6836 61.4627L35.024 59.4824L35.564 60.1575C35.9241 60.5626 36.0591 60.9226 36.1041 61.2827ZM35.114 60.4276L33.5837 61.7328L33.7188 61.9128C33.8538 62.0928 34.0338 62.1828 34.2588 62.1828C34.4389 62.1828 34.7089 62.0478 34.979 61.8228C35.159 61.6428 35.339 61.5077 35.384 61.3727C35.474 61.2377 35.474 61.1027 35.474 60.9677C35.429 60.8326 35.384 60.7426 35.294 60.6076L35.114 60.4276Z" fill="white"/>
<path d="M35.8757 64.9733L36.2357 64.3882L35.6056 63.7581L35.0206 64.1182L34.4805 63.5781L37.2709 62.0479L37.901 62.678L36.4158 65.5134L35.8757 64.9733ZM36.0557 63.4881L36.5058 63.9382L37.2259 62.723L36.0557 63.4881Z" fill="white"/>
<path d="M40.4691 64.8382L37.9037 66.6835L37.1836 66.0984L38.3988 63.173L38.9839 63.6681L37.8587 65.9634L39.839 64.3432L40.4691 64.8382Z" fill="white"/>
<path d="M41.2308 65.3333L39.8806 67.4036L40.8708 68.0787L40.5107 68.5288L38.9805 67.4936L40.6457 64.9282L41.2308 65.3333Z" fill="white"/>
<path d="M42.4916 69.6089L42.6716 68.9338L41.8615 68.5288L41.4114 69.0239L40.7363 68.6638L42.9867 66.4135L43.7518 66.8185L43.1217 69.969L42.4916 69.6089ZM42.2216 68.1237L42.8067 68.4388L43.1667 67.0886L42.2216 68.1237Z" fill="white"/>
<path d="M46.5441 68.0337L46.274 68.5288L45.5539 68.2588L44.5638 70.5541L43.8887 70.2841L44.8788 67.9887L44.1587 67.6737L44.3838 67.1786L46.5441 68.0337Z" fill="white"/>
<path d="M48.5244 68.6639L47.6692 71.5893L46.9941 71.3643L47.8493 68.4388L48.5244 68.6639Z" fill="white"/>
<path d="M50.8193 72.2195C50.9543 72.3095 51.0443 72.3995 51.1793 72.4895L50.6392 72.9396C50.5042 72.7145 50.3692 72.5345 50.2342 72.3995C50.0992 72.2645 49.8741 72.1744 49.6041 72.1294C49.334 72.0844 49.109 71.9494 48.929 71.8144C48.7489 71.6344 48.6589 71.4543 48.5689 71.1843C48.5239 70.9142 48.5239 70.6442 48.5689 70.3292C48.6139 70.0141 48.7489 69.7441 48.929 69.519C49.109 69.294 49.289 69.159 49.5141 69.069C49.7391 68.9789 50.0091 68.9789 50.2792 69.0239C50.6842 69.114 50.9993 69.339 51.1793 69.654C51.3593 69.9691 51.4044 70.3742 51.3143 70.8692C51.1793 71.4993 50.8643 71.8594 50.3242 72.0394C50.5042 72.0844 50.6842 72.1294 50.8193 72.2195ZM49.334 71.3193C49.379 71.4993 49.5141 71.6344 49.7391 71.6794C49.9641 71.7244 50.0992 71.6794 50.2342 71.5443C50.3692 71.4093 50.4592 71.1393 50.5492 70.7792C50.6392 70.4192 50.6392 70.1491 50.5492 69.9241C50.5042 69.7441 50.3692 69.609 50.1442 69.564C49.9191 69.519 49.7841 69.564 49.6491 69.6991C49.5141 69.8341 49.424 70.1041 49.334 70.4642C49.289 70.8242 49.289 71.1393 49.334 71.3193Z" fill="white"/>
<path d="M53.9244 69.6089L53.7894 70.149L53.0243 70.059L52.7543 72.5344L52.0341 72.4444L52.3042 69.969L51.5391 69.879L51.5841 69.3389L53.9244 69.6089Z" fill="white"/>
<path d="M54.9605 69.654L54.8705 72.7145L54.1504 72.6695L54.2404 69.609L54.9605 69.654Z" fill="white"/>
<path d="M57.1204 69.609C57.3004 69.654 57.4355 69.744 57.6155 69.879L57.3004 70.2841C57.0754 70.1041 56.8504 70.059 56.6253 70.059C56.4903 70.059 56.4003 70.1041 56.3103 70.1491C56.2203 70.1941 56.2203 70.2841 56.2203 70.3741C56.2203 70.4641 56.2203 70.5091 56.2653 70.5541C56.3103 70.5991 56.3553 70.6441 56.4453 70.6891C56.5353 70.7341 56.6704 70.7792 56.8054 70.8242C57.1204 70.9142 57.3455 71.0042 57.5255 71.1842C57.6605 71.3192 57.7505 71.5443 57.7505 71.8143C57.7505 71.9943 57.7055 72.1744 57.6155 72.3094C57.5255 72.4444 57.3905 72.5794 57.2104 72.6695C57.0304 72.7595 56.8054 72.8045 56.5803 72.8045C56.3103 72.8045 56.0853 72.8045 55.9052 72.7145C55.7252 72.6244 55.5452 72.5344 55.4102 72.3994L55.7702 71.9943C55.9052 72.0844 55.9952 72.1744 56.1303 72.2194C56.2653 72.2644 56.4003 72.2644 56.5353 72.2644C56.6704 72.2644 56.8054 72.2194 56.8954 72.1294C56.9854 72.0394 57.0304 71.9493 57.0304 71.8593C57.0304 71.7693 57.0304 71.7243 56.9854 71.6793C56.9404 71.6343 56.8954 71.5893 56.8054 71.5443C56.7154 71.4993 56.6253 71.4543 56.4453 71.4093C56.0853 71.3192 55.8602 71.1842 55.7252 71.0492C55.5902 70.9142 55.5002 70.7342 55.5002 70.5091C55.5002 70.3291 55.5452 70.1941 55.6352 70.059C55.7252 69.924 55.8602 69.834 55.9952 69.744C56.1753 69.654 56.3553 69.609 56.5803 69.609C56.7154 69.519 56.9404 69.564 57.1204 69.609Z" fill="white"/>
<path d="M60.272 69.5638C60.5421 69.7889 60.7221 70.1939 60.8121 70.689C60.8571 71.0041 60.8571 71.3191 60.7671 71.5441C60.6771 71.8142 60.5421 71.9942 60.362 72.1742C60.182 72.3093 59.957 72.4443 59.6419 72.4893C59.3719 72.5343 59.1018 72.4893 58.8768 72.3993C58.6518 72.3093 58.4717 72.1292 58.3367 71.9042C58.2017 71.6792 58.1117 71.4091 58.0667 71.0491C58.0217 70.734 58.0217 70.419 58.1117 70.1939C58.2017 69.9239 58.3367 69.7439 58.5167 69.5638C58.6968 69.4288 58.9218 69.2938 59.2369 69.2488C59.6419 69.2488 60.002 69.3388 60.272 69.5638ZM58.8768 70.1489C58.7868 70.329 58.7868 70.599 58.8318 71.0041C58.8768 71.3641 58.9668 71.6342 59.1018 71.8142C59.2369 71.9492 59.4169 72.0392 59.5969 71.9942C59.8219 71.9492 59.957 71.8592 60.047 71.6792C60.137 71.4991 60.137 71.2291 60.092 70.824C60.047 70.464 59.957 70.1939 59.8219 70.0139C59.6869 69.8789 59.5069 69.7889 59.3269 69.8339C59.1018 69.8339 58.9218 69.9689 58.8768 70.1489Z" fill="white"/>
<path d="M62.9727 68.8887C63.2877 69.0238 63.5578 69.3838 63.6928 69.9239C63.8278 70.464 63.8278 70.9141 63.6028 71.1841C63.3777 71.4541 63.0627 71.6792 62.6126 71.8142L61.7125 72.0392L60.9023 69.0688L61.7125 68.8437C62.2526 68.7087 62.6576 68.7537 62.9727 68.8887ZM61.8025 69.3838L62.3426 71.3191L62.5676 71.2741C62.7926 71.2291 62.9727 71.0941 63.0177 70.9141C63.1077 70.734 63.1077 70.464 62.9727 70.1039C62.8827 69.8339 62.8376 69.6539 62.7476 69.5188C62.6576 69.3838 62.5226 69.3388 62.4326 69.2938C62.2976 69.2488 62.1625 69.2938 62.0275 69.2938L61.8025 69.3838Z" fill="white"/>
<path d="M64.4095 68.0338L65.4446 70.9143L64.7695 71.1393L63.7344 68.2588L64.4095 68.0338Z" fill="white"/>
<path d="M67.0672 66.9086L66.9322 69.0689L67.3822 70.1041L66.7071 70.4191L66.2571 69.384L64.5918 68.0337L65.3119 67.7187L66.3921 68.7089L66.3471 67.2686L67.0672 66.9086Z" fill="white"/>
<path d="M69.2722 66.0535C69.6322 66.1885 69.9022 66.4586 70.1723 66.9086C70.3523 67.1787 70.4423 67.4937 70.4423 67.7188C70.4873 67.9888 70.3973 68.2138 70.3073 68.4389C70.1723 68.6639 69.9923 68.8439 69.7672 68.9789C69.4972 69.114 69.2722 69.204 69.0471 69.159C68.8221 69.159 68.597 69.069 68.372 68.9339C68.147 68.7989 67.9669 68.5739 67.7869 68.2588C67.6069 67.9888 67.5169 67.7187 67.5169 67.4487C67.4719 67.1787 67.5169 66.9536 67.6519 66.7286C67.7869 66.5036 67.9669 66.3235 68.192 66.1885C68.552 65.9635 68.9121 65.9185 69.2722 66.0535ZM68.147 67.0887C68.147 67.2687 68.237 67.5387 68.417 67.8988C68.597 68.2138 68.7771 68.4389 68.9571 68.5289C69.1371 68.6189 69.3172 68.6189 69.4972 68.5289C69.6772 68.4389 69.7672 68.2588 69.7672 68.0788C69.7672 67.8988 69.6772 67.6287 69.4972 67.2687C69.3172 66.9536 69.1371 66.7286 68.9571 66.6386C68.7771 66.5486 68.597 66.5486 68.417 66.6386C68.237 66.7736 68.147 66.9086 68.147 67.0887Z" fill="white"/>
<path d="M71.2985 64.2081L71.5685 64.7032L70.9384 65.1533L72.3787 67.1786L71.7936 67.5837L70.3533 65.5583L69.7233 66.0084L69.4082 65.5583L71.2985 64.2081Z" fill="white"/>
<path d="M76.25 62.363C76.385 62.498 76.5201 62.678 76.5651 62.858C76.6101 63.0381 76.6101 63.2181 76.5651 63.3981C76.5201 63.5781 76.385 63.8032 76.205 63.9832C75.935 64.2533 75.6649 64.3883 75.3949 64.4333C75.1248 64.4333 74.8548 64.3433 74.6298 64.1182L73.1445 62.678L73.6396 62.1379L75.0798 63.5331C75.2149 63.6682 75.3499 63.7582 75.4849 63.7582C75.6199 63.7582 75.7099 63.7132 75.845 63.6232C75.98 63.4881 76.025 63.3981 75.98 63.2631C75.98 63.1281 75.89 62.9931 75.7549 62.858L74.3147 61.4628L74.8098 60.9227L76.25 62.363Z" fill="white"/>
<path d="M78.9488 60.5626L78.3637 61.2827L75.9333 60.5176C76.1134 60.6526 76.2934 60.7427 76.4734 60.8327C76.6535 60.9227 76.7885 61.0577 76.9685 61.1927L77.8686 61.8678L77.4636 62.3629L75.0332 60.5176L75.5733 59.7975L78.0037 60.5176C77.6436 60.3376 77.3286 60.1126 77.0585 59.8875L76.0684 59.1224L76.4734 58.6273L78.9488 60.5626Z" fill="white"/>
<path d="M77.1941 57.637L79.7595 59.3022L79.3545 59.9323L76.7891 58.2671L77.1941 57.637Z" fill="white"/>
<path d="M78.6332 55.1617L80.9286 57.3671L80.4785 58.1772L77.373 57.5021L77.7331 56.827L80.2085 57.5021L78.2732 55.8368L78.6332 55.1617Z" fill="white"/>
<path d="M79.4448 53.2264L79.8949 53.4965L79.4448 54.4866L80.1199 54.7567L80.48 53.9015L80.93 54.0816L80.57 54.9367L81.2901 55.2518L81.7402 54.1716L82.2352 54.3966L81.4701 56.1069L78.6797 54.8917L79.4448 53.2264Z" fill="white"/>
<path d="M81.6935 52.4614L81.6034 52.7314L82.7286 53.0915L82.5036 53.7666L79.5781 52.8214L79.8932 51.8763C80.0282 51.4712 80.2082 51.2012 80.3883 51.0662C80.6133 50.9311 80.8383 50.8861 81.1534 50.9762C81.3334 51.0212 81.4684 51.1112 81.5584 51.2462C81.6484 51.3812 81.6935 51.5612 81.7385 51.7863L83.2237 51.4262L82.9537 52.1913L81.6935 52.4614ZM81.1084 52.5964L81.1984 52.3264C81.2434 52.1913 81.2434 52.0563 81.1984 51.9663C81.1534 51.8763 81.0634 51.7863 80.8833 51.7413C80.7483 51.6963 80.6133 51.6963 80.5233 51.7863C80.4333 51.8313 80.3432 51.9663 80.2982 52.1463L80.2082 52.4164L81.1084 52.5964Z" fill="white"/>
<path d="M80.7039 48.7707C80.7939 48.6356 80.929 48.5006 81.109 48.3656L81.424 48.7707C81.199 48.9507 81.064 49.1307 81.019 49.3558C80.974 49.4908 80.974 49.5808 81.019 49.6708C81.064 49.7608 81.109 49.8058 81.199 49.8058C81.244 49.8058 81.334 49.8058 81.379 49.8058C81.424 49.7608 81.469 49.7158 81.5141 49.6708C81.5591 49.5808 81.6491 49.4908 81.7391 49.3558C81.9191 49.0857 82.0541 48.8607 82.2342 48.7707C82.4142 48.6356 82.6392 48.6356 82.9093 48.6806C83.0893 48.7257 83.2693 48.8157 83.3593 48.9507C83.4944 49.0857 83.5844 49.2207 83.5844 49.4458C83.6294 49.6258 83.6294 49.8508 83.5844 50.1209C83.5394 50.3459 83.4494 50.5709 83.3143 50.751C83.1793 50.931 83.0443 51.066 82.9093 51.156L82.5942 50.706C82.7292 50.6159 82.8193 50.5259 82.9093 50.3909C82.9993 50.3009 83.0443 50.1659 83.0893 49.9859C83.1343 49.8508 83.1343 49.7158 83.0893 49.6258C83.0443 49.5358 82.9543 49.4458 82.8643 49.4458C82.7743 49.4458 82.7292 49.4458 82.6842 49.4458C82.6392 49.4458 82.5492 49.4908 82.5042 49.5808C82.4592 49.6708 82.3692 49.7608 82.3242 49.8958C82.1442 50.2109 81.9641 50.4359 81.7841 50.5259C81.6041 50.6159 81.424 50.661 81.199 50.616C81.019 50.5709 80.884 50.4809 80.7939 50.3909C80.7039 50.2559 80.6139 50.1209 80.5689 49.9408C80.5239 49.7608 80.5239 49.5808 80.5689 49.3558C80.5239 49.1307 80.6139 48.9507 80.7039 48.7707Z" fill="white"/>
<path d="M80.9279 47.1505L83.9434 47.5556L83.8534 48.2757L80.8379 47.8706L80.9279 47.1505Z" fill="white"/>
<path d="M81.1546 44.495L81.6946 44.585L81.6496 45.3501L84.17 45.5302L84.125 46.2503L81.6046 46.0702L81.5596 46.8804L81.0195 46.8354L81.1546 44.495Z" fill="white"/>
<path d="M81.1074 42.3347L81.6475 42.3797L81.6925 43.4599H82.4126L82.3676 42.5147H82.8627L82.9077 43.4599H83.6728L83.6278 42.2897H84.1679L84.2129 44.18L81.1524 44.27L81.1074 42.3347Z" fill="white"/>
<path d="M80.8379 39.8594H81.378L81.468 40.6245L83.9434 40.3545L84.0334 41.0746L81.558 41.3446L81.648 42.1097L81.1079 42.1547L80.8379 39.8594Z" fill="white"/>
<path d="M80.6113 38.8691L83.6268 38.2841L83.7618 39.0042L80.7463 39.5893L80.6113 38.8691Z" fill="white"/>
<path d="M40.1543 30.4078C40.1543 31.353 40.9194 32.1181 41.8646 32.1181H69.0938C70.039 32.1181 70.8041 31.353 70.8041 30.4078H40.1543Z" fill="white"/>
<path d="M42.7168 33.8284C42.7168 34.7735 43.4819 35.5386 44.4271 35.5386V57.5021V58.1772C44.4271 58.6272 44.7871 58.9873 45.2372 58.9873H48.1176C49.8279 58.9873 51.4932 59.4824 52.8884 60.4725L55.6788 62.3628L57.8842 60.6976C59.3694 59.5724 61.1697 58.9873 63.015 58.9873H65.7604C66.2105 58.9873 66.5705 58.6272 66.5705 58.1772V57.5021V35.5836H66.7506C67.6957 35.5836 68.4608 34.8185 68.4608 33.8734H42.7168V33.8284ZM56.849 59.3474L55.6338 60.2475L53.8335 59.0323C52.1233 57.9071 50.143 57.277 48.1176 57.277H46.1373V51.8762H48.1176C49.8279 51.8762 51.4932 52.3713 52.8884 53.3614L55.6788 55.2517L57.8842 53.5865C59.3694 52.4613 61.1697 51.8762 63.015 51.8762H64.8603V57.277H63.015C60.7646 57.277 58.6043 57.9971 56.849 59.3474ZM54.6437 45.3052V52.5063L53.8335 51.9662C53.3385 51.6512 52.7984 51.3361 52.2583 51.1111V45.3052H54.6437ZM56.3539 45.3052H58.6043V51.1111H58.7843C58.1092 51.4261 57.4341 51.7862 56.849 52.2362L56.3539 52.5963V45.3052ZM64.8153 50.2109H62.97C62.0698 50.2109 61.1697 50.3459 60.2695 50.571V45.3052H61.7098C62.6549 45.3052 63.42 44.54 63.42 43.5949H47.4425C47.4425 44.54 48.2077 45.3052 49.1528 45.3052H50.593V50.481C49.7829 50.3009 48.9728 50.1659 48.1176 50.1659H46.1373V35.5836H64.8153V50.2109Z" fill="white"/>
<path d="M50.5038 41.2096H51.359V38.5992H52.7092V41.2096H53.9244C54.4644 41.2096 54.8695 41.0745 55.1396 40.7595C55.4096 40.4894 55.5896 40.0844 55.5896 39.5443V39.3193C55.5896 38.8242 55.4546 38.4191 55.1846 38.1491C54.9145 37.879 54.5095 37.744 53.9694 37.744H52.8442H52.7092H49.5137V38.5992H50.5038V41.2096ZM53.6093 38.5992H53.9244C54.1944 38.5992 54.3744 38.6442 54.5095 38.7792C54.6445 38.9142 54.6895 39.0942 54.6895 39.3643V39.5893C54.6895 39.9044 54.6445 40.1294 54.5095 40.2194C54.3744 40.3544 54.1944 40.3994 53.9244 40.3994H53.6093V38.5992Z" fill="white"/>
<path d="M57.0309 37.744H56.1758V41.2096H57.0309V37.744Z" fill="white"/>
<path d="M57.9733 40.8945C58.1084 41.0295 58.2434 41.1195 58.4234 41.2095C58.6034 41.2545 58.7835 41.2995 59.0085 41.2995C59.2335 41.2995 59.4136 41.2545 59.5936 41.2095C59.7736 41.1645 59.9086 41.0295 60.0437 40.8945C60.1787 40.7594 60.2687 40.6244 60.3137 40.4444C60.3587 40.2644 60.4037 40.0843 60.4037 39.8593V37.834H59.5486V39.8593C59.5486 40.0843 59.5036 40.2644 59.4136 40.3544C59.3235 40.4444 59.1885 40.4894 59.0085 40.4894C58.8285 40.4894 58.6934 40.4444 58.6034 40.3544C58.5134 40.2644 58.4684 40.0843 58.4684 39.8593V37.834H57.6133V39.8593C57.6133 40.0843 57.6583 40.2644 57.7033 40.4444C57.7483 40.5794 57.8383 40.7594 57.9733 40.8945Z" fill="white"/>
<path d="M53.3387 15.7808V18.5262H52.7086V16.4109L52.1236 16.7709L51.8535 16.3659L52.7537 15.7808H53.3387Z" fill="white"/>
<path d="M55.6342 16.0058C55.8142 16.1858 55.9042 16.4558 55.9042 16.7709C55.9042 17.1309 55.8592 17.446 55.7242 17.671C55.5892 17.8961 55.4091 18.1211 55.1841 18.2561C54.9141 18.3911 54.599 18.5262 54.194 18.6162L54.0589 18.1661C54.419 18.0761 54.689 17.9861 54.8691 17.851C55.0491 17.716 55.1841 17.536 55.2291 17.311C55.0941 17.491 54.9141 17.581 54.644 17.581C54.509 17.581 54.374 17.536 54.239 17.491C54.1039 17.401 54.0139 17.311 53.9689 17.1759C53.8789 17.0409 53.8789 16.8609 53.8789 16.6809C53.8789 16.5008 53.9239 16.3208 54.0139 16.1858C54.1039 16.0508 54.239 15.9157 54.374 15.8707C54.509 15.7807 54.689 15.7357 54.8691 15.7357C55.1841 15.7357 55.4542 15.8257 55.6342 16.0058ZM55.0491 17.0409C55.1391 16.9959 55.1841 16.9509 55.2291 16.8609C55.2291 16.5909 55.1841 16.4108 55.1391 16.3208C55.0941 16.2308 55.0041 16.1408 54.8691 16.1408C54.734 16.1408 54.644 16.1858 54.599 16.2758C54.554 16.3658 54.509 16.4558 54.509 16.6359C54.509 16.8159 54.554 16.9059 54.599 16.9959C54.644 17.0859 54.734 17.0859 54.8241 17.0859C54.9141 17.1309 54.9591 17.0859 55.0491 17.0409Z" fill="white"/>
<path d="M57.4815 15.8256C57.6165 15.8706 57.7065 15.9606 57.7515 16.0506C57.8416 16.1406 57.8416 16.2756 57.8416 16.4107C57.8416 16.5907 57.7965 16.7257 57.7065 16.8157C57.6165 16.9057 57.4815 16.9958 57.3015 17.0408C57.4815 17.0408 57.6165 17.1308 57.7515 17.2208C57.8866 17.3108 57.9316 17.4908 57.9316 17.7159C57.9316 17.8509 57.8866 18.0309 57.7965 18.1209C57.7065 18.256 57.6165 18.346 57.4365 18.436C57.2565 18.526 57.0764 18.571 56.8514 18.571C56.4463 18.571 56.1313 18.436 55.9062 18.1659L56.2663 17.8509C56.3563 17.9409 56.4463 18.0309 56.5364 18.0309C56.6264 18.0759 56.7164 18.0759 56.8064 18.0759C56.9414 18.0759 57.0314 18.0309 57.1214 17.9859C57.2115 17.8959 57.2565 17.8059 57.2565 17.7159C57.2565 17.5808 57.2115 17.4908 57.1665 17.4008C57.1214 17.3108 56.9864 17.3108 56.8514 17.3108H56.6264L56.7164 16.8607H56.8964C57.0314 16.8607 57.1214 16.8157 57.1665 16.7707C57.2565 16.7257 57.2565 16.6357 57.2565 16.5007C57.2565 16.4107 57.2115 16.3207 57.1665 16.2756C57.1214 16.2306 57.0314 16.1856 56.8964 16.1856C56.7164 16.1856 56.5363 16.2756 56.3563 16.4107L56.0413 16.0506C56.3113 15.8256 56.6264 15.6906 56.9864 15.6906C57.1664 15.7356 57.3015 15.7356 57.4815 15.8256Z" fill="white"/>
<path d="M59.6415 15.7808V18.5262H59.0114V16.4109L58.4263 16.7709L58.1562 16.3208L59.0564 15.7808H59.6415Z" fill="white"/>
</svg>
