<svg width="111" height="89" viewBox="0 0 111 89" fill="none" xmlns="http://www.w3.org/2000/svg">
<path d="M44.0209 40.3858C44.1382 40.6217 44.2115 40.8134 44.2408 40.9609C44.2995 41.1378 44.3141 41.3147 44.2848 41.4917C44.2848 41.6686 44.2701 41.8455 44.2408 42.0225C43.9475 44.6765 43.361 47.2716 42.4812 49.8077C41.6015 52.3143 40.3698 54.6292 38.7862 56.7524C38.4636 57.1653 38.1263 57.5486 37.7744 57.9025C37.4225 58.2564 37.0119 58.5513 36.5427 58.7872C35.8096 59.1411 35.0324 59.259 34.2113 59.1411C33.4195 59.0526 32.6717 58.8167 31.9679 58.4333C30.7948 57.814 29.8564 56.9588 29.1525 55.8677C28.654 55.101 28.2728 54.2606 28.0088 53.3464C27.7449 52.4617 27.5396 51.5623 27.393 50.6481C27.1877 49.4391 27.0264 48.2447 26.9091 47.0652C26.8211 45.8561 26.7478 44.6323 26.6892 43.3937C26.6598 42.9219 26.6158 42.4648 26.5572 42.0225C26.4985 41.5507 26.3959 41.0936 26.2493 40.6512C26.1613 40.4153 26.088 40.2236 26.0293 40.0762C25.9707 39.9287 26 39.7371 26.1173 39.5011C26.2933 39.1473 26.5425 38.8966 26.8651 38.7492C27.3637 38.5132 27.9209 38.4395 28.5367 38.528C29.2405 38.587 29.915 38.7934 30.5602 39.1473C31.2347 39.4717 31.7772 39.9287 32.1878 40.5185C32.5984 41.1378 32.833 41.8161 32.8916 42.5533C32.9796 43.261 33.0529 43.9835 33.1116 44.7208C33.1702 46.0183 33.2582 47.3011 33.3755 48.5691C33.4928 49.8372 33.6541 51.1052 33.8594 52.3733C34.8858 50.6924 35.7216 48.9083 36.3668 47.0209C37.0119 45.1336 37.4518 43.2168 37.6864 41.2705C37.7451 40.7692 37.8331 40.2826 37.9504 39.8108C38.097 39.3095 38.3756 38.9261 38.7862 38.6607C39.0208 38.5132 39.2847 38.4248 39.578 38.3953C39.8712 38.3658 40.1645 38.3805 40.4577 38.4395C41.2495 38.528 42.012 38.7787 42.7452 39.1915C42.9798 39.3389 43.2144 39.5159 43.449 39.7223C43.6836 39.9287 43.8742 40.1499 44.0209 40.3858Z" fill="white"/>
<path d="M53.5586 57.239C53.5586 57.1505 53.5439 57.0473 53.5146 56.9294C53.5146 56.8409 53.5146 56.7377 53.5146 56.6197C53.4559 55.912 53.4119 55.2042 53.3826 54.4965C53.3826 53.7887 53.3973 53.081 53.4266 52.3733C53.4559 50.9283 53.4999 49.498 53.5586 48.0825C53.6172 46.6671 53.6466 45.2368 53.6466 43.7918C53.6759 43.2021 53.6612 42.627 53.6026 42.0667C53.5439 41.4769 53.368 40.9314 53.0747 40.4301C52.6935 39.7518 52.1509 39.2505 51.4471 38.9261C50.7433 38.5722 50.0101 38.3658 49.2477 38.3068C49.013 38.2773 48.7784 38.2773 48.5438 38.3068C48.3092 38.3068 48.0746 38.3511 47.84 38.4395C47.2828 38.6459 46.9602 38.9851 46.8722 39.4569C46.8429 39.6928 46.8429 39.914 46.8722 40.1204C46.9309 40.2974 46.9895 40.489 47.0482 40.6955C47.1655 41.1083 47.2242 41.5359 47.2242 41.9782C47.2535 42.4206 47.2535 42.8629 47.2242 43.3053L46.9602 53.4349C46.9309 54.2016 46.9456 54.9683 47.0042 55.735C47.0922 56.5018 47.3708 57.18 47.84 57.7698C48.2212 58.2416 48.6905 58.5955 49.2477 58.8314C49.8342 59.0968 50.4354 59.2738 51.0512 59.3622C51.3445 59.3917 51.6377 59.4065 51.931 59.4065C52.2242 59.4065 52.5028 59.3327 52.7668 59.1853C53.2653 58.9494 53.5293 58.6692 53.5586 58.3448C53.6172 58.0205 53.6172 57.6518 53.5586 57.239Z" fill="white"/>
<path d="M63.5176 57.3275C63.547 57.357 63.5616 57.4012 63.5616 57.4602C63.6203 57.7846 63.6056 58.0794 63.5176 58.3448C63.459 58.6397 63.2684 58.8904 62.9458 59.0968C62.5645 59.3033 62.11 59.4065 61.5821 59.4065C60.7903 59.4065 60.0278 59.2295 59.2947 58.8757C58.5615 58.5808 58.0043 58.1384 57.6231 57.5486C57.3298 57.1063 57.1539 56.6197 57.0952 56.0889C57.0366 55.5581 56.9926 55.0273 56.9633 54.4965C56.9046 51.695 56.9193 48.9082 57.0073 46.1362C57.1246 43.3348 57.1832 40.5333 57.1832 37.7318C57.1832 37.4959 57.1685 37.2599 57.1392 37.024C57.1392 36.7881 57.1099 36.5522 57.0512 36.3163C56.9926 36.1394 56.9339 35.9624 56.8753 35.7855C56.8166 35.6085 56.7873 35.4316 56.7873 35.2547C56.7873 34.9598 56.8753 34.7091 57.0512 34.5027C57.2272 34.2668 57.4325 34.0898 57.6671 33.9719C57.931 33.8539 58.195 33.7949 58.4589 33.7949C58.7522 33.7655 59.0308 33.7655 59.2947 33.7949C60.0278 33.8834 60.717 34.1046 61.3622 34.4585C62.0367 34.7828 62.5792 35.2547 62.9898 35.8739C63.3124 36.4342 63.503 37.0535 63.5616 37.7318C63.6203 38.3805 63.6349 39.0293 63.6056 39.6781L63.4297 49.0999C63.4003 50.0731 63.371 51.0462 63.3417 52.0194C63.3417 52.963 63.3563 53.9214 63.3857 54.8946C63.3857 55.6908 63.4297 56.5018 63.5176 57.3275Z" fill="white"/>
<path d="M84.8341 56.8409C85.0394 57.2832 85.0541 57.6961 84.8781 58.0794C84.6728 58.4923 84.3356 58.743 83.8664 58.8314C83.3971 58.9199 82.9426 58.9641 82.5027 58.9641C81.0951 58.9346 79.6874 58.9199 78.2798 58.9199C76.9014 58.9199 75.5084 58.9789 74.1008 59.0968C73.3676 59.1558 72.6345 59.2 71.9013 59.2295C71.1682 59.2885 70.435 59.2295 69.7019 59.0526C69.2033 58.9051 68.7195 58.6987 68.2502 58.4333C67.8104 58.1679 67.4291 57.8288 67.1065 57.4159C66.7253 56.8851 66.5933 56.428 66.7106 56.0447C66.8573 55.6908 67.1065 55.278 67.4584 54.8061L76.5202 42.7745C75.7284 42.7155 74.9366 42.745 74.1448 42.8629C73.353 42.9809 72.5612 43.0694 71.7694 43.1283C70.9776 43.1873 70.1711 43.1136 69.35 42.9072C68.5582 42.7007 67.8983 42.3026 67.3705 41.7128C67.1065 41.3885 66.9159 41.0198 66.7986 40.607C66.7106 40.1941 66.7839 39.8255 67.0185 39.5011C67.2238 39.2652 67.4731 39.103 67.7664 39.0146C68.0596 38.9261 68.3675 38.8524 68.6901 38.7934C69.8925 38.6459 71.0655 38.5427 72.2093 38.4838C73.3823 38.3953 74.57 38.3216 75.7724 38.2626C76.4469 38.2036 77.1067 38.1741 77.7519 38.1741C78.4264 38.1446 79.1009 38.1889 79.7754 38.3068C80.4499 38.4248 81.0951 38.6165 81.7109 38.8819C82.3267 39.1473 82.8693 39.5306 83.3385 40.0319C83.6318 40.3268 83.8664 40.666 84.0423 41.0493C84.2183 41.4032 84.2916 41.7866 84.2623 42.1994C84.2329 42.5828 84.1303 42.9367 83.9543 43.261C83.7784 43.5854 83.5731 43.8951 83.3385 44.1899C80.9044 47.7287 78.3971 51.1789 75.8164 54.5407C76.5202 54.5997 77.224 54.5997 77.9278 54.5407C78.661 54.5112 79.3941 54.5112 80.1273 54.5407C80.8604 54.5702 81.5789 54.6734 82.2828 54.8504C82.9866 55.0273 83.6024 55.3664 84.1303 55.8677C84.4529 56.1626 84.6875 56.487 84.8341 56.8409Z" fill="white"/>
<path d="M52.6739 36.1838C53.3777 35.5055 53.7297 34.6651 53.7297 33.6625C53.7297 32.6893 53.3777 31.8636 52.6739 31.1854C51.9994 30.5071 51.1783 30.168 50.2105 30.168C49.2428 30.168 48.407 30.5071 47.7032 31.1854C47.0287 31.8636 46.6914 32.6893 46.6914 33.6625C46.6914 34.6651 47.0287 35.5055 47.7032 36.1838C48.407 36.8621 49.2428 37.2012 50.2105 37.2012C51.1783 37.2012 51.9994 36.8621 52.6739 36.1838Z" fill="#CC2132"/>
</svg>
