<svg width="140" height="140" viewBox="0 0 140 140" fill="none" xmlns="http://www.w3.org/2000/svg">
<path fill-rule="evenodd" clip-rule="evenodd" d="M39.1432 55.1386C37.4407 56.0737 36.0514 56.9341 35.0657 57.577C34.4676 57.967 34.0185 58.2767 33.7384 58.4741L33.4529 58.6755L33.399 58.7147C33.399 58.7148 33.399 58.7147 33.399 58.7147C33.2071 58.8544 33.0167 58.9948 32.8272 59.1364L32.825 59.138L32.6626 59.2573L32.7399 60.1726C33.0299 63.6291 33.4835 66.9874 34.0941 70.2468C34.7126 73.546 35.4896 76.7401 36.417 79.8248M35.1046 54.8065C35.9362 54.2938 36.9178 53.7147 38.0266 53.1057C41.6326 51.1227 46.6339 48.7896 52.2587 47.3675C54.5741 46.7814 56.6813 46.3365 58.5657 46.0001L58.5675 45.9998C60.8702 45.5914 62.8551 45.3407 64.4908 45.189L64.492 45.1888C65.0106 45.1411 65.4709 45.1058 65.8777 45.0786L65.8793 45.0785C66.2861 45.0516 66.6852 45.0286 67.068 45.0135C67.746 44.984 68.313 44.9756 68.7562 44.9779C69.0977 44.9797 69.3672 44.9856 69.5631 44.9935L70.927 44.8851H70.9552L71.0301 44.8809H71.2896L71.3645 44.8851H71.3948L72.7608 44.9936C73.0787 44.9811 73.6176 44.9696 74.3718 44.9868C75.244 45.0041 76.4025 45.0583 77.8303 45.1895L77.8317 45.1897C79.4674 45.3414 81.4517 45.5921 83.753 46.0006L83.7543 46.0008C85.641 46.3372 87.7481 46.782 90.0627 47.3681C95.688 48.7903 100.69 51.1237 104.295 53.1069C105.397 53.7124 106.374 54.2882 107.203 54.7987C107.392 54.9151 107.574 55.0281 107.747 55.1373C107.957 55.2695 108.155 55.3961 108.341 55.5164C108.345 55.5186 108.348 55.5208 108.352 55.523L108.385 55.4565L110.291 56.8417L110.296 56.8447C110.392 56.9155 110.488 56.9865 110.584 57.0572C110.68 57.1281 110.776 57.1987 110.872 57.2692L112.08 58.1584L111.894 60.3662C111.598 63.8993 111.134 67.3355 110.508 70.6739C109.875 74.0526 109.078 77.3275 108.125 80.4936C107.159 83.7045 106.032 86.8059 104.747 89.8038C104.391 90.6371 104.022 91.4615 103.641 92.2772C103.43 92.7302 103.215 93.1804 102.997 93.628H111.382V123.531L109.305 122.964L109.305 122.963L109.289 122.959L109.238 122.945C109.193 122.933 109.124 122.915 109.034 122.89C108.853 122.842 108.584 122.771 108.236 122.68C107.54 122.498 106.528 122.237 105.264 121.924C102.737 121.299 99.2104 120.464 95.2143 119.63C92.1208 118.984 88.7651 118.343 85.3856 117.798C84.1303 119.015 82.837 120.199 81.5071 121.35C78.9309 123.581 76.2164 125.69 73.3711 127.681L71.1597 129.229L68.9524 127.681L68.9513 127.681C66.1064 125.69 63.3922 123.581 60.8163 121.351C59.3736 120.101 57.9737 118.813 56.6188 117.488C52.5723 118.09 48.4923 118.857 44.7882 119.63C40.7921 120.464 37.2654 121.299 34.738 121.924C33.4747 122.237 32.462 122.498 31.7663 122.68C31.4184 122.771 31.1498 122.842 30.9689 122.89C30.8784 122.915 30.8098 122.933 30.7642 122.945L30.6978 122.963L30.6972 122.964L28.6201 123.531V93.628H39.3264C39.108 93.1804 38.8932 92.7301 38.682 92.2772C38.3016 91.4613 37.9327 90.6368 37.5759 89.8038C36.2914 86.8057 35.164 83.7045 34.1963 80.494L34.1959 80.4929C33.2441 77.3272 32.4478 74.0527 31.8144 70.6741C31.189 67.3358 30.7251 63.8998 30.4287 60.3675L30.242 58.1576L31.4443 57.2743C31.6401 57.128 31.8365 56.9833 32.034 56.8396L33.9234 55.4646L33.9568 55.5315C33.9603 55.5292 33.9637 55.527 33.9672 55.5248C34.1521 55.4051 34.3492 55.279 34.5579 55.1474C34.7321 55.0375 34.9144 54.9237 35.1046 54.8065ZM108.906 58.702L108.595 58.4821L108.595 58.4817L108.594 58.4812L108.57 58.4643C108.57 58.4642 108.57 58.4643 108.57 58.4643C108.287 58.2648 107.837 57.9556 107.243 57.5683C106.257 56.9264 104.872 56.0698 103.177 55.1394C99.68 53.2154 94.8669 50.975 89.4942 49.6167C87.2336 49.0443 85.1803 48.611 83.3477 48.2843C81.1115 47.8874 79.191 47.6451 77.6174 47.4991C76.2442 47.373 75.1405 47.3218 74.3234 47.3057L74.3223 47.3057L74.3212 47.3057C73.5282 47.2875 73.006 47.3037 72.7624 47.3151L72.7198 47.3171L71.3028 47.2045H71.2982L71.2233 47.2003H71.0964L71.0215 47.2045H71.019L69.6002 47.3172L69.5558 47.3149C69.4064 47.3071 69.1391 47.2994 68.7443 47.2973M108.906 58.702L108.921 58.7126L108.906 58.702ZM108.921 58.7126C108.921 58.7131 108.922 58.7135 108.922 58.7139L108.921 58.7126ZM108.922 58.7139C109.017 58.7835 109.112 58.8533 109.207 58.9232C109.303 58.9945 109.4 59.0659 109.497 59.1371L109.66 59.2569L109.583 60.1722C109.293 63.6285 108.839 66.9872 108.228 70.2467C107.61 73.546 106.833 76.7401 105.904 79.8248C104.963 82.9534 103.865 85.9732 102.615 88.8904C101.97 90.3972 101.285 91.8746 100.561 93.323C100.561 93.324 100.56 93.325 100.56 93.3261L99.2132 95.9474H109.063V120.499C108.838 120.439 108.57 120.369 108.263 120.29C104.748 119.382 96.0822 117.237 86.9397 115.703L86.9378 115.703L84.6016 115.324L82.8749 116.99C82.8738 116.991 82.8728 116.992 82.8717 116.993C81.9319 117.878 80.9707 118.747 79.9887 119.597C77.4749 121.774 74.8237 123.834 72.0411 125.781L71.1609 126.397L70.2827 125.781L70.2821 125.781C67.4995 123.834 64.8483 121.774 62.3345 119.597C61.2478 118.656 60.1865 117.693 59.1515 116.708C59.1506 116.708 59.1497 116.707 59.1488 116.706L57.4224 115.025L55.0744 115.377L55.0723 115.377C45.213 116.918 35.5104 119.316 31.7391 120.29C31.4325 120.369 31.165 120.439 30.9395 120.499V95.9474H43.1101L41.764 93.3261C41.7634 93.325 41.7629 93.3239 41.7623 93.3228C41.0385 91.8741 40.3531 90.3967 39.7079 88.8904C38.4581 85.9734 37.3601 82.9535 36.417 79.8248M109.321 58.7679L109.591 58.2285L108.988 57.9265L109.161 57.69L109.491 57.9294L109.495 57.9324C109.59 58.0026 109.686 58.073 109.781 58.1433C109.782 58.1438 109.782 58.1443 109.783 58.1448L109.903 58.2328M108.985 57.9293L108.984 57.93L108.985 57.9293ZM77.7411 46.154C76.3368 46.025 75.2016 45.972 74.3526 45.9552C74.3521 45.9552 74.3516 45.9552 74.3511 45.9552C74.3506 45.9552 74.3501 45.9552 74.3496 45.9552C73.6159 45.9384 73.0972 45.9498 72.7989 45.9615C72.7791 45.9623 72.7602 45.9631 72.7424 45.9638L72.6841 45.9592M77.7067 46.5347C77.7068 46.5347 77.7072 46.5347 77.7073 46.5347C79.3065 46.6831 81.2532 46.9288 83.516 47.3304M67.1641 47.3309L67.1626 47.331C66.8071 47.3449 66.4292 47.3666 66.0324 47.3928C65.6431 47.4189 65.2024 47.4527 64.7051 47.4984M67.1641 47.3309L67.1656 47.3309L67.1641 47.3309ZM39.1432 55.1386C42.642 53.2146 47.4549 50.9743 52.8277 49.616L39.1432 55.1386ZM67.1656 47.3309C67.8083 47.3028 68.3389 47.2952 68.7443 47.2973L67.1656 47.3309ZM64.7051 47.4984C63.1317 47.6444 61.2106 47.8866 58.9733 48.2834C57.1427 48.6102 55.0892 49.0435 52.8277 49.616" fill="#00A795"/>
<path d="M69.518 51.228L69.4937 51.2259C69.4252 51.2216 63.9104 50.8399 53.7341 53.414C51.5703 53.9597 49.5078 54.6575 47.6044 55.418C45.7016 56.1764 43.9459 57.0018 42.3971 57.798C41.0323 58.5036 39.8244 59.1913 38.8199 59.7977C37.9282 60.3356 37.1962 60.8086 36.6583 61.1689C36.9579 64.2552 37.3945 67.2559 37.9624 70.1745C38.551 73.2016 39.2808 76.1281 40.1426 78.9575C41.0323 81.8861 42.0717 84.7191 43.2489 87.4573C44.4403 90.2239 45.7709 92.8872 47.2348 95.4476C48.7173 98.0381 50.3368 100.526 52.0861 102.908C53.8597 105.324 55.7688 107.636 57.8071 109.848C59.8132 112.028 61.9471 114.109 64.1972 116.093C66.4117 118.044 68.7353 119.897 71.1581 121.65C73.5831 119.897 75.9046 118.045 78.1212 116.093C80.372 114.109 82.5052 112.028 84.5113 109.848C86.5496 107.636 88.4587 105.324 90.2302 102.908C91.9816 100.526 93.599 98.0381 95.0815 95.4476C96.5476 92.8872 97.8781 90.2239 99.0695 87.4573C100.247 84.7191 101.284 81.8861 102.176 78.9575C103.038 76.1281 103.765 73.2023 104.356 70.1745C104.925 67.2566 105.361 64.2552 105.66 61.1689C105.122 60.8086 104.39 60.3356 103.498 59.7977C102.493 59.1913 101.284 58.5036 99.9192 57.798C98.3725 57.0011 96.6168 56.1764 94.7141 55.418C92.8092 54.6575 90.7481 53.9597 88.5843 53.414C78.408 50.8399 72.8932 51.2216 72.8247 51.2259L72.7498 51.2323H72.5964L72.5215 51.2259H72.5115L71.1589 51.121L69.8076 51.2259H69.7955L69.7227 51.2323H69.5693L69.518 51.228ZM52.6604 48.9608C54.9377 48.3843 57.0066 47.9477 58.853 47.6181C61.1095 47.2179 63.0493 46.9732 64.641 46.8255C65.1447 46.7791 65.5913 46.7449 65.9858 46.7185C66.386 46.6921 66.7706 46.67 67.1344 46.6557C67.7879 46.6271 68.3294 46.6193 68.746 46.6214C69.1463 46.6236 69.4252 46.6314 69.5893 46.64L70.9905 46.5287H71.0005L71.0754 46.5244H71.2409L71.3158 46.5287H71.3279L72.7291 46.64C72.9881 46.6279 73.526 46.6115 74.335 46.63C75.1683 46.6464 76.2884 46.6985 77.6782 46.8262C79.2698 46.9739 81.2089 47.2186 83.464 47.6188C85.3125 47.9484 87.3815 48.385 89.658 48.9615C95.1043 50.3384 99.972 52.6057 103.501 54.5469C106.277 56.0715 108.233 57.4006 108.983 57.93L108.985 57.9257L109.319 58.1682C109.511 58.3095 109.704 58.4515 109.896 58.5927L110.363 58.9366L110.254 60.2286C109.963 63.7073 109.506 67.0882 108.891 70.3707C108.268 73.6931 107.485 76.9107 106.549 80.0191C105.601 83.1717 104.494 86.2152 103.235 89.1559C101.958 92.1366 100.526 95.0025 98.9511 97.7591C97.3537 100.55 95.6023 103.232 93.7096 105.802C91.7926 108.402 89.7293 110.888 87.5291 113.258C85.3025 115.656 82.9325 117.939 80.4291 120.107C77.8972 122.3 75.2275 124.374 72.4266 126.334L71.1589 127.222L69.8932 126.334C67.0923 124.374 64.4227 122.3 61.8907 120.107C59.3873 117.939 57.0173 115.656 54.7907 113.258C52.5884 110.888 50.5258 108.402 48.6103 105.802C46.7154 103.231 44.9661 100.549 43.3687 97.7591C41.7935 95.0025 40.3616 92.1352 39.0853 89.1559C37.8254 86.2152 36.7189 83.1717 35.7686 80.0191C34.834 76.9107 34.0514 73.6931 33.4286 70.3707C32.8136 67.0882 32.357 63.7073 32.0652 60.2286L31.9561 58.9366L32.4212 58.5949C32.6131 58.4515 32.8057 58.3095 32.9998 58.1682L33.3194 57.9357L33.3216 57.94C34.06 57.4184 36.0212 56.0815 38.8164 54.5462C42.3464 52.6049 47.2141 50.3377 52.6604 48.9608Z" fill="#021F30"/>
<path d="M69.6368 48.937C69.6368 48.937 63.7639 48.5147 53.1952 51.1879C42.6286 53.8597 34.3008 60.0337 34.3008 60.0337C36.6993 88.5358 50.2409 109.804 71.1571 124.444C92.0755 109.804 105.617 88.5358 108.016 60.0337C108.016 60.0337 99.6878 53.8597 89.1191 51.1879C78.5525 48.5147 72.6774 48.937 72.6774 48.937L71.1564 48.8179L69.6368 48.937Z" fill="#EBEBEB"/>
<path d="M39.7725 62.8923C42.3551 85.9567 53.0472 104.483 71.159 118.059C89.2729 104.483 99.965 85.9567 102.547 62.8923C101.604 62.3037 100.632 61.7458 99.7096 61.2379C95.9256 59.1511 91.8326 57.4161 87.6584 56.3602C84.012 55.4377 80.2266 54.7058 76.479 54.3968C75.3967 54.3077 74.0177 54.2049 72.9504 54.2834L72.6308 54.3055L71.1582 54.1899L69.6879 54.3055L69.3683 54.2834C68.3003 54.2042 66.9212 54.3077 65.8396 54.3968C62.092 54.7065 58.3066 55.4384 54.6602 56.3602C50.486 57.4161 46.3931 59.1511 42.6076 61.2379C41.6873 61.7458 40.7149 62.3037 39.7725 62.8923Z" fill="#021F30"/>
<path d="M36.9248 61.4058C39.4247 86.3957 50.9472 106.698 71.1564 121.387V118.058C53.0447 104.482 42.3526 85.9562 39.77 62.8918L36.9248 61.4058Z" fill="#C6C6C6"/>
<path d="M105.392 61.4056C102.892 86.3955 91.3696 106.697 71.1582 121.387V122.121V124.443C92.0766 109.803 105.618 88.5343 108.017 60.0322L106.057 61.0574L105.392 61.4056Z" fill="#C6C6C6"/>
<path d="M53.8063 53.6004C57.6367 52.6316 61.6162 51.8632 65.56 51.5379C66.7671 51.4387 68.2418 51.3317 69.4589 51.4209L69.6472 51.433L71.1576 51.3139L72.67 51.433L72.8584 51.4209C74.0755 51.3317 75.5501 51.4395 76.7573 51.5379C80.6989 51.8632 84.6806 52.6323 88.511 53.6004C92.952 54.7226 97.2961 56.5633 101.304 58.7735C102.647 59.5133 104.085 60.3509 105.407 61.2384C105.401 61.2947 105.395 61.3518 105.391 61.406L106.056 61.0579L108.016 60.0327C108.016 60.0327 99.6882 53.8587 89.1195 51.1869C78.5529 48.5137 72.6779 48.936 72.6779 48.936L71.1569 48.8169L69.6358 48.936C69.6358 48.936 63.7629 48.5137 53.1942 51.1869C42.6276 53.8587 34.2998 60.0327 34.2998 60.0327L36.2596 61.0579L36.9252 61.406C36.9188 61.3511 36.9152 61.2947 36.9088 61.2384C38.2315 60.3509 39.6691 59.5133 41.0117 58.7735C45.0212 56.5626 49.3652 54.7226 53.8063 53.6004Z" fill="white" stroke="white" stroke-width="0.789335"/>
<path d="M87.887 81.1101C87.5753 81.3448 87.2478 81.5489 86.9161 81.7151C86.162 82.0911 85.3672 82.3079 84.5518 82.3886C85.684 85.8308 84.4205 89.7076 82.8609 92.8139C81.611 95.303 79.983 97.7622 78.173 99.8796C77.506 100.662 76.8204 101.433 76.1647 102.228C76.0634 102.353 75.9607 102.478 75.8615 102.606L75.6817 104.367C75.5405 105.763 75.4106 107.265 75.492 108.666C75.5605 109.898 75.6453 111.128 75.7367 112.355C75.8016 112.537 75.8679 112.723 75.9407 112.905C76.3294 113.091 76.7029 113.349 77.0158 113.656L69.5983 114.293C68.3085 111.628 67.5865 107.983 67.2911 105.039C67.0728 102.851 67.2811 100.57 67.6571 98.41C67.8797 97.1379 68.1765 95.8581 68.5225 94.6103L67.6186 92.378C67.5051 92.9223 67.3189 93.4495 67.0543 93.9432C66.6476 94.8778 65.8386 95.5834 64.8719 95.9051C64.1321 96.152 63.3551 96.3032 62.5911 96.4716C62.1987 97.0359 61.7214 97.5596 61.1713 97.962L60.3117 98.5912C60.4815 99.3474 60.724 100.159 61.0151 100.864C61.7271 101.206 62.3885 101.784 62.7238 102.468C62.8772 102.781 62.9521 103.103 62.9642 103.433L63.0833 103.362L63.607 104.312C63.9287 104.896 64.1734 105.686 64.3147 106.333C64.6543 107.896 64.5858 109.512 64.0921 111.036C63.7119 112.215 63.261 113.437 62.6845 114.535L59.547 115.187C58.6904 114.483 57.8886 113.487 57.4309 112.856C56.5954 111.705 56.0882 110.373 56.0133 108.951C55.9969 108.621 56.0033 108.237 56.0418 107.865C55.5467 107.398 55.17 106.743 54.9581 106.164C54.8169 105.782 54.7519 105.398 54.7541 104.991C54.7562 104.451 54.8796 103.933 54.926 103.4C54.9503 103.102 54.9481 102.815 54.9217 102.53L53.6718 103.444L54.4587 100.564C54.0178 99.0571 53.5284 97.5567 53.029 96.0685C52.9441 95.8502 52.8692 95.6276 52.8043 95.4015L52.8021 95.3993L52.7964 95.3729C52.4283 94.0909 52.3455 92.6491 52.7358 91.3649C53.1382 90.0401 53.9957 88.8772 55.1885 88.178C55.2085 88.0888 55.2271 87.9961 55.2449 87.9048C54.6806 85.6197 54.2704 83.2432 54.0535 80.9339C52.4618 80.58 50.9151 80.0763 49.7922 79.3907L49.0581 79.435C44.2817 79.7239 37.9151 78.7515 33.6987 76.4336L26.6108 72.5369L30.5361 72.1081C30.4833 72.0738 30.4326 72.0375 30.3827 72.0011C29.4224 71.3197 28.5792 70.5086 27.7537 69.6732L20.9284 62.7815L21.2073 62.8606C20.643 62.2136 20.1985 61.5094 19.9538 60.7575L19.0763 58.08C17.3898 56.7837 15.9986 55.2141 14.9042 53.3821L10.7221 46.3748L10.9689 46.4882C10.2569 45.7784 9.57561 45.0342 8.92211 44.2538L8.87931 44.201L3.57569 35.8674L8.29144 38.3587C5.55331 35.2931 3.4965 31.7131 2.10746 27.5781L1.25991 25.054L3.60209 26.3182C3.91386 26.4859 4.22063 26.6421 4.53026 26.7891C4.22491 26.3646 3.93383 25.9294 3.65488 25.4828C1.00308 21.2279 0.473002 18.0731 0.159808 13.1769L0 10.6877L1.89272 12.3115C3.18688 13.4195 4.41825 14.5845 5.62394 15.7902C6.63487 16.8011 7.62225 17.837 8.64316 18.8379C9.79392 19.9687 10.9746 21.0282 12.2652 21.9991C13.8626 23.2005 15.5698 24.2314 17.3391 25.1603C19.4808 26.2804 21.6974 27.2614 23.9462 28.151L25.8474 28.8808L25.9202 28.9072L27.5647 29.5201L27.5711 30.1408L28.0505 30.4925C29.0878 31.253 30.2365 31.8922 31.3729 32.4865C32.8126 33.2406 34.2873 33.9262 35.7734 34.5818C36.2628 34.7959 36.7543 35.0085 37.2459 35.2168C37.9757 34.3129 39.1065 34.2116 40.3079 34.6261C40.6154 34.7309 40.9186 34.8444 41.2218 34.9557C42.1136 35.2874 43.0011 35.627 43.8872 35.9709C44.9573 36.3854 46.0267 36.7999 47.0847 37.2486C49.4854 38.2638 51.8697 39.4203 54.0535 40.85C55.4168 41.7439 56.7231 42.7591 57.8596 43.9341C59.9728 46.1201 61.2691 48.6378 61.583 51.6812C61.6094 51.9281 61.6272 52.1764 61.6394 52.4253C63.2125 51.5478 64.5252 50.2309 65.5646 48.769C67.6129 45.8889 70.5172 44.0326 74.0216 43.5111C74.1914 43.4847 74.3633 43.4647 74.5331 43.444C74.5352 43.3912 74.5353 43.3391 74.5374 43.2842L74.8506 41.5855C75.0026 41.1589 75.2109 40.7501 75.4756 40.382C75.4834 40.3699 75.4941 40.3599 75.502 40.3477L76.9602 38.3437L77.2777 38.5278L79.3644 39.7492L81.3199 41.903C81.4027 41.9922 81.4855 42.0792 81.5689 42.1677C81.8422 42.4531 82.1532 42.6978 82.4793 42.9197C82.8231 43.1544 83.1791 43.3705 83.5373 43.581C84.4633 42.6971 85.4806 41.9044 86.5344 41.1846C88.6904 39.7121 91.0525 38.5114 93.4325 37.4491C94.4819 36.9818 95.5435 36.5473 96.6058 36.1121C97.4855 35.7504 98.3673 35.3944 99.2512 35.0463C99.5523 34.9271 99.8541 34.8094 100.157 34.6981C101.352 34.2615 102.485 34.34 103.231 35.2303C103.719 35.0142 104.206 34.7916 104.692 34.5669C106.166 33.8855 107.626 33.1692 109.052 32.3888C110.178 31.7716 111.312 31.1124 112.334 30.3319L112.809 29.9717L112.803 29.3488L114.433 28.7075L114.506 28.6789L116.395 27.9127C118.626 26.9781 120.822 25.9572 122.943 24.7943C124.695 23.8341 126.381 22.7703 127.955 21.5383C129.227 20.543 130.387 19.4615 131.518 18.3086C132.519 17.2869 133.486 16.2339 134.477 15.2044C135.66 13.9766 136.869 12.7895 138.141 11.6552L140 10L139.887 12.4913C139.666 17.3911 139.197 20.5566 136.627 24.8614C136.358 25.3123 136.075 25.7532 135.776 26.1841C136.083 26.0307 136.389 25.8688 136.696 25.6947L139.015 24.3862L138.214 26.9261C136.904 31.0882 134.916 34.7038 132.239 37.8222L136.904 35.2418L131.758 43.6745L131.715 43.7294C131.078 44.5199 130.411 45.2782 129.713 46.0024L129.956 45.8854L125.909 52.9697C124.851 54.8239 123.488 56.4177 121.826 57.7461L121.001 60.4421C120.77 61.1984 120.337 61.9104 119.787 62.5674L120.064 62.4825L113.372 69.5041C112.561 70.3538 111.734 71.1806 110.787 71.8805C110.737 71.919 110.686 71.9554 110.635 71.9918L114.568 72.3456L107.555 76.3758C103.383 78.7743 97.0346 79.868 92.2539 79.6704L91.5198 79.6383C90.5524 80.2568 89.2561 80.742 87.887 81.1101Z" fill="#00A795"/>
<path d="M60.6332 72.8693C62.3076 76.206 65.1086 79.0597 67.9665 81.4097C68.6136 81.9013 69.2571 82.3964 69.8999 82.8944C70.3487 83.2425 70.796 83.59 71.239 83.9438C71.3967 84.0694 71.5522 84.1942 71.7063 84.3241C71.767 84.3769 71.8298 84.4289 71.8882 84.486C71.9368 84.5324 71.9831 84.5809 72.0259 84.6316C72.3513 85.0118 72.4747 85.5376 72.3377 86.027L71.834 87.8206L70.1882 86.9452C67.6947 85.6168 65.1992 84.1179 62.8998 82.4028L62.9604 82.7831L60.6675 80.6435L58.8982 80.5443C56.6937 80.4209 52.2162 79.8081 50.0809 78.322L50.0203 78.3263L49.0029 78.3869C44.4384 78.6637 38.2445 77.7299 34.2115 75.5132L30.0436 73.2217L34.3106 72.7566C33.1456 72.3842 32.0298 71.8791 30.9982 71.1449C30.0879 70.5 29.2895 69.7252 28.5069 68.9347L24.4946 64.8818L26.6178 65.4825C24.0922 64.1983 21.6024 62.4026 20.9596 60.4328L19.9807 57.44C18.3713 56.2529 16.9537 54.7561 15.8129 52.8455L13.3537 48.7241L17.7242 50.7103C18.3106 50.9771 18.9277 51.2282 19.5563 51.4644C15.8935 49.5616 12.5797 46.9812 9.73594 43.5796L6.599 38.6534L11.588 41.2902C12.7081 41.883 13.9059 42.4045 15.133 42.8718C9.28291 38.9737 5.31911 33.8349 3.10464 27.2421C5.25205 28.4007 5.63445 28.2858 7.75618 29.4623C8.13857 29.6727 8.51883 29.8868 8.89695 30.1015C7.22824 28.5748 5.75644 26.864 4.54932 24.9263C1.95602 20.7649 1.51155 17.7735 1.21191 13.1084C7.30743 18.3364 8.87055 21.9114 16.8545 26.0899C19.5099 27.4811 22.2801 28.6561 25.0147 29.6899V29.5729L25.3464 29.8154L25.5547 29.8925L26.5214 30.2528L26.5279 30.6794L27.4318 31.3429C28.5019 32.1255 29.7147 32.8047 30.8876 33.4197C32.3459 34.1823 33.8462 34.8815 35.353 35.545C36.1399 35.891 36.9303 36.2263 37.723 36.5559C37.7394 36.5009 37.7551 36.4489 37.7779 36.3939C38.2452 35.2146 39.1855 35.3502 39.9681 35.6213C40.2656 35.7226 40.5624 35.8318 40.8577 35.943C41.7438 36.2705 42.6271 36.6087 43.5088 36.9518C44.5669 37.3606 45.632 37.7751 46.6758 38.216C48.9102 39.1627 51.3166 40.3149 53.479 41.7311C54.8117 42.605 56.053 43.5774 57.1053 44.6654C59.0587 46.6837 60.2501 48.9831 60.5391 51.7897C60.7795 54.1233 60.3671 56.4591 59.9262 58.7442C59.4896 61.015 59.018 63.278 58.9838 65.6016C58.9467 68.1921 59.4668 70.5478 60.6332 72.8693Z" fill="#021F30"/>
<path d="M34.9343 74.198C37.1973 73.9511 43.5753 74.1794 46.3869 73.6258C46.9998 74.1295 47.7054 74.5682 48.4373 74.9442C46.3399 75.3423 44.2938 75.632 42.4695 75.6962C44.2738 75.7447 46.5503 75.5792 48.9453 75.2574L48.8682 75.5328C48.7912 75.8082 48.7669 76.0928 48.7955 76.3761C48.814 76.5559 48.854 76.7256 48.911 76.8876C44.7439 77.1401 38.7683 76.3047 34.9343 74.198ZM67.0342 82.5864C67.0342 82.5864 70.9153 85.5429 70.8924 85.6199C66.4899 83.2763 63.216 80.967 60.7932 78.704L60.7953 78.7118C60.6619 78.5884 60.5328 78.465 60.4051 78.3416L60.4029 78.3373H60.4008L60.3986 78.3351C60.2224 78.1653 60.0526 77.9977 59.8871 77.8279H59.8928C59.7837 77.7166 59.6724 77.6032 59.5675 77.4919H59.5632C59.3834 77.3021 59.2072 77.1116 59.0396 76.9218L59.0353 76.9176L59.0331 76.9154L58.9561 76.8284H58.9604C58.5173 76.3268 58.115 75.8274 57.7468 75.3316H57.7447C57.6156 75.1575 57.4921 74.9856 57.3723 74.8122L57.3701 74.8101C57.2831 74.6845 57.1982 74.559 57.1155 74.4341L57.0448 74.325H57.0505C56.9735 74.208 56.8972 74.0881 56.8244 73.969H56.8201C56.7088 73.7892 56.5997 73.6073 56.4983 73.4268L56.4962 73.4246V73.4232H56.4941C56.3849 73.2313 56.28 73.0372 56.1787 72.8446L56.183 72.8467C55.934 72.3716 55.7157 71.8986 55.5238 71.4313H55.5217L55.5017 71.3764L55.4995 71.3742C55.4082 71.1481 55.3233 70.9233 55.2449 70.7008V70.6986L55.2427 70.6943C55.2227 70.638 55.2042 70.5809 55.1842 70.5245L55.1885 70.5267C55.1357 70.3747 55.085 70.2235 55.0387 70.0715H55.0365L55.0244 70.0308V70.0266L55.0201 70.0187C54.9152 69.6691 54.8197 69.3188 54.7412 68.9714L54.7455 68.9735C54.2703 66.931 54.2197 64.9513 54.3509 63.0443V63.0464L54.3573 62.9515L54.3595 62.9351C54.3716 62.751 54.388 62.5691 54.4037 62.3851C54.4223 62.1789 54.4422 61.9706 54.4644 61.7665L54.4686 61.728V61.7201L54.4708 61.7159C54.4908 61.5154 54.5136 61.3192 54.5378 61.1216V61.1173L54.54 61.1152V61.1052L54.5564 60.9696H54.5585C55.242 55.4184 56.6938 50.5707 52.1336 46.7403C51.2197 45.9741 49.9477 45.1223 48.5379 44.2084L48.5301 44.2041V44.2019L48.5237 44.1998L48.3353 44.0785L48.3046 44.0585L48.2376 44.0143L48.1405 43.9515L48.0799 43.913L47.9444 43.8238L47.8516 43.7653L47.8459 43.761L47.7467 43.6961L47.6476 43.6333L47.6212 43.6148L47.5484 43.5684L47.4492 43.5035L47.3907 43.4671L47.3479 43.4386L47.2466 43.3737L47.1574 43.3173L47.1475 43.3095L47.0462 43.2445L46.9448 43.1796L46.9227 43.1653L46.8435 43.1125L46.7422 43.0476L46.6873 43.0134L46.6409 42.9813L46.5375 42.9164L46.4526 42.86L46.4362 42.85L46.424 42.8422L46.2343 42.7187L46.2157 42.7066L46.1308 42.6517L46.0295 42.5846L45.981 42.5525L45.9261 42.5183L45.8248 42.4512L45.7442 42.3963L45.7242 42.382L45.7021 42.3699L45.5244 42.2507L45.5201 42.2486L45.508 42.2407L45.4937 42.2307L45.3161 42.1137L45.2733 42.0831L45.2148 42.0445L45.0371 41.9275L45.0107 41.909L44.9094 41.8405L44.8081 41.772L44.8017 41.7677L44.7732 41.7478L44.6055 41.6343L44.5691 41.6101L44.5613 41.6036L44.3473 41.4581L44.3373 41.4503L44.3052 41.4281L44.109 41.2926L44.1047 41.2905V41.2883L44.0055 41.2198L43.9064 41.1513L43.8743 41.1292L43.8072 41.0807L43.6595 40.9773L43.6452 40.9673L43.611 40.9409L43.4433 40.8217L43.4191 40.8032L43.4148 40.801L43.3948 40.7846L43.2186 40.6569L43.1623 40.6163L42.9882 40.4886L42.9618 40.4686C42.8969 40.4222 42.8341 40.3737 42.7699 40.3252L42.7535 40.3131L42.7435 40.3066C42.6764 40.2538 42.6079 40.2032 42.5416 40.1532L42.5252 40.139L42.339 39.9977L42.3069 39.9713L42.2783 39.9513H42.2805C41.0205 38.9682 39.9226 37.9616 39.1699 36.9464C39.1014 36.8472 44.2781 38.8291 46.088 39.5954C74.8099 51.75 43.4034 63.1677 67.0342 82.5864ZM26.5458 32.5524C29.2676 34.5443 34.2244 36.773 38.4793 38.4838C39.2455 39.3756 40.1844 40.2167 41.1711 40.9972C38.154 40.1682 34.7238 39.1366 32.259 37.6363C34.7624 39.442 39.1164 41.2762 42.6357 42.0938C43.2386 42.5247 43.8393 42.9313 44.405 43.3095C45.6749 44.1591 46.9655 44.9717 48.2411 45.8072C49.0744 46.3515 49.9441 46.9237 50.7388 47.5444C44.1211 45.7337 26.62 39.865 26.5458 32.5524ZM28.1147 40.6819C32.2968 43.7618 47.8523 48.7772 52.5724 49.7988C52.7058 49.8516 52.8292 49.9144 52.9448 49.9828C53.2137 50.4701 53.4242 50.9959 53.5697 51.5766C53.604 51.7122 53.6347 51.852 53.6625 51.9911C49.3976 51.0409 44.5056 49.8694 40.9749 48.2478C44.1011 49.93 49.2321 51.6879 53.7702 52.7274C53.8251 53.2368 53.8387 53.7604 53.8266 54.2884C45.553 52.375 32.6934 48.3527 28.1147 40.6819ZM32.8689 48.4861C33.3762 50.3146 50.0062 54.8441 53.6118 55.9278C53.6482 55.9421 53.6803 55.9585 53.7131 55.9742C53.6689 56.4051 53.614 56.8296 53.5597 57.2441C49.1451 56.3302 44.5948 55.2522 41.0741 53.9238C44.1924 55.2886 48.8376 56.729 53.4748 57.8512L53.4242 58.2072C53.3857 58.4762 53.3471 58.7452 53.3086 59.012C46.7622 58.0981 34.8936 55.7602 32.8689 48.4861ZM35.749 55.5376C39.6822 57.2584 47.2844 60.1749 53.1531 60.1485V60.1506C53.0882 60.6336 53.0297 61.1152 52.979 61.5967C49.8021 61.2186 46.5967 60.7028 44.0184 59.8881C46.322 60.7777 49.5895 61.5846 52.9248 62.1511C52.8984 62.43 52.8763 62.7075 52.8563 62.9865C47.0112 62.3836 38.9102 61.3278 35.749 55.5376ZM39.8441 62.4764C44.9344 63.8476 48.819 64.4868 52.7892 64.7315C52.7871 65.0633 52.7935 65.395 52.8078 65.7303C50.1324 65.5462 47.5035 65.243 45.3011 64.703C47.3051 65.3301 50.0012 65.8516 52.832 66.2076C52.8442 66.4181 52.8627 66.6299 52.8806 66.8425C52.9027 67.0651 52.9269 67.2856 52.9555 67.506C48.6435 67.1779 42.0165 66.1569 39.8441 62.4764ZM43.25 67.6673C45.1513 68.5712 49.9562 68.711 53.1738 68.8202C53.2587 69.2325 53.3557 69.6413 53.467 70.0415C51.5072 69.983 49.6209 69.8354 47.9601 69.54C49.5153 69.9181 51.4687 70.2071 53.5719 70.3997C53.6789 70.7614 53.8002 71.1195 53.9321 71.4734C50.2209 71.4577 44.9629 70.6687 43.25 67.6673ZM46.362 71.4434C50.0226 72.5457 52.5966 72.8774 54.5122 72.8553C54.6941 73.2455 54.8924 73.6279 55.1029 74.0061C53.7417 74.0139 52.4354 73.9633 51.2382 73.832C52.3969 74.0339 53.7638 74.1737 55.2441 74.2565C55.481 74.6653 55.7314 75.0676 56.0004 75.4636C52.6801 75.3587 47.8866 73.6351 46.362 71.4434ZM50.502 75.9994C52.4111 76.5958 55.0686 76.6407 56.8722 76.6629C56.8822 76.6771 56.8922 76.6914 56.9029 76.7057C56.9214 76.7256 56.9371 76.7485 56.9557 76.7706C57.1904 77.0681 57.4329 77.3634 57.6833 77.6524C56.3928 77.7394 55.1514 77.7694 54.0071 77.7173C55.1357 77.8386 56.4584 77.8914 57.8838 77.8814C58.2355 78.2781 58.6015 78.6662 58.9796 79.0464C56.2094 78.8909 51.6064 78.0391 50.5184 76.7228L50.5141 76.7185V76.7164C50.415 76.5951 50.3443 76.4695 50.3101 76.3404C50.2958 76.2876 50.288 76.2355 50.2858 76.1827V76.1806C50.2815 76.1014 50.2901 76.0208 50.3144 75.9402H50.3186L50.3229 75.9423L50.3272 75.9444L50.3978 75.9666L50.4021 75.9687L50.4064 75.9708H50.4107L50.4956 75.9994H50.4977H50.4999H50.502ZM2.92285 16.4932H2.92713C6.87452 22.0829 13.2568 26.9163 25.0327 31.2982L25.0448 32.566C25.0512 33.2173 25.1461 33.8437 25.318 34.4466C20.9904 32.424 15.4428 29.8763 11.8393 27.1318C15.0183 29.8842 20.9176 33.35 25.6155 35.3077C26.1128 36.5169 26.904 37.6249 27.8664 38.6344L24.6952 37.4415C15.0889 33.6668 5.0082 28.1819 2.92285 16.4932ZM5.62103 30.1075C6.0177 29.8849 16.7926 36.9835 26.0586 40.1661L26.8248 41.4503C27.1159 41.9354 27.4333 42.407 27.7794 42.8636C23.6293 41.5366 18.8872 39.9349 15.5305 38.0101C18.6532 40.0705 23.9861 42.4191 28.5848 43.8502C29.6221 45.0331 30.8435 46.1211 32.1926 47.1163L31.3208 47.3589C20.1999 45.23 11.9627 41.167 5.62103 30.1075ZM10.8868 42.6153C16.5793 45.6267 25.8217 47.5294 31.2373 48.5103C31.2659 48.5168 31.2937 48.5203 31.3222 48.5267L31.4235 48.8884C31.6704 49.7745 32.0342 50.5914 32.4994 51.3476C28.4571 50.5971 24.0039 49.6632 20.6915 48.2977C23.7414 49.7838 28.6226 51.2684 33.0437 52.1481C33.2763 52.4577 33.5253 52.7545 33.79 53.042L34.7345 54.1971C25.4472 53.2625 17.0244 49.9586 10.8868 42.6153ZM17.1015 52.0739C17.1015 52.0739 25.6541 55.9692 34.0261 55.7224C34.0646 55.7224 34.1032 55.7224 34.1417 55.7245L34.4328 56.2581C34.8309 56.9858 35.2903 57.6458 35.804 58.2458C32.0827 58.0196 28.1539 57.6493 25.0776 56.826C27.9698 57.797 32.3296 58.5754 36.4489 58.9392C37.0496 59.5356 37.7067 60.0657 38.4108 60.5351L39.359 61.2429C31.599 60.2298 21.6796 59.7482 17.1015 52.0739ZM22.3837 59.9644C27.2193 61.9242 33.1243 62.664 37.9393 62.201C38.6327 63.376 39.0779 64.0067 39.5067 64.4961C36.2527 64.6823 32.9339 64.7408 30.2021 64.3791C32.7869 64.8863 36.4368 65.1111 40.0446 65.0526C40.5261 65.5156 41.0962 66.0007 42.0322 66.9817C38.1754 67.1957 34.2137 66.5729 31.3001 65.7524C28.1247 64.8564 23.1357 62.2659 22.3837 59.9644ZM38.4265 72.1126C33.3341 71.3485 31.9144 70.2442 29.5729 67.8777C33.1243 68.8829 38.8453 68.4199 41.9915 68.5027L41.9994 68.5048C42.3268 69.0527 42.7413 69.5122 43.1922 69.9324C40.8928 70.2984 38.6398 70.5495 36.6601 70.5452C38.5749 70.6708 41.0341 70.5695 43.6089 70.3048C44.3572 70.9476 45.1599 71.5362 45.8169 72.2789C42.9989 72.6341 38.4265 72.1126 38.4265 72.1126Z" fill="white"/>
<path d="M50.3127 75.9391C50.3127 75.9391 50.4526 76.9685 53.1015 77.7027C55.7505 78.4368 57.3971 78.3818 57.3971 78.3818C57.3971 78.3818 57.2052 78.1714 57.2052 78.0258C57.2073 77.9695 56.7257 77.9103 56.1393 77.8603C56.6972 77.8789 57.2801 77.8846 57.8822 77.8803C58.2339 78.277 58.5999 78.6651 58.978 79.0453C56.2078 78.8898 51.6048 78.038 50.5168 76.7217L50.5125 76.7174V76.7153C50.4133 76.594 50.3427 76.4684 50.3085 76.3393C50.2942 76.2865 50.2863 76.2344 50.2842 76.1816V76.1795C50.2799 76.1067 50.2885 76.0297 50.3085 75.9533V75.9491L50.3106 75.9448V75.9426L50.3127 75.9391ZM54.0054 77.7169L56.7357 77.4579L56.2891 76.6553C56.491 76.6596 56.6858 76.6618 56.8713 76.6632C56.8813 76.6775 56.8912 76.6917 56.9019 76.706C56.9205 76.726 56.9362 76.7488 56.9547 76.7709C57.1895 77.0684 57.432 77.3638 57.6824 77.6527C56.3961 77.7398 55.1583 77.7683 54.014 77.7176H54.0076H54.0054V77.7169ZM46.3611 71.4438C46.3611 71.4438 48.9294 73.5833 50.7494 74.077C52.5672 74.5721 54.9436 74.8133 54.9436 74.8133L54.8466 74.3845L52.1591 73.9743C53.0972 74.102 54.1388 74.1969 55.2432 74.2575C55.4801 74.6663 55.7305 75.0687 55.9995 75.4646C52.6792 75.359 47.8857 73.6354 46.3611 71.4438ZM51.3137 73.8459L51.3115 73.8437L51.3137 73.8459ZM51.3401 73.8437C51.6311 73.8273 53.9512 73.7082 54.1588 73.6597C54.3229 73.6211 54.1303 73.1153 54.0211 72.8528C54.1888 72.8571 54.3507 72.8571 54.5105 72.8549C54.6925 73.2452 54.8908 73.6276 55.1013 74.0057C53.7793 74.0142 52.5087 73.9672 51.3401 73.8437ZM43.2491 67.6676C43.2491 67.6676 45.0812 69.6231 47.611 70.2481C50.1429 70.8752 53.0409 71.0207 53.0409 71.0207L52.901 70.6205C52.901 70.6205 50.6445 70.3437 49.1677 69.9613C47.6916 69.581 47.0966 69.2193 47.0966 69.2193C47.0966 69.2193 50.4882 69.5896 51.4927 69.6845C52.498 69.7772 52.6492 69.713 52.6492 69.713L52.4509 68.7969L53.1707 68.8212C53.2556 69.2336 53.3526 69.6424 53.4639 70.0426C51.5042 69.9841 49.6179 69.8364 47.957 69.5411C49.5123 69.9192 51.4656 70.2081 53.5688 70.4007C53.6758 70.7624 53.7971 71.1206 53.9291 71.4744C50.22 71.458 44.962 70.669 43.2491 67.6676ZM39.8432 62.4767C39.8432 62.4767 41.6368 64.5192 45.9587 65.7813C50.2806 67.0433 52.2397 67.0676 52.2397 67.0676L52.147 66.5275C52.147 66.5275 48.4742 65.8904 46.8826 65.3711C45.2909 64.8496 44.8079 64.4993 44.8079 64.4993C44.8079 64.4993 48.0904 65.1784 49.2754 65.2412C50.4604 65.3062 51.6176 65.3183 51.6176 65.3183L51.664 64.6527C52.0399 64.6833 52.4145 64.709 52.7883 64.7318C52.7862 65.0636 52.7926 65.3953 52.8069 65.7306C50.1315 65.5466 47.5025 65.2434 45.3002 64.7033C47.3042 65.3304 50.0003 65.8519 52.8311 66.2079C52.8433 66.4184 52.8618 66.6303 52.8796 66.8429C52.9018 67.0655 52.926 67.2859 52.9546 67.5064C48.6426 67.1782 42.0156 66.1573 39.8432 62.4767ZM35.7545 55.5486C35.8594 55.7284 37.603 58.6385 41.7994 60.0946C46.1292 61.5992 51.8987 62.5216 51.8987 62.5216L51.8887 62.2955C51.8887 62.2955 49.6621 62.1014 47.3463 61.2396C46.1171 60.7823 45.2146 60.3864 44.6367 60.1174C46.8854 60.9164 49.8768 61.6341 52.9239 62.1521C52.8975 62.431 52.8754 62.7086 52.8554 62.9875C47.0124 62.3854 38.9172 61.3281 35.7545 55.5486ZM44.4013 60.0054C44.0453 59.8335 43.8676 59.7364 43.8676 59.7364C43.8676 59.7364 49.2205 60.9821 50.5146 61.0712C51.8088 61.1626 51.9871 61.1462 51.9871 61.1462L52.1227 60.1252C52.4709 60.1438 52.814 60.1516 53.1522 60.1495V60.1516C53.0873 60.6346 53.0288 61.1162 52.9781 61.5978C49.9567 61.2368 46.909 60.7538 44.4013 60.0054ZM32.9572 48.6583C33.3432 49.3482 35.1167 52.0271 40.5309 54.7068C46.8141 57.8152 52.2846 58.3588 52.2846 58.3588L52.2261 57.95C52.2261 57.95 51.0775 57.8587 47.3484 56.6216C43.6194 55.3838 40.2013 53.596 40.2013 53.596C40.2013 53.596 44.6809 54.5505 47.6673 55.4609C50.6545 56.3712 52.4338 56.6038 52.4338 56.6038L52.5772 55.625C52.9874 55.7441 53.3377 55.8454 53.6102 55.9282C53.6466 55.9424 53.6787 55.9588 53.7115 55.9745C53.6673 56.4054 53.6123 56.8299 53.5581 57.2444C49.1434 56.3305 44.5932 55.2525 41.0724 53.9241C44.1908 55.2889 48.8359 56.7293 53.4732 57.8516L53.4226 58.2076C53.384 58.4765 53.3455 58.7455 53.307 59.0123C46.7606 58.0984 34.892 55.7605 32.8673 48.4864C32.8823 48.5406 32.913 48.5977 32.9572 48.6583ZM28.1137 40.6822C28.1137 40.6822 32.7025 45.2767 38.5647 48.2781C44.4255 51.2773 52.3731 53.4126 52.3731 53.4126L52.4359 52.7434C52.4359 52.7434 49.7078 52.2604 46.0093 50.8807C42.3109 49.5009 39.5093 47.4669 39.5093 47.4669C39.5093 47.4669 43.1613 48.3266 47.158 49.6043C51.156 50.8842 51.955 50.9591 51.955 50.9591C51.955 50.9591 51.9229 50.1202 51.8823 49.6386C52.1334 49.6992 52.3638 49.7542 52.5722 49.7984C52.7056 49.8512 52.829 49.914 52.9446 49.9825C53.2135 50.4697 53.424 50.9955 53.5695 51.5763C53.6038 51.7118 53.6345 51.8516 53.6623 51.9908C49.3974 51.0405 44.5054 49.869 40.9747 48.2474C44.1009 49.9297 49.2319 51.6876 53.77 52.727C53.8249 53.2364 53.8385 53.7601 53.8264 54.288C45.552 52.3753 32.6925 48.353 28.1137 40.6822ZM26.5449 32.5527C26.5449 32.5527 27.1435 35.3251 33.2026 39.3075C39.2618 43.2912 43.8762 44.1794 43.8762 44.1794L42.4907 42.8247C42.4907 42.8247 39.8068 42.2824 36.8361 40.6829C33.8675 39.0813 30.6357 36.8468 30.6357 36.8468C30.6357 36.8468 32.3201 37.3912 34.9555 38.1232C37.5888 38.8551 37.9341 38.9522 37.9341 38.9522L37.3762 38.0361C37.7486 38.1895 38.116 38.3393 38.4784 38.4849C39.2446 39.3767 40.1835 40.2178 41.1702 40.9983C38.1531 40.1693 34.7229 39.1377 32.258 37.6373C34.7615 39.443 39.1155 41.2772 42.6348 42.0948C43.2377 42.5257 43.8384 42.9324 44.4041 43.3105C45.674 44.1602 46.9646 44.9728 48.2402 45.8082C49.0735 46.3525 49.9432 46.9247 50.7379 47.5454C44.1202 45.734 26.6191 39.8654 26.5449 32.5527ZM43.172 38.4292C46.05 43.4525 55.0791 43.2891 55.8946 51.4935C56.471 57.3079 54.2787 62.1186 55.1947 67.0655C56.1108 72.0102 59.5024 76.9828 61.7104 79.1366C63.9185 81.2862 70.4956 85.4055 70.5056 85.4119C66.2971 83.139 63.1444 80.9002 60.7923 78.7043L60.7944 78.7122C60.661 78.5887 60.5319 78.4653 60.4042 78.3419L60.402 78.3376H60.3999L60.3977 78.3355C60.2215 78.1657 60.0517 77.998 59.8862 77.8282H59.8919C59.7828 77.7169 59.6715 77.6035 59.5666 77.4922H59.5623C59.3825 77.3024 59.2063 77.1119 59.0387 76.9222L59.0344 76.9179L59.0322 76.9157L58.9552 76.8287H58.9595C58.5164 76.3272 58.1141 75.8278 57.7459 75.3319H57.7438C57.6147 75.1579 57.4912 74.9859 57.3714 74.8126L57.3692 74.8104C57.2822 74.6849 57.1973 74.5593 57.1145 74.4344L57.0439 74.3253H57.0496C56.9726 74.2083 56.8962 74.0884 56.8235 73.9693H56.8192C56.7079 73.7895 56.5987 73.6076 56.4974 73.4271L56.4953 73.4249V73.4235H56.4932C56.384 73.2316 56.2791 73.0376 56.1778 72.8449L56.1821 72.8471C55.9331 72.3719 55.7148 71.8989 55.5229 71.4316H55.5208L55.5008 71.3767L55.4986 71.3746C55.4073 71.1484 55.3224 70.9237 55.2439 70.7011V70.6989L55.2418 70.6947C55.2218 70.6383 55.2033 70.5812 55.1833 70.5249L55.1876 70.527C55.1348 70.375 55.0841 70.2238 55.0378 70.0718H55.0356L55.0235 70.0312V70.0269L55.0192 70.0191C54.9143 69.6695 54.8187 69.3192 54.7403 68.9717L54.7445 68.9739C54.2694 66.9313 54.2187 64.9516 54.35 63.0446V63.0467L54.3564 62.9518L54.3586 62.9354C54.3707 62.7514 54.3871 62.5694 54.4028 62.3854C54.4214 62.1792 54.4413 61.9709 54.4635 61.7668L54.4677 61.7283V61.7205L54.4699 61.7162C54.4898 61.5157 54.5127 61.3195 54.5369 61.1219V61.1176L54.5391 61.1155V61.1055L54.5555 60.9699H54.5576C55.2411 55.4188 56.6929 50.571 52.1327 46.7406C51.2188 45.9744 49.9467 45.1226 48.537 44.2087L48.5292 44.2044V44.2023L48.5227 44.2001L48.3344 44.0789L48.3037 44.0589L48.2367 44.0146L48.1396 43.9519L48.079 43.9133L47.9434 43.8242L47.8507 43.7657L47.845 43.7614L47.7458 43.6965L47.6467 43.6337L47.6203 43.6151L47.5475 43.5688L47.4483 43.5038L47.3898 43.4674L47.347 43.4389L47.2457 43.374L47.1565 43.3176L47.1465 43.3098L47.0452 43.2449L46.9439 43.1799L46.9218 43.1657L46.8426 43.1129L46.7413 43.048L46.6864 43.0137L46.64 42.9816L46.5366 42.9167L46.4517 42.8603L46.4353 42.8503L46.4231 42.8425L46.2334 42.7191L46.2148 42.7069L46.1299 42.652L46.0286 42.5849L45.9801 42.5528L45.9252 42.5186L45.8239 42.4515L45.7432 42.3966L45.7233 42.3823L45.7011 42.3702L45.5235 42.2511L45.5192 42.2489L45.5071 42.2411L45.4928 42.2311L45.3152 42.1141L45.2724 42.0834L45.2139 42.0449L45.0362 41.9279L45.0098 41.9093L44.9085 41.8408L44.8072 41.7723L44.8008 41.7681L44.7723 41.7481L44.6046 41.6347L44.5682 41.6104L44.5604 41.604L44.3463 41.4584L44.3364 41.4506L44.3043 41.4285L44.1081 41.2929L44.1038 41.2908V41.2886L44.0046 41.2202L43.9055 41.1517L43.8733 41.1295L43.8063 41.081L43.6586 40.9776L43.6443 40.9676L43.6101 40.9412L43.4424 40.8221L43.4182 40.8035L43.4139 40.8014L43.3939 40.785L43.2177 40.6573L43.1613 40.6166L42.9873 40.4889L42.9609 40.4689C42.896 40.4225 42.8332 40.374 42.769 40.3255L42.7526 40.3134L42.7426 40.307C42.6755 40.2542 42.607 40.2035 42.5407 40.1536L42.5243 40.1393L42.338 39.9981L42.3059 39.9717L42.2774 39.9517H42.2795C41.0196 38.9686 39.9217 37.9619 39.169 36.9467C39.1276 36.8861 41.1923 37.6609 43.172 38.4292Z" fill="#EBEBEB"/>
<path d="M45.6036 73.7485C45.8868 73.7121 46.1494 73.6715 46.3862 73.6251C46.9991 74.1288 47.7046 74.5675 48.4366 74.9435C46.3391 75.3416 44.293 75.6312 42.4688 75.6955C42.4688 75.6955 46.3884 75.1675 46.7301 74.9735C46.9969 74.8222 46.0245 74.0275 45.6036 73.7485ZM42.4695 75.6962C44.2738 75.7447 46.5503 75.5792 48.9453 75.2574L48.8682 75.5328C48.7912 75.8082 48.7669 76.0928 48.7955 76.3761C48.814 76.5559 48.854 76.7256 48.911 76.8876C44.9637 77.128 39.3861 76.3882 35.5514 74.5154C35.169 74.3193 34.9343 74.198 34.9343 74.198C34.9343 74.198 40.7202 76.2569 43.3998 76.3333C46.0795 76.4103 48.2875 75.846 48.2875 75.846C48.2875 75.846 45.7877 75.9145 44.3423 75.8924C42.8961 75.8681 42.4695 75.6962 42.4695 75.6962ZM29.5729 67.8777C29.5729 67.8777 31.9372 70.1022 35.8361 71.081C39.7328 72.062 43.8179 71.5626 43.8179 71.5626L43.0517 70.8142C43.0517 70.8142 40.5682 70.8691 39.2677 70.8584C37.9649 70.8484 36.6608 70.5452 36.6608 70.5452C38.5756 70.6708 41.0348 70.5695 43.6096 70.3048C44.358 70.9476 45.1606 71.5362 45.8176 72.2789C42.9989 72.6349 38.4258 72.1133 38.4258 72.1133C33.3341 71.3485 31.9151 70.2442 29.5729 67.8777ZM36.6608 70.5452C36.6608 70.5452 40.5682 70.1935 41.2674 69.9524C41.9651 69.7141 41.983 69.6998 41.983 69.6998L41.1354 68.4927C41.4365 68.4927 41.724 68.497 41.9908 68.5027L41.9987 68.5048C42.3261 69.0527 42.7406 69.5122 43.1915 69.9324C40.8936 70.2984 38.6413 70.5495 36.6608 70.5452ZM22.948 60.9618L22.3837 59.9651C22.3837 59.9651 26.1691 63.7327 30.6552 64.9605C35.1405 66.1898 39.1549 66.087 39.1549 66.087L39.1264 65.375C39.1264 65.375 36.9726 65.527 33.9797 65.1952C32.2911 65.009 31.0675 64.6652 30.3213 64.4026C32.8975 64.8963 36.491 65.1125 40.0446 65.054C40.5261 65.517 41.0962 66.0021 42.0322 66.9831C38.1754 67.1971 34.2137 66.5743 31.3001 65.7539C28.5777 64.9841 24.5233 62.9715 22.948 60.9618ZM30.2885 64.3898C29.7341 64.1936 29.4531 64.0416 29.4531 64.0416C29.4531 64.0416 31.2773 64.327 33.9912 64.1972C36.7072 64.068 37.8636 63.9203 37.8636 63.9203C37.8636 63.9203 37.5925 63.3803 37.3621 62.7639C37.2829 62.5534 37.2265 62.39 37.1859 62.2623C37.4384 62.2459 37.6896 62.226 37.9378 62.2017C38.6313 63.3767 39.0765 64.0074 39.5052 64.4968C36.287 64.6809 33.0031 64.7394 30.2885 64.3898ZM17.1015 52.0739C17.1015 52.0739 19.5971 55.9628 25.3887 58.0438C31.1803 60.1249 36.3276 60.1064 36.3276 60.1064L35.7269 59.2931C35.7269 59.2931 34.0404 59.2788 30.2992 58.5226C26.5558 57.7685 24.3214 56.5592 24.3214 56.5592C24.3214 56.5592 26.904 56.9958 29.7941 57.2206C32.6863 57.4467 34.3279 57.4246 34.3279 57.4246C34.3279 57.4246 33.6908 56.169 33.434 55.7316C33.6323 55.7316 33.8285 55.7274 34.0268 55.7216C34.0654 55.7216 34.1039 55.7216 34.1424 55.7238L34.4335 56.2574C34.8316 56.9851 35.291 57.645 35.8047 58.245C32.0835 58.0189 28.1546 57.6486 25.0783 56.8253C27.9706 57.7963 32.3303 58.5746 36.4496 58.9385C37.0503 59.5349 37.7074 60.065 38.4115 60.5344L39.3597 61.2421C31.599 60.2298 21.6796 59.7482 17.1015 52.0739ZM10.8868 42.6153C10.8868 42.6153 14.9798 46.7953 19.9588 49.2609C24.9399 51.7257 32.2119 53.0891 32.2119 53.0891L31.7168 52.2052C31.7168 52.2052 30.0445 51.8556 26.0971 50.7105C22.1518 49.5641 19.6377 47.9118 19.6377 47.9118C19.6377 47.9118 22.3737 48.9106 26.1798 49.4956C29.986 50.0799 30.7807 50.1869 30.7807 50.1869L30.2749 48.3341C30.6067 48.3969 30.9284 48.4554 31.2373 48.5103C31.2659 48.5168 31.2937 48.5203 31.3222 48.5267L31.4235 48.8884C31.6704 49.7745 32.0342 50.5914 32.4994 51.3476C28.4571 50.5971 24.0039 49.6632 20.6915 48.2977C23.7414 49.7838 28.6226 51.2684 33.0437 52.1481C33.2763 52.4577 33.5253 52.7545 33.79 53.042L34.7345 54.1971C25.4472 53.2625 17.0244 49.9586 10.8868 42.6153ZM5.62103 30.1075C5.62103 30.1075 9.71396 36.8051 16.839 40.7611C23.9618 44.717 28.8816 45.7601 28.8816 45.7601L27.3848 44.2355C27.3848 44.2355 25.069 43.2124 20.8891 41.4652C16.7113 39.7202 14.7493 37.6677 14.7493 37.6677C14.7493 37.6677 15.059 37.8111 15.5683 38.0379C18.6967 40.0926 24.0032 42.4262 28.5841 43.8524C29.6214 45.0352 30.8428 46.1232 32.1919 47.1184L31.3201 47.361C20.1999 45.23 11.9627 41.167 5.62103 30.1075ZM15.5969 38.0486C16.8932 38.6187 19.4415 39.6931 21.579 40.3074C24.5861 41.1706 25.6883 41.436 25.6883 41.436L25.1703 39.8508C25.4678 39.9599 25.7632 40.0648 26.0579 40.1661L26.8241 41.4503C27.1152 41.9354 27.4326 42.407 27.7786 42.8636C23.6579 41.5451 18.95 39.9578 15.5969 38.0486ZM2.92285 16.4974L2.92713 16.4932C2.92713 16.4932 5.76443 25.1385 13.8333 30.3401C21.9 35.5438 24.3692 35.9704 24.3692 35.9704L24.183 35.2142C24.183 35.2142 19.4529 32.8356 16.4737 30.9772C13.4965 29.1187 11.25 27.0076 11.25 27.0076C11.25 27.0076 11.6359 27.1917 12.2609 27.4892C15.5191 30.1788 21.1167 33.437 25.6141 35.3098C26.1114 36.5191 26.9026 37.627 27.865 38.6365L24.6938 37.4437C15.0889 33.6668 5.01034 28.1819 2.92285 16.4974ZM12.4343 27.5713C14.3477 28.4816 18.1353 30.2751 20.3718 31.2804C23.4596 32.668 23.8098 32.7001 23.8098 32.7001L23.4096 30.6775C23.9375 30.8858 24.4798 31.092 25.0334 31.2982L25.0455 32.566C25.0519 33.2173 25.1468 33.8437 25.3187 34.4466C21.2208 32.5324 16.0335 30.1474 12.4343 27.5713Z" fill="#EBEBEB"/>
<path d="M80.5663 73.3251C78.9547 76.6924 76.208 79.5982 73.3971 82.0025C72.76 82.5083 72.125 83.0155 71.4922 83.5249C71.0513 83.8788 70.6104 84.2369 70.1738 84.5986C70.0204 84.7263 69.8642 84.8555 69.7151 84.9867C69.6544 85.0417 69.5938 85.0959 69.5353 85.1522C69.4889 85.2008 69.4426 85.2493 69.3997 85.2999C69.0823 85.688 68.9688 86.216 69.1144 86.7011L69.6544 88.4847L71.2825 87.5786C73.7517 86.2031 76.2173 84.6564 78.4838 82.8971L78.431 83.2795L80.6819 81.0971L82.449 80.9637C84.6514 80.7982 89.1167 80.1019 91.222 78.573L91.2827 78.5752L92.3022 78.618C96.8702 78.8077 103.045 77.7561 107.034 75.4632L111.16 73.0932L106.883 72.7087C108.042 72.3141 109.148 71.7862 110.166 71.0342C111.062 70.3729 111.847 69.5824 112.615 68.7777L116.55 64.6505L114.437 65.2919C116.938 63.9571 119.394 62.115 119.998 60.1331L120.921 57.1217C122.508 55.9046 123.896 54.3814 124.999 52.448L127.379 48.2824L123.049 50.3513C122.467 50.6281 121.857 50.8914 121.232 51.1403C124.856 49.1684 128.122 46.5252 130.899 43.0715L133.942 38.0846L129.004 40.8171C127.896 41.432 126.706 41.9757 125.489 42.4651C131.262 38.457 135.127 33.2455 137.214 26.612C135.091 27.8091 134.706 27.7021 132.607 28.9192C132.231 29.1375 131.855 29.358 131.479 29.5806C133.117 28.021 134.556 26.2824 135.728 24.3226C138.241 20.112 138.63 17.1135 138.84 12.4434C132.844 17.7862 131.35 21.3897 123.449 25.7195C120.82 27.1592 118.072 28.3892 115.358 29.475L115.356 29.3559L115.028 29.6063L114.822 29.6869L113.862 30.065L113.866 30.4916L112.972 31.1708C111.919 31.9734 110.719 32.6754 109.556 33.3125C108.112 34.103 106.628 34.8314 105.134 35.5227C104.356 35.8844 103.571 36.2369 102.784 36.5807C102.767 36.5258 102.747 36.4716 102.727 36.4188C102.236 35.2502 101.3 35.4014 100.521 35.6868C100.225 35.796 99.9301 35.9115 99.6369 36.0264C98.7573 36.3703 97.8819 36.7263 97.0058 37.0858C95.9563 37.5146 94.8983 37.9491 93.8632 38.4107C91.6465 39.3995 89.2644 40.5966 87.1291 42.0527C85.8128 42.9523 84.5915 43.9497 83.5598 45.0555C81.6464 47.1123 80.4978 49.4317 80.2617 52.2447C80.0676 54.5826 80.5228 56.9105 81.0058 59.1849C81.4873 61.4479 82.0024 63.7009 82.0795 66.0246C82.1644 68.6172 81.6871 70.9814 80.5663 73.3251Z" fill="#021F30"/>
<path d="M106.285 74.1645C104.018 73.9604 97.644 74.31 94.8245 73.8106C94.2217 74.3243 93.5218 74.7773 92.7984 75.1676C94.9037 75.5257 96.9562 75.7761 98.7805 75.8068C96.9769 75.8895 94.6975 75.7661 92.2969 75.4914L92.3796 75.7647C92.4602 76.0379 92.493 76.3226 92.4688 76.608C92.4524 76.7856 92.416 76.9575 92.3618 77.1216C96.5318 77.2929 102.491 76.3447 106.285 74.1645ZM74.3506 83.1636C74.3506 83.1636 70.5266 86.1907 70.5509 86.2678C74.9092 83.8407 78.1368 81.4685 80.5168 79.1613L80.5146 79.1692C80.6437 79.0415 80.7714 78.9166 80.897 78.791L80.9013 78.7889L80.9034 78.7846C81.0754 78.6127 81.243 78.4408 81.405 78.2688H81.4007C81.5077 78.1532 81.6147 78.0405 81.7182 77.9249H81.7224C81.9001 77.733 82.0706 77.539 82.2361 77.3442L82.2404 77.3399L82.2425 77.3378L82.3174 77.2508H82.3132C82.7462 76.7414 83.1386 76.2334 83.496 75.7297L83.5003 75.7319C83.6259 75.5557 83.7471 75.3802 83.862 75.2039H83.8642C83.9469 75.0762 84.0297 74.9492 84.111 74.8215L84.1795 74.7124H84.1752C84.248 74.5911 84.3229 74.472 84.3935 74.3507H84.3978C84.5048 74.1688 84.6104 73.9847 84.7096 73.8028L84.7117 73.8006V73.7985C84.8187 73.6044 84.92 73.4082 85.0171 73.2142L85.0128 73.2163C85.2511 72.7369 85.4615 72.2596 85.6456 71.7888L85.6677 71.7338V71.7317V71.7295C85.7547 71.5034 85.8354 71.2787 85.9103 71.0518L85.9124 71.0475C85.9309 70.989 85.9488 70.9319 85.9673 70.8756L85.9652 70.8777C86.0137 70.7243 86.0622 70.5724 86.105 70.4204H86.1072L86.1171 70.3776L86.1193 70.3755L86.1214 70.3676C86.2227 70.0138 86.3076 69.6642 86.3826 69.3139L86.3783 69.316C86.8149 67.2656 86.8249 65.2837 86.6572 63.3803L86.6594 63.3825L86.6515 63.2854L86.6494 63.2712C86.633 63.0871 86.613 62.9052 86.5944 62.7233H86.5923C86.5702 62.5149 86.5459 62.3088 86.5217 62.1026L86.5152 62.0662V62.0583V62.0541C86.4889 61.8557 86.4625 61.6574 86.4346 61.4612V61.4569V61.4548L86.4325 61.4448L86.4139 61.3071V61.3092C85.6235 55.7723 84.0782 50.9531 88.5656 47.0379C89.4653 46.2531 90.7216 45.3777 92.1128 44.4353L92.1206 44.431L92.1271 44.4267L92.3111 44.3011L92.3418 44.2812L92.4089 44.2369L92.5037 44.172L92.5644 44.1314L92.6978 44.0422L92.7905 43.9794L92.7948 43.9751L92.894 43.9102L92.991 43.8431L93.0174 43.8267L93.0902 43.7782L93.1893 43.7111L93.2457 43.6726L93.2864 43.6441L93.3855 43.577L93.4747 43.5164L93.4869 43.5107L93.586 43.4436L93.6852 43.3765L93.7073 43.3623L93.7844 43.3073L93.8857 43.2403L93.9384 43.2039L93.9848 43.1718L94.0861 43.1047L94.171 43.0462L94.1874 43.0362L94.1996 43.0284L94.3879 42.9007L94.4043 42.8886L94.4892 42.8322L94.5905 42.7637L94.6369 42.7316L94.6897 42.6952L94.791 42.6267L94.8716 42.5718L94.8916 42.5575L94.9116 42.5433L95.0878 42.422L95.0921 42.4177L95.1042 42.4099L95.1185 42.402L95.2947 42.2786L95.3375 42.25L95.3938 42.2094L95.5701 42.086L95.5964 42.0695L95.6956 41.9989L95.7948 41.9283L95.8012 41.924L95.8319 41.904L95.996 41.787L96.0324 41.7606L96.0381 41.7564L96.2507 41.6044L96.2628 41.5965L96.2935 41.5744L96.4875 41.4346L96.4897 41.4325H96.4918L96.5888 41.3618L96.6859 41.2891L96.718 41.2669L96.785 41.2184L96.9306 41.1114L96.9448 41.1014L96.9791 41.075L97.1432 40.9516L97.1674 40.9331L97.1717 40.9309L97.1917 40.9145L97.3658 40.7832L97.4221 40.7404L97.5919 40.6092L97.6183 40.5906C97.6811 40.54 97.7439 40.4914 97.8081 40.4429L97.8245 40.4287L97.8323 40.423C97.8994 40.3702 97.9657 40.3181 98.0328 40.2653L98.0492 40.2532L98.2311 40.1055L98.2654 40.0791L98.2918 40.0591C99.5317 39.0539 100.611 38.0244 101.343 36.9957C101.41 36.8965 96.2714 38.9754 94.4757 39.7766C65.9907 52.4813 97.6076 63.2968 74.3506 83.1636ZM113.879 32.3655C111.195 34.4102 106.281 36.7338 102.06 38.5252C101.31 39.4313 100.388 40.291 99.4169 41.0872C102.418 40.2011 105.826 39.1074 108.263 37.5586C105.793 39.4113 101.476 41.3304 97.975 42.2122C97.3786 42.6553 96.7879 43.0741 96.2278 43.4622C94.9743 44.334 93.7002 45.173 92.4403 46.0326C91.617 46.5927 90.758 47.1813 89.9768 47.8162C96.5582 45.8807 113.944 39.6803 113.879 32.3655ZM112.465 40.5257C108.342 43.6847 92.8833 48.9948 88.1854 50.1056C88.0541 50.1619 87.9307 50.2269 87.8173 50.2975C87.5561 50.7891 87.3564 51.3184 87.2208 51.9013C87.1901 52.039 87.1623 52.1781 87.1381 52.3179C91.383 51.2863 96.2528 50.0228 99.7514 48.3341C96.6573 50.0756 91.5613 51.9298 87.0432 53.0563C87.0004 53.5657 86.9947 54.0915 87.0168 54.6194C95.2512 52.5484 108.032 48.2814 112.465 40.5257ZM107.86 48.419C107.387 50.2554 90.8465 55.101 87.2608 56.2532C87.2265 56.2696 87.1937 56.2853 87.1616 56.3038C87.2144 56.7326 87.2772 57.155 87.3393 57.5695C91.7354 56.5728 96.2656 55.4056 99.7579 54.0123C96.6659 55.4342 92.0507 56.9652 87.4363 58.1744L87.4948 58.5283C87.5376 58.7973 87.5818 59.0641 87.6239 59.3309C94.151 58.2936 105.974 55.7295 107.86 48.419ZM105.114 55.5248C101.215 57.3183 93.6702 60.3782 87.8037 60.4653C87.8743 60.9482 87.9435 61.4298 88.0042 61.9092C91.1732 61.4705 94.3686 60.894 96.9306 60.0286C94.6455 60.9632 91.3937 61.8322 88.0705 62.4636C88.1012 62.7404 88.129 63.0179 88.1533 63.2968C93.9855 62.5827 102.064 61.3713 105.114 55.5248ZM101.153 62.5385C96.0909 64.0067 92.2184 64.7208 88.2524 65.0397C88.2603 65.3715 88.2624 65.7032 88.2546 66.0385C90.9264 65.8038 93.5489 65.45 95.7391 64.8678C93.7494 65.5334 91.0633 66.1077 88.2403 66.5158C88.2303 66.7284 88.2182 66.9403 88.2018 67.1529C88.1854 67.3755 88.1633 67.596 88.139 67.8164C92.4445 67.4083 99.0516 66.2597 101.153 62.5385ZM97.8459 67.7943C95.9632 68.7324 91.1625 68.965 87.9464 69.1348C87.8693 69.5493 87.7809 69.9581 87.6753 70.3626C89.6351 70.2656 91.5199 70.0815 93.1737 69.7562C91.6248 70.165 89.6772 70.4903 87.5783 70.7229C87.4769 71.0868 87.3642 71.447 87.2387 71.803C90.9499 71.716 96.1915 70.8278 97.8459 67.7943ZM94.8067 71.629C91.1682 72.7997 88.6006 73.1821 86.685 73.1964C86.5088 73.5887 86.3212 73.9747 86.1164 74.3571C87.4777 74.3386 88.7839 74.2644 89.9768 74.1103C88.8218 74.3328 87.457 74.5005 85.9787 74.6097C85.7505 75.022 85.5079 75.4308 85.2468 75.8332C88.5635 75.6634 93.3242 73.8491 94.8067 71.629ZM90.7559 76.262C88.8567 76.8948 86.1999 76.9918 84.3999 77.0489C84.3878 77.061 84.3778 77.0753 84.3678 77.0895C84.3514 77.1116 84.3357 77.1338 84.3193 77.1566C84.0889 77.4598 83.852 77.7573 83.6073 78.0527C84.8972 78.1133 86.1393 78.1211 87.2836 78.0462C86.1571 78.1896 84.8366 78.2667 83.4111 78.2845C83.0651 78.6869 82.7077 79.0836 82.3374 79.4695C85.1041 79.2612 89.6907 78.3209 90.7523 76.9861L90.7566 76.9797C90.8536 76.8562 90.9207 76.7292 90.9528 76.5973C90.967 76.5445 90.9727 76.4924 90.9749 76.4396C90.977 76.359 90.967 76.2798 90.9428 76.197L90.9385 76.1992L90.9342 76.2013H90.9299L90.8593 76.2277H90.855L90.8507 76.2298L90.8465 76.232L90.7637 76.2605H90.7594V76.2627H90.7559V76.262ZM137.192 15.8618H137.188C133.345 21.5264 127.058 26.4812 115.369 31.0835V31.0856L115.379 32.3534C115.385 33.0026 115.302 33.6311 115.142 34.2383C119.431 32.1329 124.928 29.4797 128.479 26.6688C125.353 29.4797 119.521 33.059 114.861 35.1058C114.388 36.3229 113.618 37.448 112.675 38.4732L115.822 37.2211C125.356 33.2616 135.329 27.587 137.192 15.8618ZM134.753 29.5247C134.353 29.3106 123.715 36.6125 114.512 39.9699V39.9721L113.767 41.2705C113.488 41.7621 113.179 42.2372 112.841 42.7024C116.965 41.2948 121.677 39.6039 124.997 37.6142C121.913 39.7359 116.627 42.1823 112.057 43.7012C111.041 44.9061 109.84 46.0169 108.509 47.0357L109.387 47.2619C120.466 44.9218 128.622 40.7033 134.753 29.5247ZM129.727 42.1316C124.091 45.25 114.888 47.3268 109.493 48.4126C109.464 48.4169 109.436 48.4226 109.408 48.4312L109.315 48.7929C109.084 49.6825 108.734 50.508 108.285 51.272C112.312 50.4466 116.747 49.4257 120.033 47.9981C117.011 49.5434 112.16 51.1208 107.755 52.0832C107.529 52.3964 107.286 52.7003 107.026 52.9935L106.105 54.1643C115.371 53.052 123.73 49.5876 129.727 42.1316ZM123.695 51.7051C123.695 51.7051 115.217 55.7638 106.841 55.6767C106.802 55.6746 106.764 55.6767 106.725 55.6789L106.444 56.2189C106.06 56.9552 105.613 57.6223 105.111 58.2308C108.826 57.9333 112.748 57.4888 115.809 56.607C112.936 57.6344 108.592 58.4962 104.479 58.9385C103.89 59.5449 103.243 60.0871 102.547 60.5708L101.615 61.2971C109.353 60.1342 119.262 59.4665 123.695 51.7051ZM118.562 59.6948C113.765 61.7451 107.877 62.5991 103.051 62.2267C102.38 63.416 101.949 64.0552 101.529 64.5503C104.785 64.678 108.105 64.6716 110.829 64.2571C108.254 64.815 104.61 65.1082 101.001 65.1189C100.53 65.5898 99.9676 66.0878 99.0509 67.0866C102.909 67.2264 106.859 66.5287 109.757 65.6504C112.914 64.6966 117.853 62.0105 118.562 59.6948ZM102.754 72.1462C107.83 71.2844 109.23 70.1543 111.525 67.7436C107.994 68.8173 102.265 68.4613 99.1201 68.6055L99.1122 68.6076C98.7969 69.1619 98.3902 69.6271 97.9451 70.0573C100.25 70.3812 102.51 70.5874 104.489 70.5467C102.576 70.7065 100.117 70.6537 97.537 70.4375C96.8029 71.0946 96.0102 71.6974 95.3667 72.4537C98.1919 72.7555 102.754 72.1462 102.754 72.1462Z" fill="white"/>
<path d="M90.9431 76.1967C90.9431 76.1967 90.8239 77.2298 88.1885 78.0145C85.5531 78.7972 83.9051 78.7751 83.9051 78.7751C83.9051 78.7751 84.0949 78.561 84.0913 78.4148C84.0892 78.3584 84.5686 78.2914 85.155 78.2286C84.5971 78.2571 84.0143 78.2749 83.4121 78.2835C83.0661 78.6859 82.7087 79.0825 82.3384 79.4685C85.1051 79.2602 89.6917 78.3199 90.7533 76.9851L90.7576 76.9786C90.8546 76.8552 90.9217 76.7282 90.9538 76.5963C90.968 76.5435 90.9738 76.4914 90.9759 76.4386C90.978 76.3637 90.9702 76.2888 90.9474 76.2124V76.2082L90.9452 76.2039V76.1996L90.9431 76.1974V76.1967ZM87.2846 78.0452L84.5486 77.839L84.9817 77.0279C84.7798 77.0357 84.585 77.0421 84.401 77.0478C84.3888 77.06 84.3788 77.0742 84.3689 77.0885C84.3524 77.1106 84.3367 77.1327 84.3203 77.1556C84.0899 77.4588 83.853 77.7563 83.6083 78.0516C84.8968 78.1123 86.1339 78.1201 87.2746 78.0474H87.2825L87.2846 78.0452ZM94.8077 71.6287C94.8077 71.6287 92.2822 73.8167 90.4722 74.3447C88.6623 74.8748 86.2922 75.1594 86.2922 75.1594L86.3814 74.7306L89.0589 74.2698C88.1243 74.4132 87.0834 74.5287 85.9812 74.6094C85.7529 75.0217 85.5103 75.4305 85.2492 75.8329C88.5645 75.6631 93.3252 73.8488 94.8077 71.6287ZM89.9036 74.1242H89.9058H89.9036ZM89.8751 74.1221C89.584 74.1121 87.2625 74.0372 87.0542 73.993C86.8887 73.9587 87.0706 73.4472 87.1776 73.1839C87.0078 73.1904 86.8459 73.1939 86.6861 73.1961C86.5098 73.5884 86.3222 73.9744 86.1175 74.3568C87.4401 74.3383 88.7101 74.2676 89.8751 74.1221ZM97.8469 67.794C97.8469 67.794 96.0534 69.7837 93.5357 70.4572C91.0159 71.1307 88.12 71.3312 88.12 71.3312L88.2535 70.9309C88.2535 70.9309 90.5065 70.6092 91.9747 70.2011C93.4429 69.7923 94.0294 69.4185 94.0294 69.4185C94.0294 69.4185 90.6463 69.8515 89.6432 69.9664C88.6401 70.0798 88.4882 70.017 88.4882 70.017L88.6658 69.0967L87.9481 69.1352C87.8711 69.5497 87.7826 69.9585 87.677 70.363C89.6368 70.266 91.5217 70.082 93.1754 69.7566C91.6265 70.1654 89.6789 70.4908 87.58 70.7233C87.4787 71.0872 87.366 71.4475 87.2404 71.8035C90.9509 71.7157 96.1925 70.8275 97.8469 67.794ZM101.154 62.5382C101.154 62.5382 99.3986 64.615 95.1031 65.9576C90.8054 67.3024 88.8463 67.3631 88.8463 67.3631L88.9291 66.823C88.9291 66.823 92.5897 66.1153 94.1706 65.5653C95.7523 65.0131 96.2274 64.6535 96.2274 64.6535C96.2274 64.6535 92.9592 65.3976 91.7764 65.4825C90.5935 65.5695 89.4363 65.6038 89.4363 65.6038L89.3757 64.9381C89.0018 64.9745 88.6273 65.0088 88.2535 65.0395C88.2613 65.3712 88.2634 65.7029 88.2556 66.0382C90.9274 65.8035 93.5499 65.4497 95.7402 64.8675C93.7504 65.5331 91.0644 66.1075 88.2413 66.5155C88.2313 66.7281 88.2192 66.94 88.2028 67.1526C88.1864 67.3752 88.1643 67.5957 88.14 67.8161C92.4456 67.408 99.0526 66.2594 101.154 62.5382ZM105.111 55.533C105.008 55.715 103.321 58.6593 99.1532 60.1946C94.8519 61.7798 89.1024 62.8136 89.1024 62.8136L89.1081 62.5874C89.1081 62.5874 91.3305 62.3506 93.6277 61.4445C94.8469 60.9629 95.743 60.5506 96.3173 60.2695C94.0829 61.1128 91.1057 61.8875 88.0701 62.464C88.1008 62.7408 88.1286 63.0183 88.1529 63.2973C93.9844 62.5824 102.058 61.3732 105.111 55.533ZM96.5485 60.1539C96.9002 59.9763 97.0785 59.875 97.0785 59.875C97.0785 59.875 91.75 61.2219 90.4572 61.3368C89.1652 61.4523 88.9847 61.4402 88.9847 61.4402L88.8313 60.4207C88.4832 60.445 88.14 60.4614 87.804 60.465C87.8746 60.948 87.9438 61.4295 88.0045 61.9089C91.018 61.493 94.055 60.9508 96.5485 60.1539ZM107.776 48.5907C107.403 49.2884 105.679 52.0023 100.318 54.7832C94.0957 58.0108 88.6373 58.66 88.6373 58.66L88.6858 58.2512C88.6858 58.2512 89.8344 58.1356 93.5392 56.8272C97.2419 55.5188 100.627 53.6682 100.627 53.6682C100.627 53.6682 96.1661 54.7076 93.1975 55.6743C90.2289 56.6389 88.4532 56.9057 88.4532 56.9057L88.2891 55.929C87.8803 56.0567 87.535 56.1659 87.2618 56.2529C87.2275 56.2693 87.1947 56.285 87.1626 56.3035C87.2154 56.7323 87.2782 57.1547 87.3403 57.5692C91.7364 56.5725 96.2667 55.4053 99.7589 54.012C96.6669 55.4339 92.0517 56.9649 87.4373 58.1742L87.4958 58.528C87.5386 58.797 87.5828 59.0638 87.6249 59.3306C94.1506 58.2933 105.974 55.7292 107.86 48.418C107.847 48.473 107.817 48.5315 107.776 48.5907ZM112.466 40.5254C112.466 40.5254 107.967 45.2069 102.163 48.3175C96.3594 51.428 88.4539 53.7152 88.4539 53.7152L88.3769 53.046C88.3769 53.046 91.0972 52.5124 94.7692 51.062C98.4398 49.6123 101.202 47.5248 101.202 47.5248C101.202 47.5248 97.568 48.453 93.5942 49.8078C89.6225 51.1626 88.8256 51.2539 88.8256 51.2539C88.8256 51.2539 88.842 50.4149 88.872 49.9334C88.623 49.9983 88.3926 50.0568 88.1864 50.1053C88.0551 50.1617 87.9317 50.2266 87.8183 50.2972C87.5572 50.7888 87.3574 51.3181 87.2218 51.901C87.1912 52.0387 87.1633 52.1778 87.1391 52.3176C91.384 51.286 96.2538 50.0225 99.7525 48.3339C96.6583 50.0753 91.5623 51.9295 87.0442 53.056C87.0014 53.5654 86.9957 54.0912 87.0178 54.6191C95.2522 52.5481 108.033 48.2811 112.466 40.5254ZM113.88 32.3652C113.88 32.3652 113.334 35.1497 107.352 39.2469C101.37 43.3463 96.7753 44.3208 96.7753 44.3208L98.1323 42.9396C98.1323 42.9396 100.805 42.3454 103.744 40.6888C106.685 39.0322 109.872 36.735 109.872 36.735C109.872 36.735 108.197 37.3136 105.578 38.094C102.957 38.8767 102.615 38.9801 102.615 38.9801L103.153 38.0541C102.785 38.216 102.421 38.3716 102.061 38.525C101.311 39.431 100.389 40.2907 99.4179 41.0869C102.419 40.2008 105.827 39.1071 108.264 37.5583C105.794 39.411 101.477 41.3302 97.976 42.2119C97.3796 42.655 96.7889 43.0738 96.2289 43.4619C94.9754 44.3337 93.7012 45.1727 92.4413 46.0323C91.618 46.5924 90.759 47.181 89.9778 47.8159C96.5592 45.8804 113.945 39.68 113.88 32.3652ZM97.3675 38.5599C94.5851 43.6359 85.5531 43.6459 84.8961 51.8625C84.4309 57.6869 86.7139 62.4554 85.8927 67.418C85.0716 72.3806 81.7734 77.416 79.6053 79.6105C77.4415 81.805 70.9414 86.0477 70.9336 86.0534C75.0979 83.7013 78.2077 81.4019 80.5171 79.1617L80.5149 79.1696C80.644 79.0419 80.7718 78.917 80.8973 78.7915L80.9016 78.7893L80.9037 78.785C81.0757 78.6131 81.2433 78.4412 81.4053 78.2692H81.401C81.508 78.1537 81.615 78.0409 81.7185 77.9254H81.7227C81.9004 77.7335 82.0709 77.5394 82.2364 77.3446L82.2407 77.3404L82.2428 77.3382L82.3178 77.2512H82.3135C82.7465 76.7418 83.1389 76.2338 83.4963 75.7302L83.5006 75.7323C83.6262 75.5561 83.7475 75.3806 83.8623 75.2044H83.8645C83.9472 75.0767 84.03 74.9497 84.1113 74.822L84.1798 74.7128H84.1755C84.2483 74.5915 84.3232 74.4724 84.3938 74.3511H84.3981C84.5051 74.1692 84.6107 73.9851 84.7099 73.8032L84.712 73.8011V73.7989C84.819 73.6049 84.9203 73.4087 85.0174 73.2146L85.0131 73.2168C85.2514 72.7373 85.4618 72.26 85.6459 71.7892L85.668 71.7342V71.7321V71.73C85.755 71.5038 85.8357 71.2791 85.9106 71.0522L85.9127 71.0479C85.9312 70.9894 85.9491 70.9324 85.9676 70.876L85.9655 70.8781C86.014 70.7248 86.0625 70.5728 86.1053 70.4208H86.1075L86.1175 70.378L86.1196 70.3759L86.1217 70.368C86.223 70.0142 86.3079 69.6646 86.3829 69.3143L86.3786 69.3164C86.8152 67.2661 86.8252 65.2842 86.6575 63.3807L86.6597 63.3829L86.6518 63.2859L86.6497 63.2716C86.6333 63.0875 86.6133 62.9056 86.5947 62.7237H86.5926C86.5705 62.5154 86.5462 62.3092 86.522 62.103L86.5156 62.0666V62.0588V62.0545C86.4892 61.8561 86.4628 61.6578 86.4349 61.4616V61.4573V61.4552L86.4328 61.4452L86.4142 61.3075V61.3097C85.6238 55.7728 84.0785 50.9536 88.5659 47.0383C89.4656 46.2535 90.7219 45.3781 92.1131 44.4357L92.1209 44.4314L92.1274 44.4271L92.3114 44.3016L92.3421 44.2816L92.4092 44.2374L92.5041 44.1724L92.5647 44.1318L92.6981 44.0426L92.7909 43.9798L92.7951 43.9755L92.8943 43.9106L92.9913 43.8436L93.0177 43.8271L93.0905 43.7786L93.1897 43.7116L93.246 43.673L93.2867 43.6445L93.3858 43.5774L93.475 43.5168L93.4872 43.5111L93.5863 43.444L93.6855 43.377L93.7076 43.3627L93.7847 43.3078L93.886 43.2407L93.9388 43.2043L93.9851 43.1722L94.0864 43.1052L94.1713 43.0467L94.1877 43.0367L94.1999 43.0288L94.3882 42.9011L94.4046 42.889L94.4895 42.8326L94.5908 42.7641L94.6372 42.732L94.69 42.6957L94.7913 42.6272L94.8719 42.5722L94.8919 42.558L94.9119 42.5437L95.0881 42.4224L95.0924 42.4181L95.1045 42.4103L95.1188 42.4024L95.295 42.279L95.3378 42.2505L95.3941 42.2098L95.5704 42.0864L95.5968 42.07L95.6959 41.9993L95.7951 41.9287L95.8015 41.9244L95.8322 41.9045L95.9963 41.7875L96.0327 41.7611L96.0384 41.7568L96.251 41.6048L96.2631 41.597L96.2938 41.5749L96.4878 41.435L96.49 41.4329H96.4921L96.5891 41.3623L96.6862 41.2895L96.7183 41.2674L96.7853 41.2189L96.9309 41.1118L96.9451 41.1019L96.9794 41.0755L97.1435 40.952L97.1677 40.9335L97.172 40.9313L97.192 40.9149L97.3661 40.7837L97.4224 40.7409L97.5922 40.6096L97.6186 40.591C97.6814 40.5404 97.7442 40.4919 97.8084 40.4434L97.8248 40.4291L97.8326 40.4234C97.8997 40.3706 97.966 40.3185 98.0331 40.2657L98.0495 40.2536L98.2314 40.1059L98.2657 40.0795L98.2921 40.0595C99.532 39.0543 100.611 38.0248 101.343 36.9961C101.382 36.9397 99.3316 37.753 97.3675 38.5599Z" fill="#EBEBEB"/>
<path d="M95.6072 73.9195C95.3239 73.8888 95.0614 73.8524 94.8245 73.8104C94.2217 74.324 93.5218 74.777 92.7984 75.1673C94.9037 75.5254 96.9563 75.7758 98.7805 75.8065C98.7805 75.8065 94.851 75.3535 94.5071 75.1652C94.236 75.0196 95.1948 74.2049 95.6072 73.9195ZM98.7805 75.8065C96.977 75.8893 94.6976 75.7659 92.2969 75.4912L92.3796 75.7644C92.4603 76.0377 92.4931 76.3223 92.4688 76.6077C92.4524 76.7853 92.416 76.9573 92.3618 77.1214C96.3156 77.2855 101.877 76.44 105.674 74.4945C106.052 74.2905 106.285 74.1649 106.285 74.1649C106.285 74.1649 100.54 76.3352 97.8623 76.4622C95.1848 76.5877 92.9647 76.0676 92.9647 76.0676C92.9647 76.0676 95.4659 76.0876 96.912 76.037C98.3553 75.9842 98.7805 75.8065 98.7805 75.8065ZM111.525 67.7434C111.525 67.7434 109.204 70.0121 105.325 71.0658C101.448 72.1195 97.3529 71.6986 97.3529 71.6986L98.1049 70.936C98.1049 70.936 100.588 70.9424 101.889 70.9074C103.192 70.8732 104.489 70.5457 104.489 70.5457C102.576 70.7055 100.117 70.6527 97.537 70.4366C96.8029 71.0936 96.0103 71.6965 95.3668 72.4527C98.1919 72.7538 102.754 72.1452 102.754 72.1452C107.83 71.2848 109.229 70.154 111.525 67.7434ZM104.489 70.5464C104.489 70.5464 100.576 70.2675 99.8728 70.0406C99.1693 69.8137 99.1529 69.8002 99.1529 69.8002L99.9762 68.5788C99.6751 68.5845 99.3876 68.5931 99.1208 68.6052L99.113 68.6073C98.7976 69.1617 98.391 69.6268 97.9458 70.057C100.251 70.3809 102.51 70.5871 104.489 70.5464ZM118.019 60.7019L118.563 59.6945C118.563 59.6945 114.85 63.5327 110.389 64.8476C105.928 66.1603 101.911 66.1339 101.911 66.1339L101.925 65.424C101.925 65.424 104.083 65.5332 107.07 65.1451C108.752 64.9268 109.97 64.5608 110.71 64.2833C108.144 64.8233 104.554 65.1087 101.001 65.1187C100.53 65.5895 99.9676 66.0875 99.0509 67.0863C102.909 67.2261 106.859 66.5284 109.757 65.6502C112.463 64.8312 116.48 62.7423 118.019 60.7019ZM110.744 64.269C111.294 64.0628 111.571 63.9073 111.571 63.9073C111.571 63.9073 109.753 64.2269 107.035 64.1477C104.319 64.0707 103.16 63.9458 103.16 63.9458C103.16 63.9458 103.419 63.4 103.64 62.7786C103.715 62.566 103.767 62.4005 103.805 62.275C103.553 62.2607 103.299 62.2464 103.051 62.2264C102.38 63.4157 101.949 64.055 101.529 64.5501C104.75 64.6756 108.037 64.6721 110.744 64.269ZM123.695 51.7048C123.695 51.7048 121.272 55.6401 115.52 57.8303C109.769 60.0227 104.624 60.1033 104.624 60.1033L105.206 59.2779C105.206 59.2779 106.895 59.2315 110.62 58.4039C114.347 57.577 116.559 56.325 116.559 56.325C116.559 56.325 113.986 56.8122 111.101 57.0912C108.213 57.3723 106.57 57.3823 106.57 57.3823C106.57 57.3823 107.183 56.1145 107.432 55.6736C107.234 55.6758 107.038 55.6779 106.839 55.6758C106.801 55.6736 106.762 55.6758 106.724 55.6779L106.443 56.218C106.058 56.9542 105.612 57.6213 105.11 58.2298C108.825 57.9323 112.747 57.4879 115.808 56.6061C112.934 57.6334 108.59 58.4952 104.477 58.9375C103.889 59.544 103.242 60.0862 102.546 60.5699L101.614 61.2961C109.353 60.134 119.262 59.4662 123.695 51.7048ZM129.728 42.1314C129.728 42.1314 125.713 46.3862 120.781 48.9467C115.851 51.5072 108.605 53.0097 108.605 53.0097L109.085 52.1158C109.085 52.1158 110.749 51.7334 114.674 50.512C118.597 49.2927 121.079 47.5919 121.079 47.5919C121.079 47.5919 118.36 48.6414 114.566 49.3006C110.772 49.9576 109.98 50.0789 109.98 50.0789L110.451 48.2162C110.119 48.2847 109.799 48.3496 109.492 48.4124C109.463 48.4166 109.436 48.4223 109.407 48.4309L109.314 48.7926C109.084 49.6823 108.734 50.5077 108.285 51.2718C112.311 50.4463 116.746 49.4254 120.032 47.9979C117.011 49.5431 112.159 51.1205 107.755 52.0829C107.529 52.3961 107.285 52.7001 107.025 52.9933L106.105 54.164C115.371 53.0518 123.73 49.5874 129.728 42.1314ZM134.753 29.5244C134.753 29.5244 130.787 36.2991 123.741 40.3885C116.693 44.4792 111.793 45.6179 111.793 45.6179L113.262 44.0647C113.262 44.0647 115.559 42.9967 119.702 41.1711C123.848 39.3447 125.769 37.2558 125.769 37.2558C125.769 37.2558 125.464 37.4056 124.956 37.6418C121.868 39.7549 116.606 42.1899 112.056 43.7009C111.041 44.9059 109.839 46.0167 108.509 47.0354L109.386 47.2616C120.466 44.9216 128.622 40.7031 134.753 29.5244ZM124.93 37.6539C123.646 38.2482 121.119 39.3725 118.993 40.026C116.003 40.9464 114.906 41.2332 114.906 41.2332L115.393 39.6372C115.098 39.7528 114.803 39.8619 114.512 39.969V39.9711L113.767 41.2695C113.489 41.7611 113.179 42.2362 112.841 42.7014C116.939 41.3038 121.614 39.6258 124.93 37.6539ZM137.19 15.8651L137.188 15.8608C137.188 15.8608 134.515 24.5568 126.546 29.9139C118.58 35.2689 116.12 35.7419 116.12 35.7419L116.292 34.9814C116.292 34.9814 120.975 32.5144 123.917 30.5988C126.86 28.684 129.064 26.5301 129.064 26.5301C129.064 26.5301 128.684 26.722 128.065 27.0317C124.856 29.7819 119.323 33.145 114.862 35.1048C114.389 36.3219 113.618 37.447 112.676 38.4722L115.823 37.2201C125.354 33.2635 135.327 27.5889 137.19 15.8651ZM127.893 27.1173C125.996 28.0654 122.245 29.9303 120.026 30.9776C116.966 32.4216 116.617 32.4623 116.617 32.4623L116.981 30.4319C116.455 30.6502 115.917 30.8685 115.369 31.0832V31.0854L115.379 32.3531C115.385 33.0023 115.302 33.6309 115.142 34.238C119.202 32.2461 124.343 29.7627 127.893 27.1173Z" fill="#EBEBEB"/>
<path d="M77.2501 39.7318L77.4441 39.8452L77.6567 39.6348C79.1692 40.9874 79.5658 41.5846 80.8058 42.893C81.1311 43.2347 81.4971 43.5237 81.888 43.7912C82.7513 44.3798 83.6959 44.8613 84.5755 45.4392C85.8497 46.2768 86.9213 47.2292 87.878 48.4178C89.3705 50.2741 89.6615 52.6427 89.3177 54.9313C89.1557 55.9993 88.824 57.2614 88.3752 58.2538L87.975 59.1398L87.0083 59.2469C85.7363 59.3903 83.7465 60.2942 82.6464 60.8806C78.3837 63.1514 74.6646 66.8163 71.6974 70.5732C68.3344 74.8359 65.2081 79.3862 62.5749 84.139C61.6545 85.8013 60.6415 87.694 59.9416 89.4676L58.0953 94.147L56.7119 89.3114C55.9457 86.6396 55.3607 83.5883 55.1039 80.8337C54.9747 79.4647 54.9198 78.0592 55.0332 76.6859C55.0653 76.2771 55.1181 75.8626 55.1888 75.4445L55.1281 70.3078C55.1138 69.1086 55.3771 67.6646 55.7024 66.5238C56.4508 63.9127 57.8848 61.5912 60.095 59.9674C60.6836 59.5344 61.3085 59.035 61.8807 58.4892C60.7035 58.3943 59.4415 58.099 58.4263 57.733L56.0905 56.0971L58.9564 54.4205C59.6013 54.402 60.6493 54.0481 61.2457 53.7899C63.3632 52.8695 65.094 51.2436 66.4209 49.3795C68.3058 46.7284 70.9569 45.0297 74.1766 44.5503C74.6353 44.4818 75.1433 44.4368 75.667 44.4211C75.2603 42.1603 75.9538 41.5089 77.2501 39.7318Z" fill="#021F30"/>
<path d="M86.8177 57.5501C86.8177 57.5501 89.0543 52.6032 86.5466 49.487C84.041 46.3707 81.4827 46.0832 79.5679 44.0671C77.6545 42.0509 77.7215 41.9839 77.7215 41.9839C77.7215 41.9839 76.9432 43.0333 77.469 44.5929C77.9926 46.1503 78.0775 46.3358 78.0775 46.3358C78.0775 46.3358 71.8101 44.7441 67.812 50.3681C63.814 55.992 59.0048 56.1276 59.0048 56.1276C59.0048 56.1276 61.1729 56.9059 62.9686 56.8053C64.7643 56.7019 65.4078 55.992 65.4078 55.992C65.4078 55.992 65.442 58.1601 61.1044 61.3449C56.7689 64.5282 56.8374 70.2877 56.8374 70.2877C56.8374 70.2877 57.5472 68.1888 58.9712 67.8485C60.3952 67.511 60.4958 67.0701 60.4958 67.0701C60.4958 67.0701 57.1406 71.8815 56.7346 76.8255C56.328 81.7724 58.3527 88.8418 58.3527 88.8418C58.3527 88.8418 61.5966 80.6174 70.3589 69.5143C79.1213 58.4113 86.8177 57.5501 86.8177 57.5501Z" fill="#00A795"/>
<path d="M86.8172 57.5498C86.8172 57.5498 87.3452 56.3848 87.5999 54.8281C87.1732 53.1494 85.9419 50.8686 83.9535 49.6914C81.9474 48.5043 79.9412 45.0727 79.1665 43.643C78.9767 43.4411 78.8126 43.2649 78.6713 43.1094C78.4124 43.2792 77.8787 43.6416 77.3365 44.0839C77.365 44.2459 77.4071 44.4157 77.4678 44.5933C77.9914 46.1507 78.0763 46.3362 78.0763 46.3362C78.0763 46.3362 77.0932 46.0872 75.6578 46.1343C75.3161 47.131 75.5465 48.0392 75.5465 48.0392C75.5465 48.0392 74.8852 48.189 72.1428 49.6914C69.4025 51.1961 68.9595 52.5573 66.0779 54.6626C63.1978 56.7679 59.0036 56.1287 59.0036 56.1287C59.0036 56.1287 61.1717 56.907 62.9674 56.8065C64.7631 56.703 65.4066 55.9931 65.4066 55.9931C65.4066 55.9931 65.413 56.4319 65.0242 57.2067L65.657 57.1218C65.657 57.1218 63.837 60.3229 62.727 62.9498C61.6147 65.5787 61.2102 68.7799 61.2102 68.7799C61.2102 68.7799 59.5258 70.6327 57.3356 76.3272C57.0623 77.035 56.8483 77.6963 56.6807 78.3091C56.6885 80.3559 56.9981 82.5861 57.3477 84.4667C58.1361 84.2969 59.4994 83.9959 60.8906 83.6641C62.7855 80.204 65.8375 75.2435 70.3571 69.5161C79.1201 58.4131 86.8172 57.5498 86.8172 57.5498ZM56.8362 70.2881C56.8362 70.2881 57.5461 68.1892 58.9701 67.8489C59.6335 67.6912 60.0095 67.5114 60.2221 67.3637C61.1967 65.9076 61.6982 62.6965 61.6982 62.6965C61.6982 62.6965 60.1329 64.5671 58.4992 66.2858C56.8647 68.0051 56.8362 70.2881 56.8362 70.2881Z" fill="#007064"/>
<path d="M86.9742 75.6353C87.0713 75.6674 87.1661 75.698 87.2632 75.7301L89.7545 76.5434L88.5167 78.855C88.08 79.6683 87.2589 80.3674 86.4456 80.7741C85.3498 81.322 84.1662 81.4575 82.9933 81.3284C83.1588 81.6944 83.3129 82.0604 83.4506 82.4264C84.6677 85.6375 83.3836 89.4279 81.9218 92.3416C80.7303 94.7159 79.103 97.1729 77.3758 99.1969C76.7045 99.9838 76.0124 100.76 75.3554 101.559C75.1834 101.767 75.0094 101.984 74.8481 102.208L74.6377 104.261C74.4964 105.656 74.3623 107.326 74.4436 108.726C74.5142 110.006 74.6034 111.29 74.7004 112.571C74.7577 112.737 74.8127 112.888 74.8634 113.023L70.8886 114.259C70.8733 114.141 70.854 114.018 70.8301 113.89L70.5469 113.835C69.3355 111.332 68.6113 107.653 68.3388 104.933C68.1326 102.856 68.3388 100.639 68.6948 98.589C68.8846 97.5032 69.2042 96.0428 69.6351 94.5482L67.9043 90.2769L66.7094 91.1444C66.6894 91.9635 66.501 92.7703 66.1086 93.4823C65.8354 94.1437 65.2611 94.6673 64.5434 94.9063C63.7807 95.161 62.8105 95.3394 62.0114 95.5235L61.9465 95.5377C61.5705 96.1506 61.0933 96.7184 60.5553 97.1108L59.152 98.1382C59.5002 100.102 60.2257 101.675 60.2257 101.675C60.2257 101.675 61.3422 102.031 61.7831 102.929C62.224 103.826 61.435 104.698 61.6661 104.996C61.8944 105.291 62.6892 104.818 62.6892 104.818C62.6892 104.818 64.1474 107.459 63.0958 110.713C62.0464 113.965 61.1988 114.948 61.1988 114.948C61.1988 114.948 60.0802 114.71 58.2866 112.236C56.4909 109.765 57.2008 107.393 57.2008 107.393C57.2008 107.393 56.4225 107.087 55.9487 105.799C55.4736 104.513 56.4217 103.7 55.7447 101.227C55.7005 101.065 55.6534 100.899 55.6049 100.729L55.4836 100.819L55.5564 100.556C55.0505 98.8109 54.3635 96.7299 54.0218 95.7104C53.9426 95.5063 53.872 95.298 53.8113 95.0833L53.8092 95.0811C53.4874 93.9625 53.4246 92.7268 53.7464 91.6695C54.1366 90.3811 55.0084 89.3844 56.09 88.895C56.2477 88.3713 56.3732 87.5909 56.4503 87.1257L56.4945 86.8646L56.5494 86.7355C56.1892 84.9562 56.7292 81.8742 57.0774 80.2254C57.773 76.9373 59.8077 72.8864 61.6076 70.0513L62.3032 68.9533C63.1058 64.4958 64.6797 60.1625 67.2537 56.4148C68.8289 54.1233 71.246 51.4744 73.7616 50.1838C74.328 49.8905 75.2177 49.4397 76.0916 49.0958C76.2372 47.5869 76.9898 45.8518 77.8103 44.6083L79.4683 42.772L81.8347 45.7084C81.9239 46.3819 82.4475 47.5612 82.7186 48.1476C83.2501 49.2941 83.7053 50.4998 83.8373 51.7554C84.2218 52.0529 84.6299 52.3419 84.998 52.6879C85.364 53.0296 85.7015 53.4035 85.9826 53.8201C86.5269 54.6227 87.0805 55.6743 87.3659 56.611L87.3802 56.6574L87.3923 56.7059C87.9987 59.0638 88.4582 61.5793 88.8263 63.9843C89.0246 65.2884 89.2244 66.5954 89.4049 67.9017C89.4213 68.033 89.4413 68.1685 89.4598 68.3019C89.6417 68.6137 89.8258 68.9512 89.925 69.2444C90.2731 70.2903 89.6318 71.6351 89.2415 72.6032C89.0353 73.1126 88.8192 73.6305 88.5759 74.1242C88.2299 74.8262 87.6456 75.3014 86.9742 75.6353ZM78.5758 71.4917C78.483 70.6505 78.483 70.5799 77.943 69.9243C78.1028 70.525 78.3111 71.075 78.5758 71.4917ZM71.2589 90.2284C71.3416 90.0686 71.4244 89.9131 71.51 89.7632C71.4108 89.7069 71.3138 89.6398 71.2225 89.5649L71.2589 90.2284Z" fill="#021F30"/>
<path d="M85.265 57.2519C85.265 57.2519 86.0276 60.2169 86.654 64.3156C87.2811 68.4149 87.3318 69.0235 87.3318 69.0235C87.3318 69.0235 87.7891 69.7861 87.839 69.9395C87.8897 70.0915 87.0421 72.2589 86.6012 73.1571C86.1625 74.0553 83.2645 74.3256 82.9428 74.2593C82.621 74.1908 80.876 72.6313 80.876 72.6313C80.876 72.6313 80.724 70.6173 80.52 69.9053C80.3181 69.1933 78.7585 67.5331 78.7585 67.5331C78.7585 67.5331 79.8608 67.7536 80.8253 68.4149C81.792 69.0741 81.7392 68.8879 81.7392 68.8879C81.7392 68.8879 81.6722 68.3807 79.2843 67.0594C76.8958 65.7367 75.3369 65.9065 74.5422 63.3988C73.7453 60.8933 75.0658 58.0638 75.0658 58.0638C75.0658 58.0638 73.3729 57.7585 72.5924 65.3479C71.814 72.9359 72.2549 73.9875 72.2549 73.9875C72.2549 73.9875 71.0678 73.1399 70.3579 69.5143C69.6459 65.8901 69.8157 63.8233 69.8157 63.8233C69.8157 63.8233 67.6455 66.2275 66.123 75.5449C64.5984 84.8615 66.6303 88.4879 66.6303 88.4879C66.6303 88.4879 62.6322 84.1502 64.1226 71.6161C65.6129 59.0819 72.2542 53.4237 74.7598 52.1352C77.2675 50.8489 77.9795 50.8147 77.9795 50.8147L78.9119 52.5091L80.0463 52.7616C80.0463 52.7616 80.5535 52.1688 80.1312 50.2725C79.7067 48.3755 79.3179 47.7484 79.3179 47.7484C79.3179 47.7484 78.9276 48.155 78.8591 49.4428C78.7921 50.7291 79.0125 51.9826 79.0125 51.9826C79.0125 51.9826 78.1493 51.0687 78.2663 49.39C78.3854 47.7134 79.6396 45.8164 79.6396 45.8164C79.6396 45.8164 79.656 46.7646 80.7233 49.0682C81.7906 51.3719 81.6879 52.3728 81.6715 52.6946C81.655 53.0163 83.3823 53.8981 84.1606 55.0489C84.9411 56.2025 85.265 57.2519 85.265 57.2519ZM85.8008 72.6598C85.8008 72.6598 86.8338 70.5424 86.4279 69.8304C86.0212 69.1184 85.2086 69.3552 85.0403 69.7619C84.8705 70.1685 85.0567 70.8563 85.362 71.7359C85.6652 72.6177 85.8008 72.6598 85.8008 72.6598ZM64.0855 92.5879C64.0855 92.5879 65.1185 91.0469 63.9842 88.8788C62.8498 86.7086 61.3409 86.2698 60.2408 86.2698C59.1386 86.2698 58.6149 87.4891 58.6149 87.4891C58.6149 87.4891 58.2247 89.827 57.9372 90.1487C57.6482 90.4705 58.8939 90.1915 59.5795 91.1475C60.2651 92.1042 60.004 93.3741 60.004 93.3741C60.004 93.3741 59.4011 91.4529 58.4287 90.9613C57.4542 90.4698 56.277 90.8843 55.844 92.3083C55.4131 93.7301 56.2685 95.356 56.2685 95.356C56.2685 95.356 55.7427 93.061 56.7415 92.1891C57.7403 91.3173 58.7655 92.0964 59.1564 93.1879C59.5445 94.2823 59.2577 95.3396 59.2577 95.3396C59.2577 95.3396 60.0546 94.7553 60.4855 93.5354C60.9186 92.3161 60.2572 90.621 60.2572 90.621C60.2572 90.621 61.2824 91.3673 61.4258 92.3076C61.5692 93.2479 61.5186 93.3834 61.5186 93.3834C61.5186 93.3834 63.5932 92.9083 63.8486 92.8234C64.1033 92.7392 64.0855 92.5879 64.0855 92.5879ZM63.4584 71.228C63.4584 71.228 60.1053 76.5123 59.2235 80.678C58.3438 84.8458 58.7162 86.3711 58.7162 86.3711C58.7162 86.3711 59.394 85.7283 60.716 85.4044C62.0365 85.0827 63.3913 86.5409 63.3913 86.5409C63.3913 86.5409 61.3081 83.2706 61.7148 79.172C62.1214 75.0726 63.4584 71.228 63.4584 71.228ZM75.3334 66.3645C75.3334 66.3645 75.287 68.2915 75.7621 70.2513C75.9705 71.4848 76.3728 72.933 77.1134 74.5226C81.7949 84.6076 84.9475 86.9455 75.7058 97.771C73.3358 100.55 72.6238 101.193 72.0473 102.92C71.4709 104.649 71.4388 106.341 71.4388 106.341L72.454 104.038C72.454 104.038 72.1486 107.053 72.2521 108.849C72.3534 110.645 72.5232 112.879 72.5232 112.879C72.5232 112.879 71.0328 109.797 70.5235 104.715C70.0162 99.6338 72.3883 91.9951 73.8944 90.1309C75.4033 88.2681 78.4004 88.2525 78.4004 88.2525C78.4004 88.2525 76.8936 87.6253 74.7762 87.7773C72.6587 87.9293 72.6245 87.8622 72.6245 87.8622C72.6245 87.8622 71.931 87.5733 71.2697 83.7629C70.6083 79.951 71.8461 77.0552 71.8461 77.0552C71.8461 77.0552 70.1011 78.9016 69.4233 81.6112C68.7456 84.3208 68.8811 86.8449 68.8811 86.8449C68.8811 86.8449 67.7974 84.1695 68.6771 78.7817C69.5589 73.3961 69.7958 72.5835 69.7958 72.5835C69.7958 72.5835 69.8971 74.3449 72.5053 76.2762C75.1143 78.2053 75.4539 82.7798 75.4539 82.7798C75.4539 82.7798 75.9961 78.9858 74.4366 74.8179C72.8785 70.6515 75.3334 66.3645 75.3334 66.3645ZM82.2008 61.1487C82.2008 61.1487 82.0367 59.1546 81.2042 57.5187C80.3716 55.8829 78.4218 54.914 78.4218 54.914L79.9407 56.6027C79.1174 57.563 79.6011 58.5946 79.4491 58.7466C79.4491 58.7466 79.3079 58.7544 78.8606 58.0167C78.4139 57.2805 78.3027 56.9166 78.3027 56.9166C78.3027 56.9166 78.4304 58.3299 79.6054 59.2481C80.7804 60.1684 81.4617 60.2569 81.4617 60.2569C81.4617 60.2569 81.8341 60.6428 82.1252 61.6566C82.4141 62.6675 82.4733 63.0036 82.4733 63.0036L82.2008 61.1487Z" fill="#EBEBEB"/>
<path d="M79.1782 78.8004C79.1925 78.8368 80.5837 82.289 80.5837 85.1042C80.5837 87.9337 80.5837 88.2041 80.5837 88.2041C80.5837 88.2041 78.4948 86.3841 75.5968 86.3499C74.2399 86.3356 72.9999 86.6288 72.0661 86.9484C72.39 87.7653 72.6225 87.8623 72.6225 87.8623C72.6225 87.8623 72.6568 87.9294 74.7742 87.7774C76.8917 87.6255 78.3985 88.2526 78.3985 88.2526C78.3985 88.2526 75.4013 88.269 73.8924 90.131C72.3857 91.9959 70.0135 99.6339 70.5215 104.716C71.0309 109.797 72.5212 112.879 72.5212 112.879C72.5212 112.879 72.3514 110.645 72.2501 108.849C72.1467 107.054 72.452 104.038 72.452 104.038L71.4368 106.342C71.4368 106.342 71.4689 104.649 72.0454 102.92C72.6218 101.193 73.3338 100.55 75.7038 97.7711C83.4802 88.6635 82.4807 85.563 79.1782 78.8004ZM61.9889 77.126C61.6329 77.9086 61.1335 79.2356 60.9188 80.8836C60.5692 83.5875 60.8724 84.4629 60.8724 84.4629C60.8724 84.4629 59.7195 83.9635 58.6822 84.226C58.563 85.7527 58.7143 86.372 58.7143 86.372C58.7143 86.372 59.392 85.7292 60.714 85.4053C62.0346 85.0835 63.3894 86.5418 63.3894 86.5418C63.3894 86.5418 61.3062 83.2714 61.7128 79.1728C61.7827 78.4772 61.8776 77.7895 61.9889 77.126ZM58.6201 87.4742C59.8879 87.5491 61.4638 87.8381 62.1209 88.7769C62.6909 89.5917 62.8186 91.4181 62.8001 93.0868C63.2795 92.9733 63.7361 92.862 63.8474 92.8256C64.1021 92.7407 64.0843 92.5888 64.0843 92.5888C64.0843 92.5888 65.1173 91.0478 63.9829 88.8797C62.8486 86.7094 61.3397 86.2707 60.2396 86.2707C59.208 86.2707 58.6822 87.3387 58.6201 87.4742Z" fill="#C6C6C6"/>
<path d="M76.69 73.5437C76.3504 74.2821 76.0914 75.41 76.1035 77.1351C76.1378 82.0877 75.5977 84.5811 75.5977 84.5811C75.5977 84.5811 74.89 82.154 73.7449 79.9645C72.5985 77.7743 72.4971 77.673 72.4971 77.673C72.4971 77.673 72.149 79.56 72.4408 82.7612C72.734 85.9602 74.1131 87.8208 74.1131 87.8208C72.6491 87.9135 72.6227 87.8615 72.6227 87.8615C72.6227 87.8615 71.9293 87.5725 71.2679 83.7621C70.6066 79.9503 71.8444 77.0545 71.8444 77.0545C71.8444 77.0545 70.0993 78.9008 69.4216 81.6104C68.7438 84.32 68.8794 86.8441 68.8794 86.8441C68.8794 86.8441 67.7957 84.1688 68.6753 78.781C69.5571 73.3953 69.794 72.5827 69.794 72.5827C69.794 72.5827 69.8953 74.3442 72.5036 76.2754C75.1126 78.2045 75.4522 82.779 75.4522 82.779C75.4522 82.779 75.9944 78.985 74.4348 74.8172C72.8774 70.6515 75.333 66.3638 75.333 66.3638C75.333 66.3638 75.2866 68.2907 75.7618 70.2505C75.9259 71.2258 76.2127 72.3366 76.69 73.5437Z" fill="#C6C6C6"/>
<path d="M87.8207 70.0736C87.693 70.5894 86.9896 72.3666 86.6015 73.1578C86.1627 74.056 83.2648 74.3263 82.943 74.26C82.6213 74.1915 80.8763 72.632 80.8763 72.632C80.8763 72.632 80.7243 70.618 80.5203 69.906C80.3184 69.194 78.7588 67.5338 78.7588 67.5338C78.7588 67.5338 79.861 67.7543 80.8256 68.4156C81.7923 69.0748 81.7395 68.8886 81.7395 68.8886C81.7395 68.8886 81.6724 68.3814 79.2846 67.0601C76.896 65.7374 75.3372 65.9072 74.5424 63.3995C73.7456 60.8939 75.0661 58.0645 75.0661 58.0645C75.0661 58.0645 73.3731 57.7592 72.5927 65.3486C71.8143 72.9366 72.2552 73.9882 72.2552 73.9882C72.2552 73.9882 71.0681 73.1406 70.3582 69.515C69.6462 65.8908 69.816 63.824 69.816 63.824C69.816 63.824 67.6458 66.2282 66.1233 75.5456C64.5987 84.8622 66.6306 88.4886 66.6306 88.4886C66.6306 88.4886 62.6325 84.1509 64.1229 71.6168C64.1856 71.0952 64.2563 70.5851 64.3369 70.0879C64.4161 72.5128 64.7471 75.6005 64.7471 75.6005C64.7471 75.6005 64.7978 74.4719 66.3994 69.1333C67.9989 63.7926 70.9639 60.9453 70.9639 60.9453C70.9639 60.9453 70.3917 62.2252 70.6949 65.4934C70.9981 68.7616 71.6374 69.5036 71.6374 69.5036C71.6374 69.5036 71.3014 64.9555 72.4806 61.0117C73.6599 57.07 75.6475 57.4588 75.6475 57.4588C75.6475 57.4588 74.3448 60.6942 75.7146 62.6461C77.0837 64.5995 79.0834 64.8199 81.0896 66.4886C83.0936 68.1552 83.0693 70.5052 83.0693 70.5052C83.0693 70.5052 83.0508 70.4974 82.4123 70.0601C81.7709 69.6213 81.2415 69.5706 81.2415 69.5706C81.2415 69.5706 81.8479 70.2784 82.3031 71.2229C82.7561 72.1654 83.2619 73.2091 83.2619 73.2091C83.2619 73.2091 85.2681 73.6479 85.9073 73.3447C86.5466 73.04 87.8165 70.0857 87.8207 70.0736ZM86.4438 69.8589C86.4417 69.6727 86.4217 69.4886 86.3811 69.3145C86.0779 68.0204 84.6439 68.34 84.3585 69.7718C84.0952 71.0803 85.5171 72.4072 85.7639 72.627C85.7054 72.5599 85.5756 72.3559 85.3616 71.7352C85.0562 70.8555 84.87 70.1678 85.0398 69.7611C85.2075 69.3545 86.0208 69.1183 86.4274 69.8296C86.4331 69.8389 86.4374 69.8489 86.4438 69.8589Z" fill="#C6C6C6"/>
<path d="M78.4212 54.9145L77.4502 54.2817L78.9427 56.5305C78.9427 56.5305 78.8071 57.0035 78.8499 57.2888C78.8927 57.5763 78.8927 57.5763 78.8927 57.5763C78.8927 57.5763 78.302 57.0284 78.0067 56.3871C77.7113 55.7478 77.7113 55.7478 77.7113 55.7478C77.7113 55.7478 77.147 57.4586 78.6131 58.9918C80.0792 60.5249 81.1065 60.7268 81.1065 60.7268C81.1065 60.7268 81.6972 61.8876 82.2187 63.6226C82.7403 65.3577 82.7403 65.3762 82.7403 65.3762C82.7403 65.3762 82.7403 62.4112 82.3522 60.7597C81.9662 59.1095 81.4803 58.135 81.4803 58.135C82.0746 59.6153 82.2002 61.1499 82.2002 61.1499L82.4713 63.0041C82.4713 63.0041 82.4128 62.6681 82.1231 61.6571C81.8321 60.6441 81.4597 60.2574 81.4597 60.2574C81.4597 60.2574 80.7783 60.1682 79.6033 59.2486C78.4283 58.3304 78.3006 56.9171 78.3006 56.9171C78.3006 56.9171 78.4119 57.281 78.8585 58.0172C79.3051 58.7556 79.4471 58.7471 79.4471 58.7471C79.599 58.5951 79.1153 57.5642 79.9386 56.6032L78.4212 54.9145Z" fill="#C6C6C6"/>
<path d="M81.3956 59.4875C81.3956 59.4875 81.3956 59.1437 80.979 58.1991C80.5623 57.2567 80.1799 56.9106 80.1799 56.9106C80.1799 56.9106 79.9088 58.1442 80.2349 58.6885C80.5623 59.2329 81.3956 59.4875 81.3956 59.4875Z" fill="#00A795"/>
<path d="M30.2627 95.272H109.737V121.378C109.737 121.378 85.1476 114.664 69.9998 114.664C54.852 114.664 30.2627 121.378 30.2627 121.378V95.272Z" fill="#021F30"/>
<path d="M30.2627 95.272H109.737V121.378C109.737 121.378 85.1476 114.664 69.9998 114.664C54.852 114.664 30.2627 121.378 30.2627 121.378V95.272Z" fill="#021F30"/>
<path d="M34.7641 116.256L34.7644 116.256C35.5055 116.837 36.5882 116.881 38.0423 116.449C39.4938 116.018 40.6052 115.336 41.3754 114.412C42.1451 113.486 42.5383 112.371 42.5517 111.014C42.5718 108.878 42.5923 106.743 42.6127 104.607C42.6333 102.47 42.6538 100.333 42.6739 98.195C42.2082 98.1966 41.7428 98.1978 41.2775 98.1991L41.2775 98.1991C40.8117 98.2003 40.346 98.2015 39.88 98.2031C39.8633 100.455 39.847 102.707 39.8307 104.959L39.8307 104.96C39.8144 107.228 39.798 109.497 39.7812 111.766C39.7769 112.344 39.6409 112.815 39.3692 113.176C39.0974 113.536 38.6936 113.782 38.1639 113.917C37.6359 114.053 37.2245 114.009 36.9466 113.76C36.6707 113.514 36.5421 113.078 36.5447 112.471M34.7641 116.256L36.5964 112.472M34.7641 116.256C34.0203 115.684 33.6397 114.599 33.6397 113.024V112.995V112.966V112.937V112.908V112.879V112.85V112.821V112.792V112.763V112.734V112.705V112.676V112.647V112.618V112.589V112.56V112.531V112.502V112.473V112.444V112.415V112.386V112.357V112.328V112.299V112.27V112.241V112.212V112.183V112.154V112.125V112.096V112.067V112.038V112.009V111.98V111.951V111.922V111.893V111.864V111.835V111.806V111.777V111.748V111.719V111.69V111.661V111.632V111.603V111.574V111.545V111.516V111.487V111.458V111.429V111.4V111.371V111.342V111.313V111.284V111.255V111.226V111.197V111.168V111.139V111.11V111.081V111.052V111.023V110.994V110.965V110.936V110.907V110.878V110.849V110.82V110.791V110.762V110.733V110.704V110.675V110.646V110.617V110.588V110.559V110.53V110.501V110.472V110.443V110.414V110.385V110.356V110.327V110.298V110.269V110.24V110.211V110.182V110.153V110.124V110.095V110.066V110.037V110.008V109.979V109.95V109.921V109.892V109.863V109.834V109.805V109.776V109.747V109.718V109.689V109.66V109.631V109.602V109.573V109.544V109.515V109.486V109.457V109.428V109.399V109.37V109.341V109.312V109.283V109.254V109.225V109.196V109.167V109.138V109.109V109.08V109.051V109.022V108.993V108.964V108.935V108.906V108.877V108.848V108.819V108.79V108.761V108.732V108.703V108.674V108.645V108.616V108.587V108.558V108.529V108.5V108.471V108.442V108.413V108.384V108.355V108.326V108.297V108.268V108.239V108.21V108.181V108.152V108.123V108.094V108.065V108.036V108.007V107.978V107.949V107.92V107.891V107.862V107.833V107.804V107.775V107.746V107.717V107.688V107.659V107.63V107.601V107.572V107.543V107.514V107.485V107.456V107.427V107.398V107.369V107.34V107.311V107.282V107.253V107.224V107.195V107.166V107.137V107.108V107.079V107.05V107.021V106.992V106.963V106.934V106.905V106.876V106.847V106.818V106.789V106.76V106.731V106.702V106.673V106.644V106.615V106.586V106.557V106.528V106.499V106.47V106.441V106.412V106.383V106.354V106.325V106.296V106.267V106.238V106.209V106.18V106.151V106.122V106.093V106.064V106.035V106.006V105.977V105.948V105.919V105.89V105.861V105.832V105.803V105.774V105.745V105.716V105.687V105.658V105.629V105.6V105.571V105.542V105.513V105.484V105.455V105.426V105.397V105.368V105.339V105.31V105.281V105.252V105.223V105.194V105.165V105.136V105.107V105.078V105.049V105.02V104.991V104.962V104.933V104.904V104.875V104.846V104.817V104.788V104.759V104.73V104.701V104.672V104.643V104.614V104.585V104.556V104.527V104.498V104.469V104.44V104.411V104.382V104.353V104.324V104.295V104.266V104.237V104.208V104.179V104.15V104.121V104.092V104.063V104.034V104.005V103.976V103.947V103.918V103.889V103.86V103.831V103.802V103.773V103.744V103.715V103.686V103.657V103.628V103.599V103.57V103.541V103.512V103.483V103.454V103.425V103.396V103.367V103.338V103.309V103.28V103.251V103.222V103.193V103.163V103.134V103.105V103.076V103.047V103.018V102.989V102.96V102.931V102.902V102.873V102.844V102.815V102.786V102.757V102.728V102.699V102.67V102.641V102.612V102.583V102.554V102.525V102.496V102.467V102.438V102.409V102.38V102.351V102.322V102.293V102.264V102.235V102.206V102.177V102.148V102.119V102.09V102.061V102.032V102.003V101.974V101.945V101.916V101.887V101.858V101.829V101.8V101.771V101.742V101.713V101.684V101.655V101.626V101.597V101.568V101.539V101.51V101.481V101.452V101.423V101.394V101.365V101.336V101.307V101.278V101.249V101.22V101.191V101.162V101.133V101.104V101.075V101.046V101.017V100.988V100.959V100.93V100.901V100.872V100.843V100.814V100.785V100.756V100.727V100.698V100.669V100.64V100.611V100.582V100.553V100.524V100.495V100.466V100.437V100.408V100.379V100.35V100.321V100.292V100.263V100.234V100.205V100.176V100.147V100.118V100.089V100.06V100.031V100.002V99.9732V99.9442V99.9152V99.8862V99.8572V99.8282V99.7992V99.7702V99.7412V99.7122V99.6832V99.6541V99.6251V99.5961V99.5671V99.5381V99.5091V99.4801V99.4511V99.4221V99.3931V99.3641V99.3351V99.3061V99.2771V99.2481V99.2191V99.1901V99.1611V99.1321V99.1031V99.0741V99.0451V99.0161V98.9871V98.9581V98.9291V98.9001V98.8711V98.8421V98.8131V98.7841V98.7551V98.7261V98.6971V98.668V98.639V98.61V98.581V98.552V98.523V98.494V98.465V98.436V98.407V98.378V98.349V98.32V98.291V98.262V98.233V98.2265C34.6269 98.2217 35.6126 98.2184 36.5999 98.2152M34.7641 116.256L36.6001 98.1634M36.5447 112.471L36.5964 112.472M36.5447 112.471V112.471L36.5964 112.472M36.5447 112.471L36.5999 98.2152M36.5964 112.472L36.6517 98.215C36.6344 98.2151 36.6172 98.2151 36.5999 98.2152M36.5999 98.2152L36.6001 98.1634M36.6001 98.1634C36.6174 98.1633 36.6346 98.1633 36.6519 98.1632L36.6001 98.1634ZM42.6744 98.1432C42.6916 98.1432 42.7089 98.1431 42.7262 98.1431C42.726 98.1603 42.7258 98.1776 42.7257 98.1949L42.6744 98.1432Z" fill="#EBEBEB" stroke="white" stroke-width="0.103587"/>
<path d="M47.6384 113.858C46.653 114.056 45.6691 114.265 44.6882 114.489C44.7466 109.055 44.8051 103.623 44.8651 98.1897C45.8524 98.1865 46.8397 98.1849 47.8255 98.1832C47.7946 100.793 47.7633 103.404 47.732 106.014L47.732 106.015L47.732 106.019C47.7006 108.632 47.6693 111.245 47.6384 113.858Z" fill="#EBEBEB" stroke="white" stroke-width="0.103587"/>
<path d="M58.858 107.027C57.9195 107.086 56.9826 107.15 56.0473 107.225C56.0452 107.437 56.043 107.65 56.0407 107.863C56.0358 108.323 56.031 108.782 56.0276 109.241L56.0276 109.241C56.0225 109.72 55.8816 110.098 55.6005 110.374C55.3203 110.648 54.9071 110.813 54.3686 110.879C53.8311 110.945 53.4167 110.877 53.1378 110.658C52.8572 110.438 52.7263 110.075 52.7323 109.583C52.7323 109.583 52.7323 109.583 52.7323 109.583L52.7841 109.584L58.858 107.027ZM58.858 107.027C58.8549 107.321 58.8522 107.615 58.8494 107.909L58.8494 107.913C58.8464 108.225 58.8435 108.536 58.8401 108.849V108.849C58.8302 109.978 58.4341 110.871 57.6526 111.56C56.8696 112.25 55.7344 112.693 54.2441 112.904C52.7524 113.115 51.6359 112.984 50.879 112.461L50.8788 112.46C50.1246 111.944 49.7501 111.066 49.7651 109.83L58.858 107.027ZM51.0494 98.9789L51.0494 98.979C50.2751 99.6344 49.8776 100.589 49.8626 101.824L51.0494 98.9789ZM51.0494 98.9789C51.8247 98.321 52.9468 98.003 54.4278 98.003M51.0494 98.9789L54.4278 98.003M54.4278 98.003C55.9074 98.0046 57.0236 98.3161 57.7858 98.9179L57.8179 98.8773C58.5911 99.4891 58.9743 100.36 58.9642 101.503M54.4278 98.003L57.7858 98.9179C58.5444 99.5182 58.9224 100.372 58.9124 101.502M58.9642 101.503L58.9124 101.502M58.9642 101.503C58.9617 101.731 58.9596 101.96 58.9575 102.188C58.9554 102.417 58.9533 102.645 58.9508 102.874L58.9124 101.502M58.9642 101.503L58.9124 101.502C58.9124 101.502 58.9124 101.502 58.9124 101.502M49.7651 109.83C49.7987 107.161 49.8307 104.493 49.8626 101.824L49.7651 109.83ZM56.1133 101.439C56.1133 101.439 56.1133 101.439 56.1133 101.439L56.0615 101.439L56.1133 101.439Z" fill="#EBEBEB" stroke="white" stroke-width="0.103587"/>
<path d="M74.1094 108.49C74.1086 108.187 74.1073 107.884 74.1061 107.582C74.1048 107.279 74.1035 106.977 74.1027 106.674C73.1451 106.651 72.1892 106.638 71.2317 106.631C71.2317 106.648 71.2318 106.665 71.2318 106.683M74.1094 108.49L71.1748 101.232C71.1732 100.34 70.642 99.8908 69.5815 99.8924C68.5209 99.8924 67.9898 100.341 67.9881 101.235M74.1094 108.49C74.1145 109.595 73.7229 110.431 72.9346 111.001L74.1094 108.49ZM71.2318 106.683C71.2145 106.683 71.1973 106.683 71.18 106.682C71.1816 107.312 71.1816 107.941 71.1816 108.569V108.57M71.2318 106.683C72.1721 106.689 73.1109 106.703 74.0511 106.725C74.0519 107.01 74.0531 107.295 74.0543 107.58L74.0543 107.582C74.0555 107.885 74.0568 108.187 74.0576 108.49V108.49C74.0626 109.582 73.677 110.4 72.9042 110.959L72.9042 110.959C72.1287 111.521 70.9935 111.791 69.4905 111.798C67.9875 111.804 66.8541 111.544 66.0787 110.989C65.3078 110.435 64.9222 109.617 64.9288 108.522L64.9288 108.522L64.9641 101.399L64.9641 101.399C64.9691 100.303 65.3599 99.4655 66.1269 98.8832L66.127 98.8832C66.8975 98.2961 68.019 98.003 69.4991 98.003C70.9792 98.003 72.0991 98.2961 72.8697 98.8783C73.6383 99.4588 74.0258 100.295 74.0307 101.385L74.0356 102.659C73.1004 102.647 72.1636 102.639 71.2283 102.636C71.2282 102.41 71.2279 102.185 71.2275 101.959L71.2275 101.957C71.227 101.715 71.2266 101.473 71.2266 101.232V101.232C71.2258 100.775 71.089 100.423 70.8086 100.187C70.5299 99.9527 70.1178 99.8398 69.5814 99.8407M71.2318 106.683C71.2333 107.312 71.2333 107.941 71.2333 108.569V108.57M71.1816 108.57C71.1832 109.453 70.6471 109.885 69.5764 109.886M71.1816 108.57L71.2333 108.57M71.1816 108.57H71.2333V108.57M69.5764 109.886C68.5058 109.891 67.9713 109.463 67.973 108.58L67.9881 101.235M69.5764 109.886L69.5767 109.938C69.0358 109.941 68.6205 109.834 68.34 109.606C68.0573 109.377 67.9203 109.032 67.9212 108.58L67.9363 101.235L67.9881 101.235M69.5764 109.886L69.5814 99.8407M67.9881 101.235L67.9363 101.235C67.9372 100.778 68.074 100.425 68.3543 100.189C68.633 99.954 69.0451 99.8407 69.5814 99.8407M69.5814 99.8407L71.2333 108.57" fill="#EBEBEB" stroke="white" stroke-width="0.103587"/>
<path d="M79.046 110.065L79.0463 110.113L79.0942 110.116C80.7758 110.233 82.4542 110.381 84.1308 110.562C84.1347 110.887 84.1383 111.215 84.1419 111.543C84.1455 111.87 84.1491 112.197 84.1531 112.522C81.4631 112.186 78.7665 111.946 76.0651 111.802C76.0517 109.528 76.0388 107.254 76.0259 104.98L76.0259 104.98L76.0259 104.98C76.0129 102.707 76 100.434 75.9867 98.1612C76.4802 98.1612 76.9738 98.1616 77.4674 98.162H77.4674C77.9612 98.1624 78.455 98.1628 78.9489 98.1628C78.9648 100.146 78.9811 102.13 78.9974 104.114C79.0137 106.098 79.0301 108.082 79.046 110.065Z" fill="#EBEBEB" stroke="white" stroke-width="0.103587"/>
<path d="M91.8829 110.957L91.8761 110.922L91.8403 110.916C90.5876 110.714 89.3316 110.531 88.074 110.365L88.0253 110.358L88.0163 110.406C87.9688 110.659 87.9214 110.911 87.8741 111.162C87.7588 111.776 87.6439 112.388 87.5281 112.997C86.6213 112.855 85.7114 112.726 84.8015 112.607C85.7865 107.93 86.7649 103.134 87.7367 98.1763C89.2026 98.1764 90.6702 98.1796 92.1362 98.1829C93.2308 103.409 94.3254 108.836 95.4102 114.511C94.4215 114.285 93.4313 114.071 92.4395 113.873C92.4192 113.766 92.3989 113.66 92.3787 113.553C92.2132 112.683 92.0487 111.817 91.8829 110.957ZM89.8676 100.832L89.7658 100.833C89.3053 103.401 88.8448 105.926 88.3826 108.411L88.3725 108.466L88.4278 108.472C89.414 108.583 90.3986 108.704 91.3833 108.834L91.4546 108.843L91.4408 108.772C90.9164 106.078 90.392 103.432 89.8676 100.832Z" fill="#EBEBEB" stroke="white" stroke-width="0.103587"/>
<path d="M106.362 117.601V117.605C105.372 117.271 104.38 116.951 103.383 116.646C102.121 111.802 100.836 107.252 99.5371 102.949L99.4357 102.964C99.4691 107.155 99.5026 111.347 99.5343 115.538C98.6612 115.305 97.7865 115.08 96.9102 114.866L96.7447 98.195C97.9952 98.1983 99.2473 98.2016 100.498 98.2065C101.568 101.74 102.628 105.441 103.673 109.34L103.775 109.327L103.775 109.277C103.761 105.59 103.748 101.904 103.736 98.2169L106.362 98.2266V98.2512V98.2893V98.3274V98.3655V98.4036V98.4416V98.4797V98.5178V98.5559V98.594V98.6321V98.6702V98.7083V98.7464V98.7845V98.8226V98.8607V98.8988V98.9368V98.9749V99.013V99.0511V99.0892V99.1273V99.1654V99.2035V99.2416V99.2797V99.3178V99.3559V99.394V99.432V99.4701V99.5082V99.5463V99.5844V99.6225V99.6606V99.6987V99.7368V99.7749V99.813V99.851V99.8891V99.9272V99.9653V100.003V100.042V100.08V100.118V100.156V100.194V100.232V100.27V100.308V100.346V100.384V100.422V100.461V100.499V100.537V100.575V100.613V100.651V100.689V100.727V100.765V100.803V100.841V100.879V100.918V100.956V100.994V101.032V101.07V101.108V101.146V101.184V101.222V101.26V101.298V101.337V101.375V101.413V101.451V101.489V101.527V101.565V101.603V101.641V101.679V101.717V101.756V101.794V101.832V101.87V101.908V101.946V101.984V102.022V102.06V102.098V102.136V102.175V102.213V102.251V102.289V102.327V102.365V102.403V102.441V102.479V102.517V102.555V102.594V102.632V102.67V102.708V102.746V102.784V102.822V102.86V102.898V102.936V102.974V103.013V103.051V103.089V103.127V103.165V103.203V103.241V103.279V103.317V103.355V103.393V103.432V103.47V103.508V103.546V103.584V103.622V103.66V103.698V103.736V103.774V103.812V103.85V103.889V103.927V103.965V104.003V104.041V104.079V104.117V104.155V104.193V104.231V104.269V104.308V104.346V104.384V104.422V104.46V104.498V104.536V104.574V104.612V104.65V104.688V104.727V104.765V104.803V104.841V104.879V104.917V104.955V104.993V105.031V105.069V105.107V105.145V105.184V105.222V105.26V105.298V105.336V105.374V105.412V105.45V105.488V105.526V105.564V105.603V105.641V105.679V105.717V105.755V105.793V105.831V105.869V105.907V105.945V105.983V106.022V106.06V106.098V106.136V106.174V106.212V106.25V106.288V106.326V106.364V106.402V106.44V106.479V106.517V106.555V106.593V106.631V106.669V106.707V106.745V106.783V106.821V106.859V106.898V106.936V106.974V107.012V107.05V107.088V107.126V107.164V107.202V107.24V107.278V107.317V107.355V107.393V107.431V107.469V107.507V107.545V107.583V107.621V107.659V107.697V107.735V107.774V107.812V107.85V107.888V107.926V107.964V108.002V108.04V108.078V108.116V108.154V108.193V108.231V108.269V108.307V108.345V108.383V108.421V108.459V108.497V108.535V108.573V108.611V108.65V108.688V108.726V108.764V108.802V108.84V108.878V108.916V108.954V108.992V109.03V109.069V109.107V109.145V109.183V109.221V109.259V109.297V109.335V109.373V109.411V109.449V109.488V109.526V109.564V109.602V109.64V109.678V109.716V109.754V109.792V109.83V109.868V109.906V109.945V109.983V110.021V110.059V110.097V110.135V110.173V110.211V110.249V110.287V110.325V110.364V110.402V110.44V110.478V110.516V110.554V110.592V110.63V110.668V110.706V110.744V110.783V110.821V110.859V110.897V110.935V110.973V111.011V111.049V111.087V111.125V111.163V111.201V111.24V111.278V111.316V111.354V111.392V111.43V111.468V111.506V111.544V111.582V111.62V111.659V111.697V111.735V111.773V111.811V111.849V111.887V111.925V111.963V112.001V112.039V112.078V112.116V112.154V112.192V112.23V112.268V112.306V112.344V112.382V112.42V112.458V112.496V112.535V112.573V112.611V112.649V112.687V112.725V112.763V112.801V112.839V112.877V112.915V112.954V112.992V113.03V113.068V113.106V113.144V113.182V113.22V113.258V113.296V113.334V113.373V113.411V113.449V113.487V113.525V113.563V113.601V113.639V113.677V113.715V113.753V113.792V113.83V113.868V113.906V113.944V113.982V114.02V114.058V114.096V114.134V114.172V114.211V114.249V114.287V114.325V114.363V114.401V114.439V114.477V114.515V114.553V114.591V114.63V114.668V114.706V114.744V114.782V114.82V114.858V114.896V114.934V114.972V115.01V115.049V115.087V115.125V115.163V115.201V115.239V115.277V115.315V115.353V115.391V115.429V115.467V115.506V115.544V115.582V115.62V115.658V115.696V115.734V115.772V115.81V115.848V115.886V115.925V115.963V116.001V116.039V116.077V116.115V116.153V116.191V116.229V116.267V116.306V116.344V116.382V116.42V116.458V116.496V116.534V116.572V116.61V116.648V116.686V116.725V116.763V116.801V116.839V116.877V116.915V116.953V116.991V117.029V117.067V117.105V117.144V117.182V117.22V117.258V117.296V117.334V117.372V117.41V117.448V117.486V117.524V117.563V117.601Z" fill="#EBEBEB" stroke="white" stroke-width="0.103587"/>
</svg>
