<svg width="95" height="25" viewBox="0 0 95 25" fill="none" xmlns="http://www.w3.org/2000/svg">
<path d="M16.0236 3.12045C17.4694 2.11768 18.9021 1.09809 20.3536 0.104126C15.1226 5.07794 9.87444 10.0349 4.63526 15.0007C4.60504 15.0376 4.54459 15.1113 4.51355 15.1481C4.48986 12.7998 4.50375 10.4506 4.50702 8.10228C4.9138 8.64371 5.32957 9.17794 5.72328 9.72818C5.72574 9.73218 5.73145 9.73859 5.7339 9.74259C5.82866 9.87155 5.92994 9.99729 6.05492 10.0998C9.36719 7.75867 12.7031 5.45038 16.0236 3.12045Z" fill="#ED1B24"/>
<path d="M5.72461 9.72839C5.72742 9.73298 5.73397 9.74032 5.73678 9.74491C5.73397 9.74032 5.72742 9.73298 5.72461 9.72839Z" fill="#AF7977"/>
<path d="M0.00195312 10.1187C1.12102 10.1203 2.24008 10.1162 3.35997 10.1203C3.3567 10.785 3.35997 11.4498 3.35833 12.1146C2.92051 12.1154 2.4835 12.1106 2.04649 12.1162C2.04976 14.1281 2.04404 16.1409 2.04894 18.1528C4.80903 18.1496 7.56994 18.1544 10.33 18.1512C11.3454 18.136 12.2537 17.2718 12.2962 16.2763C12.3051 15.553 12.2945 14.8298 12.3002 14.1065C12.3125 13.187 11.5806 12.3244 10.6584 12.1634C11.1616 11.6332 11.7203 11.1559 12.2333 10.6345C13.5132 11.3481 14.3407 12.7489 14.3513 14.1906C14.3472 14.9091 14.3603 15.6283 14.344 16.3475C14.2623 17.9494 13.1122 19.4383 11.5594 19.9445C11.0635 20.1167 10.5351 20.172 10.0115 20.1648C7.35674 20.1632 4.70284 20.1664 2.04813 20.1632C2.04813 21.5016 2.04404 22.8399 2.05058 24.1783C1.36852 24.1831 0.686462 24.1791 0.00440384 24.1799C0.000319665 19.4928 0.00440363 14.8057 0.00195312 10.1187Z" fill="white"/>
<path d="M15.9941 10.1182C19.4722 10.1198 22.9503 10.1158 26.4284 10.1198C28.4329 10.191 30.2185 11.8906 30.3296 13.8585C30.3402 14.6883 30.3353 15.5181 30.3329 16.3478C30.2683 17.9786 29.0627 19.4595 27.4919 19.9593C28.428 20.8844 29.3731 21.8014 30.31 22.7265C30.3688 23.2039 30.3206 23.6964 30.3329 24.1802C29.8509 24.1802 29.3698 24.1802 28.8887 24.1794C27.5246 22.841 26.1588 21.5035 24.7947 20.1643C22.5435 20.1619 20.2915 20.1675 18.0403 20.1619C18.0338 21.5003 18.033 22.8394 18.0403 24.1786C17.3591 24.1826 16.677 24.1762 15.9958 24.1826C15.9925 19.4939 15.9958 14.806 15.9941 10.1182ZM18.037 12.1125C18.0387 14.1261 18.0305 16.1396 18.0411 18.1532C20.8069 18.1476 23.5727 18.1564 26.3386 18.1492C27.3506 18.1307 28.245 17.2625 28.2924 16.2742C28.3063 15.5485 28.2965 14.8221 28.2973 14.0964C28.2941 13.3195 27.7803 12.5818 27.0525 12.2823C26.7037 12.1197 26.3108 12.1045 25.9326 12.1133C23.3007 12.1141 20.6689 12.1141 18.037 12.1125Z" fill="white"/>
<path d="M35.7551 10.1264C37.8985 10.1063 40.0427 10.1256 42.1861 10.1175C43.4162 10.0911 44.6194 10.687 45.3905 11.6153C45.9836 12.3057 46.3242 13.1987 46.3364 14.1022C46.3364 16.1334 46.3364 18.1646 46.3356 20.1965C46.3242 21.1408 45.968 22.0787 45.3301 22.7884C44.5778 23.6534 43.4334 24.1772 42.2727 24.178C40.1759 24.1804 38.079 24.1844 35.9822 24.1764C34.4016 24.1668 32.8954 23.1552 32.304 21.7199C32.1039 21.2361 31.9854 20.7155 31.9928 20.1917C31.992 18.1638 31.992 16.1366 31.9928 14.1094C31.9879 13.1211 32.3841 12.1359 33.0751 11.4159C33.758 10.6734 34.739 10.204 35.7551 10.1264ZM35.9961 12.1191C34.971 12.1415 34.0692 13.0217 34.0333 14.0253C34.0267 16.0837 34.03 18.1429 34.0316 20.2013C34.03 21.2257 34.9383 22.1444 35.983 22.1732C38.0799 22.1812 40.1759 22.1756 42.2727 22.1764C43.3411 22.1788 44.2968 21.2466 44.2886 20.1965C44.2919 18.1477 44.2968 16.0989 44.287 14.0509C44.2715 13.0169 43.3264 12.1175 42.2759 12.1167C40.1824 12.1135 38.0888 12.1087 35.9961 12.1191Z" fill="white"/>
<path d="M51.8101 10.2561C52.9373 9.99259 54.1062 10.152 55.2416 10.2737C55.2408 10.8704 55.2441 11.4671 55.24 12.0638C55.0284 12.0646 54.8177 12.0638 54.6069 12.0614C54.5163 11.7154 54.4141 11.3718 54.3194 11.0274C53.4388 11.0787 52.4799 10.8664 51.6704 11.3037C51.0602 11.6065 50.8707 12.5444 51.4213 12.9873C51.9775 13.3982 52.6767 13.5375 53.3171 13.7754C54.0384 14.0317 54.8217 14.3441 55.2367 15.0185C55.6157 15.6953 55.5357 16.5827 55.0815 17.2074C54.62 17.8402 53.8293 18.1485 53.0656 18.2487C51.9718 18.372 50.7833 18.2767 49.8301 17.6936C49.9281 17.4069 50.0016 17.1121 50.1143 16.831C50.825 17.2475 51.6663 17.4029 52.4872 17.382C52.9863 17.3588 53.5181 17.2731 53.9151 16.9535C54.3578 16.5979 54.473 15.9011 54.1421 15.4382C53.8505 15.0409 53.3531 14.8767 52.9022 14.7205C52.0772 14.4394 51.1689 14.2384 50.517 13.6304C49.8905 13.0666 49.8121 12.0854 50.1813 11.3638C50.4974 10.7583 51.155 10.4059 51.8101 10.2561Z" fill="white"/>
<path d="M82.4053 11.0874C83.2507 10.381 84.3886 10.0879 85.4848 10.1175C86.233 10.1335 86.9804 10.2016 87.7237 10.2849C87.7237 10.8776 87.7221 11.4711 87.7253 12.0638C87.5146 12.0638 87.3047 12.0638 87.0956 12.0646C86.9992 11.7186 86.8995 11.3742 86.8023 11.029C85.8964 11.0602 84.9514 10.9088 84.0855 11.246C83.285 11.536 82.6463 12.1983 82.3751 12.9897C82.1014 13.7842 82.1137 14.6732 82.4069 15.4606C82.6863 16.2054 83.2777 16.8366 84.0308 17.1377C84.6949 17.4245 85.4456 17.4092 86.1472 17.2891C86.603 17.1986 87.0621 17.0656 87.446 16.7997C87.5366 17.0889 87.6232 17.3804 87.7286 17.6655C87.1985 18.0412 86.5352 18.1765 85.8973 18.2542C84.5895 18.404 83.1739 18.0668 82.2158 17.1473C80.5307 15.5671 80.6222 12.562 82.4053 11.0874Z" fill="white"/>
<path d="M56.9395 10.2496C58.6238 10.256 60.3073 10.248 61.9916 10.2536C61.994 10.5604 61.9932 10.868 61.9932 11.1755C60.6814 11.1747 59.3695 11.1779 58.0569 11.1739C58.0602 11.9596 58.0577 12.7446 58.0577 13.5303C59.1882 13.5351 60.3195 13.5447 61.45 13.5255C61.499 13.8298 61.4631 14.1398 61.4745 14.4473C60.335 14.4481 59.1964 14.4441 58.0577 14.4497C58.0659 15.3804 58.043 16.3127 58.07 17.2434C59.4153 17.2362 60.7614 17.2402 62.1068 17.241C62.1092 17.547 62.1084 17.8537 62.1051 18.1605C60.384 18.1549 58.663 18.1557 56.9427 18.1597C56.937 15.523 56.9419 12.8863 56.9395 10.2496Z" fill="white"/>
<path d="M63.6859 10.248C64.5534 10.2601 65.4208 10.2432 66.2891 10.2577C67.0945 10.2945 67.9661 10.4923 68.5322 11.0962C69.1424 11.745 69.22 12.7293 68.9823 13.5471C68.7731 14.2976 68.1442 14.8775 67.4131 15.1466C68.0225 16.1501 68.6376 17.1497 69.2363 18.1597C68.8336 18.1541 68.4309 18.1565 68.029 18.1573C67.4466 17.2274 66.8814 16.2879 66.2949 15.3604C65.7941 15.3893 65.291 15.3724 64.7903 15.3748C64.7919 16.3023 64.7886 17.229 64.7911 18.1565C64.4227 18.1573 64.0535 18.1541 63.6851 18.1605C63.6638 15.5238 63.6777 12.8855 63.6859 10.248ZM64.7919 11.1763C64.7894 12.2712 64.7886 13.3653 64.7927 14.4602C65.2616 14.4498 65.7312 14.4714 66.2001 14.4482C66.7278 14.4177 67.2759 14.2343 67.6247 13.8282C68.0282 13.3276 68.1042 12.5996 67.8501 12.0181C67.6353 11.5408 67.1101 11.2909 66.6077 11.2196C66.0065 11.1371 65.3963 11.1899 64.7919 11.1763Z" fill="white"/>
<path d="M69.4961 10.2538C69.8792 10.2755 70.2835 10.2074 70.6544 10.2819C71.4295 12.1753 72.1917 14.0759 72.9652 15.9709C73.1269 16.3994 73.3401 16.8135 73.4185 17.2692C73.6268 16.4811 74.0009 15.7491 74.286 14.9866C74.9289 13.4087 75.5603 11.8253 76.2121 10.2506C76.5944 10.253 76.9775 10.253 77.3606 10.2546C76.257 12.8889 75.1461 15.5208 74.0434 18.1559C73.6309 18.1567 73.2184 18.1583 72.8059 18.1559C71.7105 15.5184 70.5858 12.8929 69.4961 10.2538Z" fill="white"/>
<path d="M78.4315 10.2537C78.8015 10.2529 79.1724 10.2521 79.544 10.2505C79.5538 12.8864 79.5448 15.5223 79.5489 18.1573C79.174 18.1517 78.7991 18.1685 78.4258 18.1461C78.438 15.5158 78.4266 12.8848 78.4315 10.2537Z" fill="white"/>
<path d="M89.1934 18.1565C89.1999 15.5214 89.1868 12.8863 89.1999 10.2512C90.8826 10.2528 92.5653 10.252 94.2471 10.252C94.2455 10.5588 94.2447 10.8655 94.2471 11.1731C92.9369 11.1771 91.6267 11.1771 90.3165 11.1731C90.3043 11.9604 90.3157 12.7469 90.3116 13.5343C91.447 13.5351 92.5832 13.5375 93.7186 13.5327C93.7243 13.8378 93.7211 14.143 93.7211 14.4489C92.584 14.4457 91.447 14.4457 90.31 14.4489C90.3181 15.3796 90.3026 16.3103 90.3173 17.241C91.6659 17.2394 93.0145 17.2378 94.3631 17.2418C94.3623 17.547 94.3623 17.8529 94.3631 18.1589C92.6396 18.1549 90.9169 18.1581 89.1934 18.1565Z" fill="white"/>
<path d="M50.1208 20.613C50.3111 20.609 50.5022 20.609 50.6934 20.6162C51.1271 21.3026 51.5355 22.005 51.9709 22.6906C52.394 21.997 52.8131 21.3002 53.2501 20.6154C53.4396 20.6098 53.6307 20.609 53.8219 20.6114C53.8211 21.7463 53.8178 22.882 53.8243 24.0178C53.6626 24.0194 53.5017 24.0202 53.3416 24.021C53.3399 23.0767 53.3285 22.1324 53.3669 21.1897C53.0001 21.8512 52.5933 22.4896 52.2094 23.1415C52.0485 23.1407 51.8884 23.1407 51.7291 23.1415C51.3419 22.4848 50.9286 21.8424 50.57 21.1704C50.6248 22.1187 50.5872 23.0695 50.597 24.0186C50.4369 24.0194 50.2776 24.0202 50.1191 24.021C50.1224 22.8852 50.1183 21.7487 50.1208 20.613Z" fill="white"/>
<path d="M60.4238 20.6115C60.6027 20.6107 60.7816 20.6115 60.9621 20.6115C61.5927 21.5445 62.2511 22.4624 62.8351 23.4251C62.8057 22.488 62.8221 21.5501 62.8155 20.6131C62.9658 20.6106 63.1178 20.6099 63.2705 20.6107C63.2648 21.7472 63.2697 22.8845 63.2681 24.021C63.0826 24.0218 62.8988 24.0202 62.7159 24.0146C62.1122 23.0663 61.431 22.1653 60.8568 21.2001C60.869 22.1396 60.8739 23.0783 60.8715 24.0178C60.722 24.0186 60.5733 24.0194 60.4255 24.021C60.4238 22.8845 60.4255 21.748 60.4238 20.6115Z" fill="white"/>
<path d="M74.2188 20.6129C74.9449 20.6073 75.6711 20.6113 76.3981 20.6105C76.3973 20.7467 76.3923 20.882 76.3858 21.019C75.8238 21.0022 75.261 21.011 74.699 21.0126C74.6884 21.3498 74.6941 21.6878 74.6901 22.0258C75.1842 22.0338 75.6784 22.0266 76.1726 22.0306C76.1694 22.1595 76.1669 22.2893 76.1636 22.419C75.6809 22.4126 75.1981 22.4254 74.7162 22.4126C74.6631 22.8139 74.7007 23.2184 74.6884 23.622C75.2741 23.6404 75.8614 23.626 76.4479 23.6292C76.4479 23.7582 76.4487 23.8871 76.4512 24.0177C75.7078 24.0233 74.9645 24.0209 74.222 24.0193C74.2171 22.8836 74.2228 21.7486 74.2188 20.6129Z" fill="white"/>
<path d="M87.9126 20.6097C88.0948 20.6097 88.2785 20.6105 88.4623 20.6162C89.0856 21.5564 89.7587 22.4671 90.3329 23.4378C90.3108 22.4959 90.3141 21.5532 90.3133 20.6113C90.4611 20.6105 90.6098 20.6097 90.7601 20.6097C90.7585 21.7463 90.7617 22.882 90.7585 24.0177C90.5779 24.0201 90.3974 24.0201 90.2194 24.0201C89.5937 23.0766 88.9394 22.1515 88.3333 21.196C88.3978 22.1347 88.3496 23.0774 88.3643 24.0185C88.2124 24.0193 88.0605 24.0193 87.9102 24.0209C87.9183 22.8836 87.9142 21.7471 87.9126 20.6097Z" fill="white"/>
<path d="M66.2678 20.6178C66.4491 20.6098 66.6313 20.6098 66.8135 20.6162C67.2799 21.7535 67.7683 22.8828 68.238 24.0194C68.0738 24.0202 67.9097 24.0202 67.7463 24.021C67.6107 23.699 67.48 23.3762 67.3509 23.0526C66.8094 23.055 66.2686 23.055 65.7287 23.051C65.6045 23.3746 65.4706 23.6942 65.3448 24.0178C65.1773 24.0186 65.0115 24.0194 64.8457 24.0186C65.3187 22.8844 65.8063 21.7567 66.2678 20.6178ZM66.5382 20.9974C66.3626 21.5757 66.0946 22.122 65.8823 22.6882C66.3201 22.6938 66.7587 22.6906 67.1982 22.6914C66.9874 22.1228 66.7285 21.5725 66.5382 20.9974Z" fill="white"/>
<path d="M69.7904 21.2378C70.1106 20.8045 70.6571 20.5739 71.1938 20.5562C71.5768 20.545 71.9608 20.5787 72.3414 20.6283C72.3422 20.8814 72.3422 21.1337 72.343 21.3876C72.2752 21.3884 72.1388 21.3908 72.071 21.3916C72.0294 21.2418 71.9877 21.0929 71.9493 20.9439C71.4747 20.9495 70.9536 20.875 70.537 21.1513C69.7145 21.6591 69.752 23.0271 70.5852 23.5077C71.0189 23.768 71.5605 23.7127 72.0212 23.559C72.0204 23.3075 72.0212 23.0568 72.0204 22.8061C71.7664 22.8101 71.5131 22.8101 71.2599 22.8029C71.2583 22.6859 71.2566 22.5698 71.255 22.4537C71.6577 22.4008 72.0653 22.444 72.4713 22.4272C72.4884 22.8549 72.4697 23.2834 72.4835 23.7111C71.8709 24.154 70.9961 24.1965 70.3271 23.8513C69.3902 23.3731 69.1721 22.042 69.7904 21.2378Z" fill="white"/>
<path d="M78.2368 20.6124C78.4288 20.6084 78.6216 20.6092 78.8151 20.6164C79.2456 21.3052 79.6598 22.0036 80.0894 22.6924C80.5093 21.9996 80.9389 21.3124 81.358 20.6188C81.5515 20.61 81.746 20.6084 81.9412 20.6124C81.9387 21.7481 81.9436 22.8838 81.9379 24.0188C81.7803 24.0204 81.6226 24.0204 81.4674 24.0204C81.4641 23.0761 81.4592 22.131 81.4838 21.1867C81.1252 21.853 80.7102 22.489 80.3296 23.1433C80.167 23.1417 80.0061 23.1401 79.8452 23.1409C79.4784 22.4866 79.0455 21.8682 78.7171 21.1947C78.7032 22.1366 78.7188 23.0785 78.7163 24.0204C78.5546 24.0196 78.3945 24.0196 78.2344 24.0196C78.2409 22.8838 78.236 21.7481 78.2368 20.6124Z" fill="white"/>
<path d="M83.8998 20.6122C84.6268 20.609 85.3529 20.6106 86.0799 20.6106C86.0799 20.7436 86.0791 20.8773 86.0799 21.0111C85.513 21.0111 84.9461 21.0055 84.3801 21.0143C84.3825 21.3523 84.3784 21.6911 84.3801 22.0291C84.8702 22.0291 85.3611 22.0323 85.852 22.0267C85.8545 22.1564 85.8569 22.287 85.8586 22.4183C85.3668 22.4175 84.8751 22.4191 84.3841 22.4167C84.376 22.8196 84.3817 23.2233 84.3809 23.627C84.9649 23.6342 85.549 23.6278 86.1338 23.631C86.1314 23.7591 86.1322 23.8889 86.1322 24.0186C85.3872 24.0218 84.6415 24.0218 83.8965 24.0186C83.903 22.8829 83.8973 21.748 83.8998 20.6122Z" fill="white"/>
<path d="M92.3615 20.61C93.2412 20.6124 94.121 20.6068 95.0007 20.6132C94.9983 20.7469 94.9974 20.8807 94.9966 21.0153C94.6339 21.0137 94.2713 21.0145 93.9094 21.0153C93.9102 22.0164 93.9119 23.0184 93.9086 24.0204C93.7477 24.0196 93.5892 24.0204 93.4307 24.0212C93.4307 23.02 93.4283 22.0188 93.4324 21.0177C93.0803 21.0153 92.7282 21.0064 92.3778 21.0249C92.3215 20.8919 92.3492 20.7477 92.3615 20.61Z" fill="white"/>
<path d="M56.8163 20.622C57.0058 20.606 57.1969 20.606 57.3873 20.626C57.8308 21.7674 58.3283 22.8895 58.8012 24.0196C58.6313 24.0196 58.463 24.0196 58.2948 24.018C58.1722 23.6944 58.0334 23.3773 57.9092 23.0553C57.3693 23.0513 56.8294 23.0569 56.2902 23.0529C56.1538 23.3716 56.0313 23.6968 55.8998 24.0188C55.7332 24.0196 55.5673 24.0196 55.4023 24.0196C55.8712 22.8863 56.3687 21.7634 56.8163 20.622ZM57.081 20.9873C56.9421 21.5783 56.6407 22.119 56.4381 22.6908C56.8784 22.6924 57.3178 22.69 57.7589 22.6916C57.5367 22.1222 57.2901 21.5615 57.081 20.9873Z" fill="white"/>
</svg>
