<svg width="112" height="17" viewBox="0 0 112 17" fill="none" xmlns="http://www.w3.org/2000/svg">
<path d="M2.94576 13.8841V3.6705H5.45006L7.12923 2.29985L5.45006 0.929199H0.954071C0.700941 0.929454 0.458273 1.02321 0.27938 1.18987C0.100486 1.35652 4.09963e-07 1.58245 5.57565e-07 1.81801V15.7357C-0.000134985 15.8523 0.0244434 15.9679 0.0723292 16.0757C0.120215 16.1836 0.19047 16.2815 0.279077 16.3641C0.367685 16.4466 0.472906 16.5121 0.588726 16.5568C0.704546 16.6015 0.828694 16.6245 0.954071 16.6245H7.43866V13.8841H2.94576Z" fill="#D12E56"/>
<path d="M13.9204 3.67051V13.8842H11.4161L9.74107 15.2548L11.4202 16.6255H15.9162C16.0416 16.6255 16.1658 16.6025 16.2816 16.5578C16.3974 16.5131 16.5026 16.4476 16.5912 16.3651C16.6798 16.2825 16.7501 16.1845 16.798 16.0767C16.8459 15.9689 16.8704 15.8533 16.8703 15.7366V1.81899C16.8703 1.58343 16.7698 1.3575 16.5909 1.19084C16.412 1.02419 16.1694 0.93043 15.9162 0.930176H9.43164V3.67147L13.9204 3.67051Z" fill="#D12E56"/>
<path d="M27.7994 10.0565L25.5522 9.49584C24.7234 9.26976 24.1509 8.96108 23.8347 8.56982C23.5185 8.17855 23.36 7.63746 23.3594 6.94656C23.3594 6.0736 23.6487 5.45595 24.2274 5.09362C24.806 4.73129 25.7955 4.55042 27.1958 4.55103C28.8158 4.57454 30.2045 4.68245 31.3618 4.87477L31.1791 6.48988C29.644 6.46758 28.487 6.45612 27.7081 6.45552C27.2814 6.45552 26.9859 6.45552 26.8216 6.46366C26.6558 6.46986 26.4909 6.48954 26.3288 6.52244C26.1636 6.5568 26.0635 6.61287 26.0275 6.68521C25.9846 6.79077 25.9657 6.90349 25.9721 7.01619C25.9718 7.06725 25.9747 7.11829 25.9808 7.16902C25.9872 7.21425 26.0031 7.25788 26.0275 7.29744C26.0508 7.33633 26.0732 7.36707 26.0907 7.38787C26.1181 7.41823 26.151 7.44393 26.1879 7.46383C26.2252 7.48733 26.2649 7.50733 26.3065 7.52352C26.3366 7.53527 26.391 7.55517 26.4707 7.5823C26.5504 7.60943 26.6107 7.63113 26.6535 7.64289L26.8906 7.70257C27.0063 7.73061 27.0947 7.7496 27.156 7.76135L29.4577 8.33921C30.2618 8.55444 30.8343 8.84051 31.1752 9.19741C31.516 9.55432 31.6865 10.0842 31.6865 10.7872C31.6865 11.785 31.3761 12.462 30.7553 12.8183C30.1345 13.1746 29.0685 13.3527 27.5574 13.3527C26.2056 13.3607 24.8555 13.2645 23.5207 13.0652L23.685 11.432C24.123 11.4567 25.1644 11.4682 26.809 11.4663C27.7466 11.4663 28.3587 11.4296 28.6451 11.356C28.7723 11.3337 28.8862 11.2687 28.9652 11.1733C29.0443 11.0779 29.0829 10.9589 29.0737 10.8387C29.0741 10.7874 29.0711 10.7361 29.065 10.685C29.059 10.6401 29.0434 10.5968 29.0193 10.5575C28.9988 10.5249 28.9743 10.4945 28.9464 10.4671C28.9103 10.4373 28.8705 10.4118 28.8278 10.3911C28.7724 10.3631 28.7306 10.3405 28.6995 10.3224C28.6437 10.2961 28.5859 10.2738 28.5265 10.2555C28.441 10.2265 28.3739 10.2075 28.3253 10.1958L28.0697 10.1361C27.9777 10.1154 27.8874 10.0888 27.7994 10.0565Z" fill="white"/>
<path d="M32.818 6.65728L32.5624 4.95716C34.1115 4.69164 35.6829 4.55515 37.2581 4.54932C38.475 4.54932 39.3702 4.77901 39.9437 5.23841C40.5172 5.6978 40.8033 6.4936 40.802 7.62581V13.1684H38.6636L38.3895 11.8933C37.4888 12.879 36.3804 13.3718 35.0643 13.3718C34.1992 13.3718 33.4929 13.1608 32.9454 12.7388C32.3978 12.3168 32.1237 11.7248 32.123 10.9627V10.1127C32.123 9.44349 32.366 8.9235 32.854 8.54821C33.3419 8.17292 34.0204 7.98753 34.8816 7.98753H38.0969V7.61405C38.0853 7.1836 37.9787 6.89482 37.7771 6.74771C37.5769 6.60031 37.1939 6.52525 36.6175 6.52525C35.619 6.52223 34.3525 6.56625 32.818 6.65728ZM34.7912 10.2954V10.6173C34.7912 11.1961 35.1443 11.4851 35.8506 11.4845C36.5816 11.4845 37.3307 11.2132 38.0979 10.6706V9.49503H35.6679C35.0834 9.50769 34.7912 9.77446 34.7912 10.2954Z" fill="white"/>
<path d="M47.7487 2.76858H46.0486C45.5983 2.76858 45.2847 2.84786 45.1078 3.00642C44.9309 3.16498 44.8427 3.44833 44.8434 3.85648V4.79154H46.939V6.47357H44.8434V13.1682H42.1218V6.46996H41.2305V4.87293L42.1218 4.78793V3.51284C42.1218 1.78981 43.108 0.928597 45.0805 0.9292C46.3597 0.9292 47.3343 0.985871 48.0043 1.09921L47.7487 2.76858Z" fill="white"/>
<path d="M53.2095 9.82239H49.9533C50.0389 10.4337 50.2368 10.8443 50.5472 11.0541C50.8576 11.2639 51.3721 11.3688 52.0907 11.3688C53.2142 11.3592 54.3364 11.2958 55.4529 11.1789L55.7085 12.7424C54.7702 13.1644 53.4609 13.3755 51.7807 13.3755C50.0875 13.3755 48.8815 13.0357 48.1629 12.3563C47.4443 11.6768 47.0853 10.5534 47.0859 8.9859C47.0859 7.34306 47.4362 6.19306 48.1367 5.53592C48.8371 4.87879 50.0155 4.54992 51.6718 4.54932C53.1706 4.54932 54.2547 4.79047 54.9241 5.27277C55.5935 5.75507 55.934 6.48787 55.9457 7.47117C55.9457 8.25431 55.7299 8.8394 55.2973 9.23097C54.8648 9.62254 54.1679 9.82239 53.2095 9.82239ZM49.9047 8.30947H52.462C52.7915 8.30947 53.0132 8.23622 53.1288 8.08791C53.2445 7.9396 53.3028 7.72618 53.3028 7.44313C53.3028 7.04523 53.193 6.77002 52.9733 6.61749C52.7536 6.46496 52.3499 6.38779 51.7622 6.38599C51.0669 6.38599 50.5919 6.51319 50.3373 6.76761C50.0826 7.02202 49.9365 7.53507 49.8989 8.30676L49.9047 8.30947Z" fill="white"/>
<path d="M58.7553 4.78806L58.9556 6.02878C60.2587 5.04187 61.544 4.54871 62.8115 4.54932C63.6273 4.54932 64.2513 4.74767 64.6835 5.14436C65.1157 5.54105 65.3322 6.11891 65.3328 6.87794V13.1684H62.6462V7.66017C62.6462 7.28579 62.5821 7.02715 62.4518 6.88788C62.3216 6.74862 62.0961 6.67446 61.7714 6.67446C61.1986 6.67446 60.3643 6.92978 59.2685 7.44042V13.1684H56.5625V4.78806H58.7553Z" fill="white"/>
<path d="M72.105 9.82232H68.8566C68.9422 10.4336 69.1401 10.8442 69.4505 11.054C69.7615 11.2638 70.2748 11.3687 70.994 11.3687C72.1162 11.359 73.2371 11.2956 74.3523 11.1788L74.6079 12.7424C73.6696 13.1644 72.3603 13.3754 70.6801 13.3754C68.9869 13.3754 67.7809 13.0357 67.0623 12.3562C66.3437 11.6768 65.9844 10.5545 65.9844 8.98944C65.9844 7.3466 66.3346 6.19661 67.0351 5.53947C67.7356 4.88233 68.914 4.55346 70.5702 4.55286C72.0678 4.55286 73.1515 4.79401 73.8216 5.27631C74.4916 5.75861 74.8328 6.49021 74.8451 7.47109C74.8451 8.25423 74.6283 8.83933 74.1968 9.2309C73.7652 9.62247 73.0673 9.82232 72.105 9.82232ZM68.8002 8.3094H71.3576C71.6861 8.3094 71.9087 8.23615 72.0244 8.08784C72.14 7.93953 72.1974 7.72611 72.1974 7.44306C72.1974 7.04516 72.0879 6.76994 71.8688 6.61742C71.6498 6.46489 71.2474 6.38772 70.6616 6.38591C69.9663 6.38591 69.4913 6.51312 69.2367 6.76753C68.9801 7.01893 68.8352 7.5362 68.7983 8.30668L68.8002 8.3094Z" fill="white"/>
<path d="M78.8708 6.46985V10.4308C78.8708 10.7482 78.9447 10.9733 79.0895 11.0936C79.2343 11.2139 79.4929 11.2799 79.8574 11.2799H81.0092L81.3008 13.0316C80.6068 13.2577 79.7602 13.371 78.7609 13.3716C77.9458 13.3716 77.3124 13.1606 76.8607 12.7386C76.409 12.3166 76.1822 11.7245 76.1803 10.9625V6.46985H75.2715V4.87282L76.1803 4.78782V2.44202H78.8708V4.78782H81.3737V6.46985H78.8708Z" fill="white"/>
<path d="M84.6118 4.78797L84.8062 6.01151C85.0978 5.50871 85.4749 4.94532 86.1738 4.76265C86.9514 4.55827 87.7056 4.56732 88.388 4.56732C90.4616 4.56732 91.4983 6.06276 91.4983 9.05364C91.4983 10.6633 91.2213 11.788 90.6673 12.4276C90.1132 13.0673 89.2453 13.3874 88.0633 13.388C86.8451 13.388 85.8407 13.1167 85.0501 12.5741C85.1107 13.1732 85.1289 13.7752 85.1046 14.3765V16.3994H82.418V4.78797H84.6118ZM85.1046 7.33815V11.1788C86.0539 11.4055 86.7343 11.5188 87.1458 11.5188C87.7426 11.5188 88.1537 11.3603 88.3792 11.0431C88.6047 10.726 88.7175 10.0629 88.7175 9.05364C88.7175 8.06793 88.6138 7.40235 88.4064 7.0569C88.2004 6.71236 87.8339 6.53873 87.31 6.53873C86.7181 6.53873 86.0629 6.31537 85.1046 7.33815Z" fill="white"/>
<path d="M92.8669 6.65728L92.6102 4.95716C94.1597 4.69164 95.7315 4.55515 97.3069 4.54932C98.5239 4.54932 99.4188 4.77901 99.9916 5.23841C100.564 5.6978 100.851 6.4936 100.851 7.62581V13.1684H98.7124L98.4383 11.8933C97.5376 12.879 96.4292 13.3718 95.1131 13.3718C94.2481 13.3718 93.5417 13.1608 92.9942 12.7388C92.4466 12.3168 92.1725 11.7248 92.1719 10.9627V10.1127C92.1719 9.44349 92.4158 8.9235 92.9028 8.54821C93.3898 8.17292 94.0692 7.98753 94.9314 7.98753H98.1467V7.61405C98.1344 7.1836 98.0278 6.89482 97.8269 6.74771C97.6257 6.60031 97.2437 6.52525 96.6674 6.52525C95.6701 6.52223 94.4033 6.56625 92.8669 6.65728ZM94.84 10.2954V10.6173C94.84 11.1961 95.1932 11.4851 95.8995 11.4845C96.6304 11.4845 97.3795 11.2132 98.1467 10.6706V9.49503H95.7167C95.1335 9.50769 94.8423 9.77446 94.8429 10.2954H94.84Z" fill="white"/>
<path d="M111.002 4.78784L107.804 13.2884C107.641 13.7267 107.43 14.1482 107.174 14.5463C106.906 14.9532 106.583 15.3272 106.215 15.6595C105.804 16.0281 105.304 16.2992 104.757 16.4499C104.133 16.6234 103.475 16.6696 102.83 16.5856L102.612 15.107C103.341 14.9261 103.914 14.691 104.329 14.4016C104.757 14.0987 105.092 13.6972 105.301 13.2369L105.338 13.17H104.824C104.373 13.17 104.081 12.9656 103.949 12.5577L101.008 4.78965H103.895L105.575 10.211C105.685 10.6089 105.776 11.0249 105.849 11.4689H106.087C106.123 11.3333 106.184 11.1223 106.27 10.8359C106.355 10.5465 106.416 10.3404 106.452 10.2147L108.115 4.79327L111.002 4.78784Z" fill="white"/>
</svg>
