<svg width="59" height="30" viewBox="0 0 59 30" fill="none" xmlns="http://www.w3.org/2000/svg">
<path d="M18.0209 10.3858C18.1382 10.6217 18.2115 10.8134 18.2408 10.9609C18.2995 11.1378 18.3141 11.3147 18.2848 11.4917C18.2848 11.6686 18.2701 11.8455 18.2408 12.0225C17.9475 14.6765 17.361 17.2716 16.4812 19.8077C15.6015 22.3143 14.3698 24.6292 12.7862 26.7524C12.4636 27.1653 12.1263 27.5486 11.7744 27.9025C11.4225 28.2564 11.0119 28.5513 10.5427 28.7872C9.80956 29.1411 9.03242 29.259 8.21129 29.1411C7.41949 29.0526 6.67168 28.8167 5.96785 28.4333C4.79481 27.814 3.85638 26.9588 3.15255 25.8677C2.65401 25.101 2.27277 24.2606 2.00883 23.3464C1.7449 22.4617 1.53962 21.5623 1.39299 20.6481C1.1877 19.4391 1.02641 18.2447 0.909107 17.0652C0.821129 15.8561 0.747814 14.6323 0.689162 13.3937C0.659836 12.9219 0.615847 12.4648 0.557195 12.0225C0.498543 11.5507 0.395902 11.0936 0.249271 10.6512C0.161293 10.4153 0.0879781 10.2236 0.029326 10.0762C-0.029326 9.92874 0 9.73705 0.117304 9.50114C0.29326 9.14727 0.542532 8.89661 0.865118 8.74916C1.36366 8.51325 1.92086 8.43952 2.5367 8.52799C3.24053 8.58697 3.91503 8.7934 4.5602 9.14727C5.2347 9.47165 5.77723 9.92874 6.1878 10.5185C6.59836 11.1378 6.83297 11.8161 6.89162 12.5533C6.9796 13.261 7.05291 13.9835 7.11157 14.7208C7.17022 16.0183 7.2582 17.3011 7.3755 18.5691C7.49281 19.8372 7.6541 21.1052 7.85938 22.3733C8.88579 20.6924 9.72158 18.9083 10.3668 17.0209C11.0119 15.1336 11.4518 13.2168 11.6864 11.2705C11.7451 10.7692 11.8331 10.2826 11.9504 9.81078C12.097 9.30946 12.3756 8.9261 12.7862 8.66069C13.0208 8.51324 13.2847 8.42478 13.578 8.39529C13.8712 8.3658 14.1645 8.38054 14.4577 8.43952C15.2495 8.52799 16.012 8.77865 16.7452 9.1915C16.9798 9.33895 17.2144 9.51588 17.449 9.72231C17.6836 9.92874 17.8742 10.1499 18.0209 10.3858Z" fill="white"/>
<path d="M27.5586 27.239C27.5586 27.1505 27.5439 27.0473 27.5146 26.9294C27.5146 26.8409 27.5146 26.7377 27.5146 26.6197C27.4559 25.912 27.4119 25.2042 27.3826 24.4965C27.3826 23.7887 27.3973 23.081 27.4266 22.3733C27.4559 20.9283 27.4999 19.498 27.5586 18.0825C27.6172 16.6671 27.6466 15.2368 27.6466 13.7918C27.6759 13.2021 27.6612 12.627 27.6026 12.0667C27.5439 11.4769 27.368 10.9314 27.0747 10.4301C26.6935 9.7518 26.1509 9.25048 25.4471 8.9261C24.7433 8.57222 24.0101 8.3658 23.2477 8.30682C23.013 8.27733 22.7784 8.27733 22.5438 8.30682C22.3092 8.30682 22.0746 8.35105 21.84 8.43952C21.2828 8.64595 20.9602 8.98507 20.8722 9.4569C20.8429 9.69282 20.8429 9.91399 20.8722 10.1204C20.9309 10.2974 20.9895 10.489 21.0482 10.6955C21.1655 11.1083 21.2242 11.5359 21.2242 11.9782C21.2535 12.4206 21.2535 12.8629 21.2242 13.3053L20.9602 23.4349C20.9309 24.2016 20.9456 24.9683 21.0042 25.735C21.0922 26.5018 21.3708 27.18 21.84 27.7698C22.2212 28.2416 22.6905 28.5955 23.2477 28.8314C23.8342 29.0968 24.4354 29.2738 25.0512 29.3622C25.3445 29.3917 25.6377 29.4065 25.931 29.4065C26.2242 29.4065 26.5028 29.3327 26.7668 29.1853C27.2653 28.9494 27.5293 28.6692 27.5586 28.3448C27.6172 28.0205 27.6172 27.6518 27.5586 27.239Z" fill="white"/>
<path d="M37.5176 27.3275C37.547 27.357 37.5616 27.4012 37.5616 27.4602C37.6203 27.7846 37.6056 28.0794 37.5176 28.3448C37.459 28.6397 37.2684 28.8904 36.9458 29.0968C36.5645 29.3033 36.11 29.4065 35.5821 29.4065C34.7903 29.4065 34.0278 29.2295 33.2947 28.8757C32.5615 28.5808 32.0043 28.1384 31.6231 27.5486C31.3298 27.1063 31.1539 26.6197 31.0952 26.0889C31.0366 25.5581 30.9926 25.0273 30.9633 24.4965C30.9046 21.695 30.9193 18.9082 31.0073 16.1362C31.1246 13.3348 31.1832 10.5333 31.1832 7.73178C31.1832 7.49586 31.1685 7.25995 31.1392 7.02403C31.1392 6.78812 31.1099 6.5522 31.0512 6.31629C30.9926 6.13935 30.9339 5.96241 30.8753 5.78548C30.8166 5.60854 30.7873 5.4316 30.7873 5.25467C30.7873 4.95977 30.8753 4.70912 31.0512 4.50269C31.2272 4.26677 31.4325 4.08984 31.6671 3.97188C31.931 3.85392 32.195 3.79494 32.4589 3.79494C32.7522 3.76545 33.0308 3.76545 33.2947 3.79494C34.0278 3.88341 34.717 4.10458 35.3622 4.45845C36.0367 4.78284 36.5792 5.25467 36.9898 5.87395C37.3124 6.43424 37.503 7.05352 37.5616 7.73178C37.6203 8.38054 37.6349 9.02931 37.6056 9.67807L37.4297 19.0999C37.4003 20.0731 37.371 21.0462 37.3417 22.0194C37.3417 22.963 37.3563 23.9214 37.3857 24.8946C37.3857 25.6908 37.4297 26.5018 37.5176 27.3275Z" fill="white"/>
<path d="M58.8341 26.8409C59.0394 27.2832 59.0541 27.6961 58.8781 28.0794C58.6728 28.4923 58.3356 28.743 57.8664 28.8314C57.3971 28.9199 56.9426 28.9641 56.5027 28.9641C55.0951 28.9346 53.6874 28.9199 52.2798 28.9199C50.9014 28.9199 49.5084 28.9789 48.1008 29.0968C47.3676 29.1558 46.6345 29.2 45.9013 29.2295C45.1682 29.2885 44.435 29.2295 43.7019 29.0526C43.2033 28.9051 42.7195 28.6987 42.2502 28.4333C41.8104 28.1679 41.4291 27.8288 41.1065 27.4159C40.7253 26.8851 40.5933 26.428 40.7106 26.0447C40.8573 25.6908 41.1065 25.278 41.4584 24.8061L50.5202 12.7745C49.7284 12.7155 48.9366 12.745 48.1448 12.8629C47.353 12.9809 46.5612 13.0694 45.7694 13.1283C44.9776 13.1873 44.1711 13.1136 43.35 12.9072C42.5582 12.7007 41.8983 12.3026 41.3705 11.7128C41.1065 11.3885 40.9159 11.0198 40.7986 10.607C40.7106 10.1941 40.7839 9.82552 41.0185 9.50114C41.2238 9.26522 41.4731 9.10303 41.7664 9.01456C42.0596 8.9261 42.3675 8.85237 42.6901 8.79339C43.8925 8.64595 45.0655 8.54274 46.2093 8.48376C47.3823 8.39529 48.57 8.32156 49.7724 8.26259C50.4469 8.20361 51.1067 8.17412 51.7519 8.17412C52.4264 8.14463 53.1009 8.18886 53.7754 8.30682C54.4499 8.42478 55.0951 8.61646 55.7109 8.88186C56.3267 9.14727 56.8693 9.53063 57.3385 10.0319C57.6318 10.3268 57.8664 10.666 58.0423 11.0493C58.2183 11.4032 58.2916 11.7866 58.2623 12.1994C58.2329 12.5828 58.1303 12.9367 57.9543 13.261C57.7784 13.5854 57.5731 13.8951 57.3385 14.1899C54.9044 17.7287 52.3971 21.1789 49.8164 24.5407C50.5202 24.5997 51.224 24.5997 51.9278 24.5407C52.661 24.5112 53.3941 24.5112 54.1273 24.5407C54.8604 24.5702 55.5789 24.6734 56.2828 24.8504C56.9866 25.0273 57.6024 25.3664 58.1303 25.8677C58.4529 26.1626 58.6875 26.487 58.8341 26.8409Z" fill="white"/>
<path d="M26.6739 6.1838C27.3777 5.50555 27.7297 4.6651 27.7297 3.66246C27.7297 2.68931 27.3777 1.86361 26.6739 1.18535C25.9994 0.507097 25.1783 0.167969 24.2105 0.167969C23.2428 0.167969 22.407 0.507097 21.7032 1.18535C21.0287 1.86361 20.6914 2.68931 20.6914 3.66246C20.6914 4.6651 21.0287 5.50555 21.7032 6.1838C22.407 6.86206 23.2428 7.20118 24.2105 7.20118C25.1783 7.20118 25.9994 6.86206 26.6739 6.1838Z" fill="#CC2132"/>
</svg>
