<svg width="104" height="42" viewBox="0 0 104 42" fill="none" xmlns="http://www.w3.org/2000/svg">
<g clip-path="url(#clip0_3385_8386)">
<path d="M11.0615 35.4619H8.32325L7.53702 32.9676H3.5245L2.73827 35.4619H0L4.09385 24.2377H7.10323L11.0615 35.4619ZM6.94056 31.0156L5.74765 27.2471C5.66632 26.9759 5.58498 26.6235 5.55787 26.2439H5.50365C5.47654 26.5693 5.42231 26.8946 5.31387 27.2199L4.09385 31.0156H6.94056Z" fill="white"/>
<path d="M19.5741 27.4369L16.3208 36.0855C15.5345 38.1731 14.3687 39.2033 12.7962 39.2033C12.1998 39.2033 11.7118 39.122 11.3051 38.9864V37.0073C11.6305 37.1971 11.9829 37.3055 12.3896 37.3055C13.0131 37.3055 13.474 37.0073 13.718 36.4108L14.1518 35.4077L10.8984 27.4098H13.6367L15.1278 32.2899C15.2092 32.5881 15.2905 32.9406 15.3447 33.3743H15.3718C15.4261 33.0761 15.5074 32.7237 15.643 32.317L17.1612 27.4369H19.5741Z" fill="white"/>
<path d="M24.3188 35.6516C22.9903 35.6516 21.933 35.2721 21.1738 34.5401C20.4147 33.7809 20.0352 32.7778 20.0352 31.5036C20.0352 30.1751 20.4418 29.1449 21.2281 28.3857C22.0143 27.6266 23.0988 27.2742 24.4543 27.2742C25.7828 27.2742 26.8402 27.6537 27.5722 28.3857C28.3313 29.1449 28.7109 30.1209 28.7109 31.368C28.7109 32.6965 28.3313 33.7538 27.5451 34.513C26.7317 35.2721 25.6744 35.6516 24.3188 35.6516ZM24.373 29.1449C23.7766 29.1449 23.3428 29.3346 23.0174 29.7413C22.6921 30.148 22.5294 30.7173 22.5294 31.4494C22.5294 32.9947 23.153 33.7538 24.4001 33.7538C25.593 33.7538 26.1895 32.9676 26.1895 31.3951C26.1624 29.8769 25.5659 29.1449 24.373 29.1449Z" fill="white"/>
<path d="M32.7504 35.4619H30.2832V23.587H32.7504V35.4619Z" fill="white"/>
<path d="M43.1889 30.9613C43.1889 34.1063 41.8062 35.6516 39.0679 35.6516C36.4381 35.6516 35.1367 34.1334 35.1367 31.124V24.2377H36.167V31.0427C36.167 32.2627 36.411 33.1845 36.899 33.8081C37.387 34.4316 38.1732 34.7299 39.2035 34.7299C41.1555 34.7299 42.1586 33.5369 42.1586 31.1511V24.2377H43.1889V30.9613Z" fill="white"/>
<path d="M51.1322 35.1094C50.5358 35.4619 49.8038 35.6517 48.9633 35.6517C48.394 35.6517 47.8788 35.5703 47.4179 35.3534C46.9571 35.1365 46.5775 34.8654 46.2522 34.513C45.9268 34.1605 45.6828 33.7267 45.5201 33.2387C45.3575 32.7507 45.249 32.2085 45.249 31.6391C45.249 31.0427 45.3304 30.4733 45.5201 29.9311C45.7099 29.3889 45.981 28.928 46.3064 28.5484C46.6317 28.1689 47.0926 27.8435 47.5806 27.5995C48.0957 27.3826 48.6651 27.2471 49.3158 27.2471C49.9664 27.2471 50.59 27.3826 51.1322 27.6266V28.684C50.5358 28.3044 49.9122 28.1146 49.2344 28.1146C48.7464 28.1146 48.3397 28.196 47.9602 28.3858C47.5806 28.5755 47.2824 28.8195 47.0384 29.1178C46.7944 29.416 46.6046 29.7956 46.469 30.2022C46.3335 30.6089 46.2793 31.0698 46.2793 31.5307C46.2793 31.9645 46.3335 32.3712 46.4419 32.7507C46.5504 33.1303 46.713 33.4827 46.9571 33.781C47.2011 34.0792 47.4722 34.3232 47.8246 34.4859C48.1771 34.6485 48.5837 34.757 49.0718 34.757C49.8309 34.757 50.5087 34.5401 51.1051 34.0792V35.1094H51.1322Z" fill="white"/>
<path d="M58.4528 35.4619V30.7445C58.4528 29.8498 58.2902 29.1991 57.9648 28.7653C57.6395 28.3316 57.1244 28.1147 56.4466 28.1147C56.1212 28.1147 55.823 28.1689 55.5248 28.3045C55.2265 28.44 54.9825 28.6298 54.7656 28.8738C54.5488 29.1178 54.359 29.416 54.2505 29.7685C54.115 30.1209 54.0607 30.5276 54.0607 30.9614V35.4348H53.0576V23.587H54.0607V28.8196H54.0879C54.7114 27.7622 55.6061 27.2471 56.7719 27.2471C57.6666 27.2471 58.3444 27.5182 58.7782 28.0604C59.2391 28.6027 59.4559 29.416 59.4559 30.4734V35.4348H58.4528V35.4619Z" fill="white"/>
<path d="M67.1013 35.4619V34.1063H67.0742C66.5319 35.1366 65.6915 35.6517 64.5528 35.6517C62.655 35.6517 61.7061 34.4859 61.7061 32.1543V27.4369H62.7092V31.9645C62.7092 32.9134 62.8719 33.6454 63.2243 34.1063C63.5768 34.5672 64.0919 34.7841 64.7968 34.7841C65.1492 34.7841 65.4475 34.7299 65.7457 34.5943C66.0168 34.4588 66.2879 34.269 66.4777 34.025C66.6946 33.781 66.8573 33.4828 66.9657 33.1574C67.0742 32.8321 67.1284 32.4525 67.1284 32.0187V27.4369H68.1315V35.4619H67.1013Z" fill="white"/>
<path d="M76.102 35.4619V30.8529C76.102 29.0364 75.4513 28.1418 74.1228 28.1418C73.7704 28.1418 73.4451 28.2231 73.1468 28.3586C72.8486 28.4942 72.6046 28.684 72.3877 28.928C72.1708 29.172 72.0082 29.4702 71.8726 29.7956C71.737 30.1209 71.6828 30.5005 71.6828 30.88V35.4619H70.6797V27.4369H71.6828V28.8195H71.7099C72.3064 27.7622 73.2011 27.2471 74.394 27.2471C75.2615 27.2471 75.9393 27.5182 76.4002 28.0875C76.8611 28.6569 77.078 29.4702 77.078 30.5547V35.4348H76.102V35.4619Z" fill="white"/>
<path d="M37.712 40.9113H37.4409V40.6402C37.3054 40.8571 37.1427 40.9655 36.8987 40.9655C36.736 40.9655 36.5733 40.9113 36.492 40.83C36.3836 40.7487 36.3564 40.6131 36.3564 40.4504C36.3564 40.1251 36.5462 39.9353 36.9258 39.8811L37.4409 39.7998C37.4409 39.5015 37.3325 39.3389 37.0885 39.3389C36.8716 39.3389 36.6818 39.4202 36.5191 39.5557V39.2575C36.6818 39.1491 36.8987 39.0948 37.1156 39.0948C37.5222 39.0948 37.7391 39.3117 37.7391 39.7455V40.9113H37.712ZM37.4138 40.0166L36.98 40.0709C36.8445 40.098 36.7631 40.1251 36.6818 40.1793C36.6276 40.2335 36.5733 40.3149 36.5733 40.4233C36.5733 40.5047 36.6004 40.586 36.6547 40.6402C36.7089 40.6944 36.7902 40.7215 36.8987 40.7215C37.0342 40.7215 37.1427 40.6673 37.2511 40.586C37.3325 40.4775 37.3867 40.3691 37.3867 40.2064V40.0166H37.4138Z" fill="white"/>
<path d="M39.6372 39.149L38.8239 41.1824C38.6883 41.5349 38.4714 41.7246 38.2274 41.7246C38.1461 41.7246 38.0918 41.7246 38.0376 41.6975V41.4535C38.0918 41.4806 38.1461 41.4806 38.2003 41.4806C38.3358 41.4806 38.4443 41.3993 38.5256 41.2366L38.6612 40.9113L37.9834 39.149H38.3087L38.7967 40.5046C38.7967 40.5317 38.8239 40.5588 38.8239 40.6402C38.8239 40.6131 38.851 40.5588 38.851 40.5046L39.339 39.149H39.6372Z" fill="white"/>
<path d="M40.6674 40.9384C40.3963 40.9384 40.2065 40.8571 40.0438 40.6944C39.8811 40.5318 39.7998 40.3149 39.7998 40.0438C39.7998 39.7455 39.8811 39.5286 40.0438 39.3389C40.2065 39.1762 40.4234 39.0948 40.6945 39.0948C40.9656 39.0948 41.1554 39.1762 41.318 39.3389C41.4807 39.5015 41.5349 39.7184 41.5349 40.0166C41.5349 40.2878 41.4536 40.5318 41.2909 40.6944C41.1283 40.8571 40.9114 40.9384 40.6674 40.9384ZM40.6674 39.3389C40.4776 39.3389 40.342 39.3931 40.2336 39.5286C40.1251 39.6642 40.0709 39.8269 40.0709 40.0438C40.0709 40.2606 40.1251 40.4233 40.2336 40.5318C40.342 40.6402 40.4776 40.7215 40.6674 40.7215C40.8572 40.7215 40.9927 40.6673 41.1012 40.5318C41.2096 40.4233 41.2367 40.2335 41.2367 40.0166C41.2367 39.7998 41.1825 39.6371 41.1012 39.5015C40.9927 39.3931 40.8572 39.3389 40.6674 39.3389Z" fill="white"/>
<path d="M42.2672 40.9113H41.9961V38.3086H42.2672V40.9113Z" fill="white"/>
<path d="M43.1071 40.9113H42.8359V38.3086H43.1071V40.9113Z" fill="white"/>
<path d="M44.9513 40.9113H44.6802V40.6402C44.5446 40.8571 44.3819 40.9655 44.1379 40.9655C43.9753 40.9655 43.8126 40.9113 43.7313 40.83C43.6228 40.7487 43.5957 40.6131 43.5957 40.4504C43.5957 40.1251 43.7855 39.9353 44.165 39.8811L44.6802 39.7998C44.6802 39.5015 44.5717 39.3389 44.3277 39.3389C44.1108 39.3389 43.921 39.4202 43.7584 39.5557V39.2575C43.921 39.1491 44.1379 39.0948 44.3548 39.0948C44.7615 39.0948 44.9784 39.3117 44.9784 39.7455V40.9113H44.9513ZM44.6802 40.0166L44.2464 40.0709C44.1108 40.098 44.0295 40.1251 43.9482 40.1793C43.8939 40.2335 43.8397 40.3149 43.8397 40.4233C43.8397 40.5047 43.8668 40.586 43.921 40.6402C43.9753 40.6944 44.0566 40.7215 44.165 40.7215C44.3006 40.7215 44.409 40.6673 44.5175 40.586C44.5988 40.4775 44.653 40.3691 44.653 40.2064V40.0166H44.6802Z" fill="white"/>
<path d="M46.4152 39.4202C46.361 39.3931 46.3067 39.366 46.1983 39.366C46.0898 39.366 45.9814 39.4202 45.9001 39.5286C45.8187 39.6371 45.7916 39.7998 45.7916 39.9895V40.8842H45.5205V39.122H45.7916V39.4744C45.8187 39.3389 45.9001 39.2575 45.9814 39.1762C46.0627 39.0949 46.1441 39.0677 46.2525 39.0677C46.3339 39.0677 46.3881 39.0677 46.4152 39.0949V39.4202Z" fill="white"/>
<path d="M49.099 40.9113H48.8279V40.6402C48.7195 40.8571 48.5297 40.9655 48.2857 40.9655C47.879 40.9655 47.6621 40.7215 47.6621 40.2064V39.149H47.9332V40.1522C47.9332 40.5317 48.0688 40.7215 48.367 40.7215C48.5026 40.7215 48.611 40.6673 48.7195 40.5589C48.8008 40.4504 48.855 40.3148 48.855 40.1522V39.149H49.1261V40.9113H49.099Z" fill="white"/>
<path d="M50.8607 40.83C50.7251 40.9113 50.5625 40.9655 50.3727 40.9655C50.1287 40.9655 49.9118 40.8842 49.7762 40.7215C49.6136 40.5589 49.5322 40.342 49.5322 40.098C49.5322 39.7997 49.6136 39.5828 49.7762 39.3931C49.9389 39.2033 50.1558 39.1219 50.454 39.1219C50.6167 39.1219 50.7523 39.1491 50.8607 39.2033V39.5015C50.7251 39.4202 50.5896 39.366 50.454 39.366C50.2642 39.366 50.1287 39.4202 50.0202 39.5557C49.9118 39.6913 49.8576 39.854 49.8576 40.0709C49.8576 40.2877 49.9118 40.4504 50.0202 40.5589C50.1287 40.6673 50.2642 40.7486 50.454 40.7486C50.6167 40.7486 50.7523 40.6944 50.8878 40.586V40.83H50.8607Z" fill="white"/>
<path d="M52.7592 40.9113H52.4881V39.9082C52.4881 39.5286 52.3525 39.3659 52.0814 39.3659C51.9458 39.3659 51.8374 39.4202 51.7289 39.5286C51.6476 39.6371 51.5934 39.7726 51.5934 39.9353V40.9384H51.3223V38.3357H51.5934V39.4744C51.7289 39.2575 51.9187 39.149 52.1627 39.149C52.5694 39.149 52.7592 39.393 52.7592 39.8539V40.9113Z" fill="white"/>
<path d="M54.7113 40.9113H54.4402V40.6402C54.3318 40.8571 54.142 40.9655 53.898 40.9655C53.4913 40.9655 53.2744 40.7215 53.2744 40.2064V39.149H53.5455V40.1522C53.5455 40.5317 53.6811 40.7215 53.9793 40.7215C54.1149 40.7215 54.2233 40.6673 54.3318 40.5589C54.4131 40.4504 54.4673 40.3148 54.4673 40.1522V39.149H54.7384V40.9113H54.7113Z" fill="white"/>
<path d="M56.7445 40.9113H56.4734V39.9082C56.4734 39.5286 56.3379 39.3388 56.0667 39.3388C55.9312 39.3388 55.7956 39.3931 55.7143 39.5015C55.633 39.61 55.5787 39.7455 55.5787 39.9082V40.9113H55.3076V39.1491H55.5787V39.4473C55.7143 39.2304 55.9041 39.1219 56.1481 39.1219C56.3379 39.1219 56.5005 39.1762 56.5819 39.3117C56.6632 39.4473 56.7445 39.61 56.7445 39.854V40.9113Z" fill="white"/>
<path d="M60.7301 40.9113H60.459V39.9082C60.459 39.7184 60.4319 39.5829 60.3776 39.4744C60.3234 39.366 60.215 39.3389 60.0794 39.3389C59.971 39.3389 59.8625 39.3931 59.7812 39.5015C59.6998 39.61 59.6456 39.7455 59.6456 39.9082V40.9113H59.3745V39.854C59.3745 39.5015 59.2389 39.3389 58.9678 39.3389C58.8323 39.3389 58.7509 39.3931 58.6696 39.5015C58.5883 39.61 58.5612 39.7455 58.5612 39.9082V40.9113H58.29V39.1491H58.5612V39.4202C58.6967 39.2033 58.8594 39.0948 59.1034 39.0948C59.2118 39.0948 59.3203 39.122 59.4287 39.2033C59.5101 39.2575 59.5914 39.366 59.6185 39.4744C59.7541 39.2304 59.9439 39.122 60.215 39.122C60.5945 39.122 60.7843 39.366 60.7843 39.8269V40.9113H60.7301Z" fill="white"/>
<path d="M62.546 40.9113H62.2749V40.6402C62.1393 40.8571 61.9767 40.9655 61.7327 40.9655C61.57 40.9655 61.4073 40.9113 61.326 40.83C61.2175 40.7487 61.1904 40.6131 61.1904 40.4504C61.1904 40.1251 61.3802 39.9353 61.7598 39.8811L62.2749 39.7998C62.2749 39.5015 62.1664 39.3389 61.9224 39.3389C61.7055 39.3389 61.5158 39.4202 61.3531 39.5557V39.2575C61.5158 39.1491 61.7327 39.0948 61.9496 39.0948C62.3562 39.0948 62.5731 39.3117 62.5731 39.7455V40.9113H62.546ZM62.2478 40.0166L61.814 40.0709C61.6784 40.098 61.5971 40.1251 61.5158 40.1793C61.4615 40.2335 61.4073 40.3149 61.4073 40.4233C61.4073 40.5047 61.4344 40.586 61.4887 40.6402C61.5429 40.6944 61.6242 40.7215 61.7327 40.7215C61.8682 40.7215 61.9767 40.6673 62.0851 40.586C62.1664 40.4775 62.2207 40.3691 62.2207 40.2064V40.0166H62.2478Z" fill="white"/>
<path d="M64.3627 39.149L63.7663 40.0437L64.3356 40.9113H64.0103L63.6578 40.342C63.6307 40.3148 63.6036 40.2606 63.5765 40.2064C63.5765 40.2064 63.5494 40.2606 63.4952 40.342L63.1427 40.9113H62.8174L63.4138 40.0437L62.8445 39.149H63.1698L63.5223 39.7455C63.5494 39.7997 63.5765 39.8268 63.6036 39.8811L64.0374 39.149H64.3627Z" fill="white"/>
<path d="M64.5801 40.83V40.5318C64.7427 40.6402 64.9054 40.6944 65.0952 40.6944C65.3392 40.6944 65.4748 40.6131 65.4748 40.4504C65.4748 40.3962 65.4748 40.3691 65.4476 40.342C65.4205 40.3149 65.3934 40.2878 65.3663 40.2606C65.3392 40.2335 65.285 40.2064 65.2308 40.1793C65.1765 40.1522 65.1223 40.1251 65.0681 40.1251C64.9868 40.098 64.9325 40.0709 64.8512 40.0438C64.7699 40.0166 64.7427 39.9895 64.7156 39.9353C64.6885 39.9082 64.6343 39.854 64.6343 39.7998C64.6072 39.7455 64.6072 39.6913 64.6072 39.61C64.6072 39.5286 64.6343 39.4473 64.6614 39.3931C64.6885 39.3389 64.7427 39.2846 64.8241 39.2304C64.8783 39.1762 64.9596 39.1491 65.041 39.122C65.1223 39.0949 65.2036 39.0948 65.285 39.0948C65.4476 39.0948 65.5832 39.122 65.6917 39.1762V39.4744C65.5561 39.3931 65.4205 39.3389 65.2579 39.3389C65.2036 39.3389 65.1494 39.3389 65.1223 39.366C65.0681 39.366 65.041 39.3931 65.0139 39.4202C64.9868 39.4473 64.9596 39.4744 64.9325 39.5015C64.9054 39.5286 64.9054 39.5557 64.9054 39.61C64.9054 39.6642 64.9054 39.6913 64.9325 39.7184C64.9596 39.7455 64.9868 39.7726 65.0139 39.7998C65.041 39.8269 65.0952 39.854 65.1223 39.854C65.1765 39.8811 65.2308 39.9082 65.285 39.9082C65.3663 39.9353 65.4205 39.9624 65.5019 39.9895C65.5832 40.0166 65.6103 40.0438 65.6645 40.098C65.7188 40.1251 65.7459 40.1793 65.773 40.2335C65.8001 40.2878 65.8001 40.342 65.8001 40.4233C65.8001 40.5047 65.773 40.586 65.7459 40.6402C65.7188 40.6944 65.6645 40.7487 65.5832 40.8029C65.5019 40.8571 65.4476 40.8842 65.3663 40.8842C65.285 40.9113 65.2036 40.9113 65.0952 40.9113C64.8783 40.9384 64.7156 40.9113 64.5801 40.83Z" fill="white"/>
<path d="M67.6156 40.9113H67.3445V40.6402C67.2361 40.8571 67.0463 40.9655 66.8023 40.9655C66.3956 40.9655 66.1787 40.7215 66.1787 40.2064V39.149H66.4498V40.1522C66.4498 40.5317 66.5854 40.7215 66.8836 40.7215C67.0192 40.7215 67.1276 40.6673 67.2361 40.5589C67.3174 40.4504 67.3716 40.3148 67.3716 40.1522V39.149H67.6427V40.9113H67.6156Z" fill="white"/>
<path d="M68.0771 40.83V40.5318C68.2398 40.6402 68.4025 40.6944 68.5923 40.6944C68.8363 40.6944 68.9718 40.6131 68.9718 40.4504C68.9718 40.3962 68.9718 40.3691 68.9447 40.342C68.9176 40.3149 68.8905 40.2878 68.8634 40.2606C68.8363 40.2335 68.782 40.2064 68.7278 40.1793C68.6736 40.1522 68.6194 40.1251 68.5652 40.1251C68.4838 40.098 68.4296 40.0709 68.3483 40.0438C68.2669 40.0166 68.2398 39.9895 68.2127 39.9353C68.1856 39.9082 68.1314 39.854 68.1314 39.7998C68.1043 39.7455 68.1043 39.6913 68.1043 39.61C68.1043 39.5286 68.1314 39.4473 68.1585 39.3931C68.1856 39.3389 68.2398 39.2846 68.3212 39.2304C68.3754 39.1762 68.4567 39.1491 68.538 39.122C68.6194 39.0949 68.7007 39.0948 68.782 39.0948C68.9447 39.0948 69.0803 39.122 69.1887 39.1762V39.4744C69.0532 39.3931 68.9176 39.3389 68.7549 39.3389C68.7007 39.3389 68.6465 39.3389 68.6194 39.366C68.5652 39.366 68.538 39.3931 68.5109 39.4202C68.4838 39.4473 68.4567 39.4744 68.4296 39.5015C68.4025 39.5286 68.4025 39.5557 68.4025 39.61C68.4025 39.6642 68.4025 39.6913 68.4296 39.7184C68.4567 39.7455 68.4838 39.7726 68.5109 39.7998C68.538 39.8269 68.5923 39.854 68.6194 39.854C68.6736 39.8811 68.7278 39.9082 68.782 39.9082C68.8634 39.9353 68.9176 39.9624 68.9989 39.9895C69.0803 40.0166 69.1074 40.0438 69.1616 40.098C69.2158 40.1251 69.2429 40.1793 69.2701 40.2335C69.2972 40.2878 69.2972 40.342 69.2972 40.4233C69.2972 40.5047 69.2701 40.586 69.2429 40.6402C69.2158 40.6944 69.1616 40.7487 69.0803 40.8029C68.9989 40.8571 68.9447 40.8842 68.8634 40.8842C68.782 40.9113 68.7007 40.9113 68.5923 40.9113C68.3483 40.9384 68.2127 40.9113 68.0771 40.83Z" fill="white"/>
<path d="M70.9235 40.6402V40.8842H70.6523V38.2815H70.9235V39.4473C71.059 39.2033 71.2759 39.0948 71.5199 39.0948C71.7368 39.0948 71.9266 39.1762 72.0621 39.3388C72.1977 39.5015 72.2519 39.7184 72.2519 39.9624C72.2519 40.2606 72.1706 40.5046 72.035 40.6673C71.8995 40.8571 71.6826 40.9384 71.4386 40.9384C71.2217 40.9384 71.0319 40.83 70.9235 40.6402ZM70.9235 39.9353V40.1793C70.9235 40.3149 70.9777 40.4504 71.059 40.5589C71.1404 40.6673 71.2759 40.7215 71.4115 40.7215C71.5741 40.7215 71.7097 40.6673 71.8181 40.5318C71.9266 40.3962 71.9537 40.2064 71.9537 39.9895C71.9537 39.7997 71.8995 39.6371 71.8181 39.5286C71.7368 39.4202 71.6013 39.366 71.4386 39.366C71.2759 39.366 71.1404 39.4202 71.0319 39.5286C70.9235 39.6371 70.9235 39.7726 70.9235 39.9353Z" fill="white"/>
<path d="M72.984 40.9113H72.7129V38.3086H72.984V40.9113Z" fill="white"/>
<path d="M74.2855 40.9384C74.0144 40.9384 73.8247 40.8571 73.662 40.6944C73.4993 40.5318 73.418 40.3149 73.418 40.0438C73.418 39.7455 73.4993 39.5286 73.662 39.3389C73.8247 39.1762 74.0415 39.0948 74.3127 39.0948C74.5838 39.0948 74.7736 39.1762 74.9362 39.3389C75.0989 39.5015 75.1531 39.7184 75.1531 40.0166C75.1531 40.2878 75.0718 40.5318 74.9091 40.6944C74.7464 40.8571 74.5567 40.9384 74.2855 40.9384ZM74.3127 39.3389C74.1229 39.3389 73.9873 39.3931 73.8789 39.5286C73.7704 39.6642 73.7162 39.8269 73.7162 40.0438C73.7162 40.2606 73.7704 40.4233 73.8789 40.5318C73.9873 40.6402 74.1229 40.7215 74.3127 40.7215C74.5024 40.7215 74.638 40.6673 74.7464 40.5318C74.8549 40.4233 74.882 40.2335 74.882 40.0166C74.882 39.7998 74.8278 39.6371 74.7464 39.5015C74.638 39.3931 74.5024 39.3389 74.3127 39.3389Z" fill="white"/>
<path d="M77.1318 40.7487C77.1318 41.3993 76.8336 41.7247 76.21 41.7247C75.9931 41.7247 75.8033 41.6705 75.6407 41.5891V41.318C75.8305 41.4265 76.0202 41.4807 76.21 41.4807C76.6438 41.4807 76.8607 41.2638 76.8607 40.7758V40.586C76.7251 40.8029 76.5354 40.9113 76.2642 40.9113C76.0473 40.9113 75.8576 40.83 75.722 40.6673C75.5864 40.5047 75.5322 40.2878 75.5322 40.0438C75.5322 39.7455 75.6136 39.5015 75.7491 39.3389C75.8847 39.1491 76.1016 39.0677 76.3456 39.0677C76.5896 39.0677 76.7522 39.1762 76.8607 39.366V39.122H77.1318V40.7487ZM76.8336 40.098V39.8269C76.8336 39.6913 76.7794 39.5558 76.698 39.4744C76.6167 39.366 76.4811 39.3118 76.3456 39.3118C76.1829 39.3118 76.0473 39.366 75.9389 39.5015C75.8305 39.6371 75.8033 39.7998 75.8033 40.0438C75.8033 40.2335 75.8576 40.3962 75.9389 40.5047C76.0202 40.6131 76.1558 40.6944 76.3185 40.6944C76.4811 40.6944 76.6167 40.6402 76.698 40.5318C76.8065 40.4233 76.8336 40.2878 76.8336 40.098Z" fill="white"/>
<path d="M99.3366 1.97912C93.4533 -2.25028 87.0279 2.08757 85.835 2.98225C85.7265 3.06359 85.5639 3.03647 85.4554 2.95514C80.1416 -2.19606 68.836 -0.569365 67.372 7.69966C65.9893 15.4265 75.2615 21.5266 81.3887 24.8884C85.0488 26.8947 85.3199 29.1449 85.1301 30.3378C85.103 30.5276 85.3741 30.6361 85.4825 30.4734C86.7839 28.6569 87.1364 26.1626 87.055 24.2106C86.9466 20.6861 83.0696 21.2554 82.0394 20.5234C81.1176 19.8728 81.9038 18.1918 82.0936 17.8665C82.1207 17.8394 82.1207 17.7852 82.0936 17.7581C81.6598 17.1074 82.1207 16.5109 82.2563 16.3483C82.2834 16.3211 82.2834 16.294 82.2563 16.2669C81.958 15.5891 82.2834 15.3994 82.5003 15.1282C82.7172 14.8571 83.0425 14.6402 82.7172 14.2878C82.4189 13.9353 81.9851 13.5829 82.2291 13.122C82.3918 12.7695 83.395 12.5526 83.9643 12.0104C83.9101 11.9833 83.8558 11.9562 83.8016 11.9291C83.7203 11.8748 83.639 11.8206 83.5847 11.7393C83.5305 11.658 83.4763 11.6037 83.4221 11.5224C83.4763 11.6037 83.5305 11.658 83.6118 11.7122C83.6932 11.7664 83.7474 11.8206 83.8287 11.8477C83.9101 11.8748 83.9914 11.902 84.0727 11.902C84.2083 11.7393 84.3167 11.5495 84.3439 11.3326C84.5065 10.0584 84.8047 8.45879 85.6181 7.0761C86.4314 5.69341 87.3804 4.7445 89.1968 8.67568C90.6609 11.8748 92.7484 12.9322 93.5076 13.2304C93.6702 13.2846 93.7245 13.4744 93.6702 13.61C91.5284 19.2763 93.1009 23.3973 93.7245 24.6715C93.8329 24.8884 94.104 24.9968 94.348 24.8613C99.3908 22.0959 101.939 17.8123 101.939 17.8123C104.352 14.3962 105.843 6.64231 99.3366 1.97912Z" fill="white"/>
</g>
<defs>
<clipPath id="clip0_3385_8386">
<rect width="104" height="41.7247" fill="white"/>
</clipPath>
</defs>
</svg>
