<svg width="95" height="15" viewBox="0 0 95 15" fill="none" xmlns="http://www.w3.org/2000/svg">
<path d="M0.00195312 0.118653C1.12102 0.120255 2.24008 0.11625 3.35997 0.120254C3.3567 0.785032 3.35997 1.44981 3.35833 2.11459C2.92051 2.11539 2.4835 2.11058 2.04649 2.11619C2.04976 4.12814 2.04404 6.14089 2.04894 8.15285C4.80903 8.14964 7.56994 8.15445 10.33 8.15124C11.3454 8.13603 12.2537 7.27182 12.2962 6.27625C12.3051 5.55301 12.2945 4.82976 12.3002 4.10652C12.3125 3.18704 11.5806 2.32443 10.6584 2.16344C11.1616 1.63322 11.7203 1.15587 12.2333 0.634457C13.5132 1.34809 14.3407 2.74893 14.3513 4.19061C14.3472 4.90905 14.3603 5.62829 14.344 6.34754C14.2623 7.94941 13.1122 9.43835 11.5594 9.94454C11.0635 10.1167 10.5351 10.172 10.0115 10.1648C7.35674 10.1632 4.70284 10.1664 2.04813 10.1632C2.04813 11.5016 2.04404 12.8399 2.05058 14.1783C1.36852 14.1831 0.686462 14.1791 0.00440384 14.1799C0.000319665 9.49281 0.00440363 4.80573 0.00195312 0.118653Z" fill="white"/>
<path d="M15.9941 0.118165C19.4722 0.119767 22.9503 0.115761 26.4284 0.119766C28.4329 0.191049 30.2185 1.89064 30.3296 3.85854C30.3402 4.68831 30.3353 5.51808 30.3329 6.34785C30.2683 7.97856 29.0627 9.45949 27.4919 9.95927C28.428 10.8844 29.3731 11.8014 30.31 12.7265C30.3688 13.2039 30.3206 13.6964 30.3329 14.1802C29.8509 14.1802 29.3698 14.1802 28.8887 14.1794C27.5246 12.841 26.1588 11.5035 24.7947 10.1643C22.5435 10.1619 20.2915 10.1675 18.0403 10.1619C18.0338 11.5003 18.033 12.8394 18.0403 14.1786C17.3591 14.1826 16.677 14.1762 15.9958 14.1826C15.9925 9.49393 15.9958 4.80605 15.9941 0.118165ZM18.037 2.1125C18.0387 4.12605 18.0305 6.13961 18.0411 8.15316C20.8069 8.14756 23.5727 8.15637 26.3386 8.14916C27.3506 8.13074 28.245 7.26252 28.2924 6.27416C28.3063 5.54851 28.2965 4.82206 28.2973 4.09642C28.2941 3.31951 27.7803 2.58185 27.0525 2.28229C26.7037 2.1197 26.3108 2.10449 25.9326 2.1133C23.3007 2.1141 20.6689 2.1141 18.037 2.1125Z" fill="white"/>
<path d="M35.7551 0.126355C37.8985 0.106332 40.0427 0.125553 42.1861 0.117544C43.4162 0.091113 44.6194 0.687011 45.3905 1.6153C45.9836 2.3057 46.3242 3.19875 46.3364 4.1022C46.3364 6.13338 46.3364 8.16455 46.3356 10.1965C46.3242 11.1408 45.968 12.0787 45.3301 12.7884C44.5778 13.6534 43.4334 14.1772 42.2727 14.178C40.1759 14.1804 38.079 14.1844 35.9822 14.1764C34.4016 14.1668 32.8954 13.1552 32.304 11.7199C32.1039 11.2361 31.9854 10.7155 31.9928 10.1917C31.992 8.16375 31.992 6.13658 31.9928 4.10941C31.9879 3.12106 32.3841 2.13591 33.0751 1.41586C33.758 0.673395 34.739 0.204046 35.7551 0.126355ZM35.9961 2.11909C34.971 2.14151 34.0692 3.02174 34.0333 4.02531C34.0267 6.08372 34.03 8.14293 34.0316 10.2013C34.03 11.2257 34.9383 12.1444 35.983 12.1732C38.0799 12.1812 40.1759 12.1756 42.2727 12.1764C43.3411 12.1788 44.2968 11.2466 44.2886 10.1965C44.2919 8.14773 44.2968 6.09894 44.287 4.05094C44.2715 3.01694 43.3264 2.11748 42.2759 2.11668C40.1824 2.11348 38.0888 2.10867 35.9961 2.11909Z" fill="white"/>
<path d="M51.8101 0.256102C52.9373 -0.00740607 54.1062 0.15198 55.2416 0.273723C55.2408 0.870421 55.2441 1.46712 55.24 2.06382C55.0284 2.06462 54.8177 2.06382 54.6069 2.06141C54.5163 1.71541 54.4141 1.37181 54.3194 1.0274C53.4388 1.07866 52.4799 0.866415 51.6704 1.30373C51.0602 1.60648 50.8707 2.54438 51.4213 2.9873C51.9775 3.39818 52.6767 3.53754 53.3171 3.77542C54.0384 4.03172 54.8217 4.34408 55.2367 5.01847C55.6157 5.69526 55.5357 6.5827 55.0815 7.20743C54.62 7.84017 53.8293 8.14853 53.0656 8.24865C51.9718 8.37199 50.7833 8.27668 49.8301 7.6936C49.9281 7.40687 50.0016 7.11212 50.1143 6.83099C50.825 7.24748 51.6663 7.40286 52.4872 7.38204C52.9863 7.35881 53.5181 7.27311 53.9151 6.95354C54.3578 6.59792 54.473 5.9011 54.1421 5.43816C53.8505 5.0409 53.3531 4.87671 52.9022 4.72052C52.0772 4.43939 51.1689 4.23836 50.517 3.63045C49.8905 3.06659 49.8121 2.08544 50.1813 1.3638C50.4974 0.758288 51.155 0.405877 51.8101 0.256102Z" fill="white"/>
<path d="M82.4053 1.08745C83.2507 0.38102 84.3886 0.0878758 85.4848 0.11751C86.233 0.133529 86.9804 0.201609 87.7237 0.284906C87.7237 0.877599 87.7221 1.47109 87.7253 2.06379C87.5146 2.06379 87.3047 2.06379 87.0956 2.06459C86.9992 1.71858 86.8995 1.37418 86.8023 1.02898C85.8964 1.06021 84.9514 0.908836 84.0855 1.24603C83.285 1.53597 82.6463 2.19835 82.3751 2.98967C82.1014 3.7842 82.1137 4.67324 82.4069 5.46056C82.6863 6.20543 83.2777 6.83657 84.0308 7.13772C84.6949 7.42446 85.4456 7.40924 86.1472 7.2891C86.603 7.19859 87.0621 7.06564 87.446 6.79973C87.5366 7.08886 87.6232 7.3804 87.7286 7.66554C87.1985 8.04118 86.5352 8.17654 85.8973 8.25423C84.5895 8.404 83.1739 8.06681 82.2158 7.14733C80.5307 5.56709 80.6222 2.56197 82.4053 1.08745Z" fill="white"/>
<path d="M56.9395 0.249634C58.6238 0.256041 60.3073 0.248033 61.9916 0.25364C61.994 0.560399 61.9932 0.867959 61.9932 1.17552C60.6814 1.17472 59.3695 1.17792 58.0569 1.17392C58.0602 1.95963 58.0577 2.74455 58.0577 3.53027C59.1882 3.53508 60.3195 3.54469 61.45 3.52547C61.499 3.82982 61.4631 4.13978 61.4745 4.44734C60.335 4.44814 59.1964 4.44414 58.0577 4.44975C58.0659 5.38043 58.043 6.31273 58.07 7.24342C59.4153 7.23621 60.7614 7.24021 62.1068 7.24101C62.1092 7.54697 62.1084 7.85372 62.1051 8.16048C60.384 8.15488 58.663 8.15568 56.9427 8.15969C56.937 5.523 56.9419 2.88632 56.9395 0.249634Z" fill="white"/>
<path d="M63.6859 0.248047C64.5534 0.260061 65.4208 0.243241 66.2891 0.257658C67.0945 0.294501 67.9661 0.492332 68.5322 1.09624C69.1424 1.745 69.22 2.72935 68.9823 3.5471C68.7731 4.29758 68.1442 4.87746 67.4131 5.14657C68.0225 6.15015 68.6376 7.14972 69.2363 8.1597C68.8336 8.15409 68.4309 8.15649 68.029 8.1573C67.4466 7.22741 66.8814 6.28791 66.2949 5.36043C65.7941 5.38926 65.291 5.37244 64.7903 5.37484C64.7919 6.30233 64.7886 7.22901 64.7911 8.15649C64.4227 8.15729 64.0535 8.15409 63.6851 8.1605C63.6638 5.52381 63.6777 2.88553 63.6859 0.248047ZM64.7919 1.17633C64.7894 2.27121 64.7886 3.36529 64.7927 4.46017C65.2616 4.44976 65.7312 4.47139 66.2001 4.44816C66.7278 4.41772 67.2759 4.23431 67.6247 3.82823C68.0282 3.32765 68.1042 2.5996 67.8501 2.01812C67.6353 1.54076 67.1101 1.29087 66.6077 1.21958C66.0065 1.13709 65.3963 1.18995 64.7919 1.17633Z" fill="white"/>
<path d="M69.4961 0.253841C69.8792 0.275466 70.2835 0.207387 70.6544 0.281874C71.4295 2.17529 72.1917 4.07591 72.9652 5.97093C73.1269 6.39943 73.3401 6.81351 73.4185 7.26924C73.6268 6.48112 74.0009 5.74907 74.286 4.98657C74.9289 3.40873 75.5603 1.82528 76.2121 0.250636C76.5944 0.253039 76.9775 0.25304 77.3606 0.254642C76.257 2.88892 75.1461 5.5208 74.0434 8.15588C73.6309 8.15668 73.2184 8.15828 72.8059 8.15588C71.7105 5.51839 70.5858 2.89293 69.4961 0.253841Z" fill="white"/>
<path d="M78.4315 0.253693C78.8015 0.252892 79.1724 0.25209 79.544 0.250488C79.5538 2.88637 79.5448 5.52225 79.5489 8.15733C79.174 8.15172 78.7991 8.16854 78.4258 8.14612C78.438 5.51584 78.4266 2.88477 78.4315 0.253693Z" fill="white"/>
<path d="M89.1934 8.15646C89.1999 5.52138 89.1868 2.8863 89.1999 0.251221C90.8826 0.252823 92.5653 0.25202 94.2471 0.25202C94.2455 0.558779 94.2447 0.865537 94.2471 1.1731C92.9369 1.1771 91.6267 1.1771 90.3165 1.1731C90.3043 1.96042 90.3157 2.74694 90.3116 3.53426C91.447 3.53506 92.5832 3.53746 93.7186 3.53266C93.7243 3.83781 93.7211 4.14297 93.7211 4.44893C92.584 4.44573 91.447 4.44573 90.31 4.44893C90.3181 5.37962 90.3026 6.3103 90.3173 7.24099C91.6659 7.23939 93.0145 7.23779 94.3631 7.24179C94.3623 7.54695 94.3623 7.85291 94.3631 8.15887C92.6396 8.15486 90.9169 8.15806 89.1934 8.15646Z" fill="white"/>
</svg>
