<svg width="139" height="32" viewBox="0 0 139 32" fill="none" xmlns="http://www.w3.org/2000/svg">
<path fill-rule="evenodd" clip-rule="evenodd" d="M12.6286 0.0405586C9.54522 0.166078 7.17287 3.10053 7.30619 6.08587C7.2192 6.08766 7.13192 6.08921 7.04443 6.09077C5.96983 6.10994 4.86328 6.12969 3.87072 6.58455C1.8949 7.41231 0.520711 9.45794 0.517293 11.5884C0.499821 13.9551 0.502888 16.3227 0.505956 18.6907C0.50889 20.956 0.511824 23.2216 0.496783 25.4872C0.489946 26.6202 0.52413 27.8076 1.0574 28.8389C1.95643 30.7386 4.00403 32.0278 6.12343 31.9972C9.28561 31.9959 12.4478 31.9971 15.6098 31.9983C20.6685 32.0003 25.7267 32.0022 30.7836 31.9938C33.7029 32.0142 36.2872 29.4292 36.2701 26.5354C36.2835 23.8036 36.2819 21.0696 36.2803 18.3358C36.279 16.1879 36.2777 14.0401 36.2837 11.8937C36.3453 9.88199 35.2651 7.88046 33.4944 6.87969C32.3048 6.14014 30.8725 6.08247 29.5119 6.08925C29.4991 5.98799 29.4868 5.88629 29.4744 5.78436C29.361 4.85158 29.2451 3.89844 28.7736 3.0666C27.8062 1.1872 25.7244 -0.0442508 23.5982 0.010028C22.3208 0.0147669 21.0435 0.0104034 19.7662 0.00604042C17.3862 -0.00208989 15.0067 -0.0102185 12.6286 0.0405586ZM26.4491 6.08925C21.0822 6.11639 15.7188 6.113 10.352 6.09265C10.3383 4.62033 11.357 3.09374 12.9499 3.0666C15.7622 3.01571 18.5787 3.02826 21.3944 3.04081C22.145 3.04415 22.8956 3.0475 23.646 3.04964C25.3039 2.98858 26.4422 4.55248 26.4491 6.08925ZM12.4295 15.4454C10.8092 15.4318 9.1923 15.4284 7.57199 15.4522C8.095 16.514 8.64878 17.5792 9.42475 18.4884C12.2107 21.9181 17.0648 23.4753 21.348 22.3117C24.8724 21.4195 27.8156 18.7666 29.2 15.4454C27.59 15.4318 25.9834 15.4318 24.3767 15.4386C22.8761 17.3044 20.5516 18.5732 18.104 18.4443C15.8615 18.3764 13.8071 17.162 12.4295 15.4454Z" fill="white"/>
<path d="M49.2719 9.80781H52.8817V6.78516H49.2719V9.80781ZM48.9109 26.7794C51.4378 26.7794 52.7915 25.5704 52.7915 22.9284V11.1288H49.3621V22.6597C49.3621 23.6672 48.8658 24.0479 48.1438 24.0479C47.8957 24.0479 47.6926 24.0255 47.4219 23.9807V26.6451C47.8957 26.7347 48.2792 26.7794 48.9109 26.7794Z" fill="white"/>
<path d="M62.0826 23.3986C65.8503 23.3986 68.6479 20.5998 68.6479 17.1517C68.6479 13.6589 65.8729 10.9049 62.1277 10.9049C58.36 10.9049 55.5624 13.7037 55.5624 17.1517C55.5624 20.6446 58.3374 23.3986 62.0826 23.3986ZM62.1277 20.4655C60.2326 20.4655 58.9466 18.9205 58.9466 17.1517C58.9466 15.3381 60.1198 13.838 62.0826 13.838C63.9778 13.838 65.2638 15.3829 65.2638 17.1517C65.2638 18.9653 64.0906 20.4655 62.1277 20.4655Z" fill="white"/>
<path d="M78.4649 23.3538C81.3302 23.3538 83.9698 21.1596 83.9698 17.1517C83.9698 13.0991 81.285 10.9049 78.4649 10.9049C76.6825 10.9049 75.5319 11.7334 74.6971 12.8529V6.78516H71.2678V23.1299H74.6971V21.5626C75.5093 22.5253 76.6374 23.3538 78.4649 23.3538ZM77.585 20.4655C75.9831 20.4655 74.652 19.1444 74.652 17.1517C74.652 15.1142 75.9831 13.7932 77.585 13.7932C79.1868 13.7932 80.5405 15.1142 80.5405 17.107C80.5405 19.1668 79.1868 20.4655 77.585 20.4655Z" fill="white"/>
<g opacity="0.7">
<path d="M88.8574 23.1299H92.2867V16.4353C92.2867 14.8232 93.1215 13.9947 94.4301 13.9947C95.7386 13.9947 96.5057 14.8232 96.5057 16.4353V23.1299H99.935V15.3605C99.935 12.6066 98.4234 10.9049 95.8289 10.9049C94.0916 10.9049 93.0764 11.8229 92.2867 12.8305V6.78516H88.8574V23.1299Z" fill="white"/>
<path d="M107.067 23.3538C108.804 23.3538 109.819 22.4358 110.609 21.4282V23.1299H114.038V11.1288H110.609V17.8234C110.609 19.4355 109.774 20.264 108.466 20.264C107.157 20.264 106.39 19.4355 106.39 17.8234V11.1288H102.961V18.8982C102.961 21.6521 104.472 23.3538 107.067 23.3538Z" fill="white"/>
<path d="M117.244 23.1299H120.674V16.4353C120.674 14.8232 121.508 13.9947 122.817 13.9947C124.126 13.9947 124.893 14.8232 124.893 16.4353V23.1299H128.322V15.3605C128.322 12.6066 126.81 10.9049 124.216 10.9049C122.479 10.9049 121.463 11.8229 120.674 12.8305V11.1288H117.244V23.1299Z" fill="white"/>
<path d="M135.521 23.3314C136.672 23.3314 137.507 23.0627 138.229 22.6373V19.9057C137.732 20.1744 137.168 20.3311 136.537 20.3311C135.77 20.3311 135.431 19.9505 135.431 19.1668V14.0395H138.274V11.1288H135.431V8.06139H132.002V11.1288H130.558V14.0395H132.002V19.7266C132.002 22.503 133.423 23.3314 135.521 23.3314Z" fill="white"/>
</g>
</svg>
