<svg width="89" height="40" viewBox="0 0 89 40" fill="none" xmlns="http://www.w3.org/2000/svg">
<g clip-path="url(#clip0_6148_4791)">
<path d="M18.975 0H0.505859V40.0423H18.975V0Z" fill="#F1B747"/>
<path d="M34.9331 19.9366C34.9331 20.4163 34.8908 20.9101 34.8202 21.4039H22.8837C23.2506 23.2523 24.4216 24.1976 26.1712 24.1976C27.4692 24.1976 28.5416 23.6332 29.0777 22.6879H34.5945C33.4657 26.3563 30.2065 28.6561 26.1712 28.6561C21.1483 28.6561 17.4375 24.9877 17.4375 20.0777C17.4375 15.1535 21.12 11.5274 26.1712 11.5274C31.3352 11.5133 34.9331 15.2099 34.9331 19.9366ZM22.9684 18.3281H29.4728C28.9931 16.7196 27.822 15.859 26.1571 15.859C24.5345 15.859 23.4199 16.7337 22.9684 18.3281Z" fill="white"/>
<path d="M53.345 18.3142V28.1202H47.8001V19.0761C47.8001 17.1996 47.0946 16.2825 45.6978 16.2825C43.9764 16.2825 42.9747 17.4817 42.9747 19.5417V28.1343H37.4297V12.0496H41.3098L42.0717 13.7146C43.271 12.3742 45.0487 11.584 47.1369 11.584C50.89 11.5699 53.345 14.2225 53.345 18.3142Z" fill="white"/>
<path d="M67.3848 23.2664V28.12H63.5752C60.0197 28.12 57.861 25.9471 57.861 22.3775V16.3105H54.9121V15.0124L62.1079 7.33691H63.2507V12.0353H67.286V16.2963H63.3918V21.418C63.3918 22.575 64.0832 23.2664 65.2542 23.2664H67.3848Z" fill="white"/>
<path d="M86.9248 12.0212V28.1059H82.6496L82.1699 26.963C80.8577 28.0353 79.1928 28.642 77.3163 28.642C72.3921 28.642 68.8789 25.0583 68.8789 20.0635C68.8789 15.0829 72.3921 11.5415 77.3163 11.5415C79.207 11.5415 80.9001 12.1764 82.2264 13.2628L82.7907 12.0212H86.9248ZM81.662 20.0777C81.662 17.9895 80.1382 16.4233 78.0641 16.4233C75.9759 16.4233 74.4662 17.9895 74.4662 20.0777C74.4662 22.1799 75.99 23.7461 78.0641 23.7461C80.1382 23.7461 81.662 22.1799 81.662 20.0777Z" fill="white"/>
<path d="M15.7719 23.2665V28.1202H11.9623C8.40678 28.1202 6.24805 25.9473 6.24805 22.3777V16.3106L6.40325 6.84326H11.6519L11.793 16.3106V21.4323C11.793 22.5893 12.4844 23.2806 13.6555 23.2806H15.7719V23.2665Z" fill="white"/>
<path d="M86.9258 5.12158H76.2168V9.05809H78.2627L81.5501 11.0193L82.566 9.05809H86.9258V5.12158Z" fill="white"/>
</g>
<defs>
<clipPath id="clip0_6148_4791">
<rect width="87.9859" height="40" fill="white" transform="translate(0.505859)"/>
</clipPath>
</defs>
</svg>
