<svg width="133" height="18" viewBox="0 0 133 18" fill="none" xmlns="http://www.w3.org/2000/svg">
<path fill-rule="evenodd" clip-rule="evenodd" d="M0.582031 8.99995C0.582031 4.02941 4.61145 0 9.58198 0C14.5525 0 18.5819 4.02941 18.5819 8.99995V17.9999H16.1495V8.99995C16.1495 5.3728 13.2091 2.43242 9.58198 2.43242C5.95483 2.43242 3.01445 5.3728 3.01445 8.99995C3.01445 12.6271 5.95483 15.5675 9.58198 15.5675H13.7171V17.9999H9.58198C4.61145 17.9999 0.582031 13.9705 0.582031 8.99995Z" fill="white"/>
<path fill-rule="evenodd" clip-rule="evenodd" d="M114.42 8.99995C114.42 4.02941 118.449 0 123.42 0C128.39 0 132.42 4.02941 132.42 8.99995V17.9999H129.987V8.99995C129.987 5.3728 127.047 2.43242 123.42 2.43242C119.793 2.43242 116.852 5.3728 116.852 8.99995C116.852 12.6271 119.793 15.5675 123.42 15.5675H127.555V17.9999H123.42C118.449 17.9999 114.42 13.9705 114.42 8.99995Z" fill="white"/>
<path fill-rule="evenodd" clip-rule="evenodd" d="M68.9336 8.99995C68.9336 4.02941 72.963 0 77.9335 0C82.9041 0 86.9335 4.02941 86.9335 8.99995C86.9335 13.9705 82.9041 17.9999 77.9335 17.9999C72.963 17.9999 68.9336 13.9705 68.9336 8.99995ZM77.9335 2.43242C74.3064 2.43242 71.366 5.3728 71.366 8.99995C71.366 12.6271 74.3064 15.5675 77.9335 15.5675C81.5607 15.5675 84.5011 12.6271 84.5011 8.99995C84.5011 5.3728 81.5607 2.43242 77.9335 2.43242Z" fill="white"/>
<path fill-rule="evenodd" clip-rule="evenodd" d="M64.0703 0.000102997L58.9622 0.000102774C53.9917 0.000102556 49.9623 4.02952 49.9623 9.00005L49.9623 18L52.3947 18L52.3947 9.00005C52.3947 5.37291 55.3351 2.43252 58.9622 2.43252L64.0703 2.43252L64.0703 0.000102997Z" fill="white"/>
<path fill-rule="evenodd" clip-rule="evenodd" d="M109.557 0.000102997L104.449 0.000102774C99.478 0.000102556 95.4486 4.02952 95.4486 9.00005L95.4486 18L97.881 18L97.881 9.00005C97.881 5.37291 100.821 2.43252 104.449 2.43252L109.557 2.43252L109.557 0.000102997Z" fill="white"/>
<path fill-rule="evenodd" clip-rule="evenodd" d="M27.8269 0V8.99995C27.8269 12.6271 30.7673 15.5675 34.3945 15.5675C38.0216 15.5675 40.962 12.6271 40.962 8.99995V0H43.3944V8.99995C43.3944 13.9705 39.365 17.9999 34.3945 17.9999C29.4239 17.9999 25.3945 13.9705 25.3945 8.99995V0H27.8269Z" fill="white"/>
</svg>
