<svg xmlns="http://www.w3.org/2000/svg" height="285.096" width="324" xmlns:v="https://vecta.io/nano"><path d="M98.764 104.305l60.777-35.089a4.92 4.92 0 0 1 4.917 0l60.778 35.089a4.92 4.92 0 0 1 2.458 4.258v70.179c0 1.756-.939 3.379-2.458 4.259l-60.778 35.089a4.92 4.92 0 0 1-4.917 0l-60.777-35.089a4.92 4.92 0 0 1-2.458-4.259v-70.179a4.92 4.92 0 0 1 2.458-4.258" fill="#8080f2"/><path d="M320.021 136.27L247.404 9.937C244.766 5.369 239.893 2 234.619 2H89.383c-5.276 0-10.15 3.369-12.787 7.937L3.978 135.991c-2.638 4.569-2.638 10.335 0 14.904l72.617 125.297c2.638 4.568 7.512 6.903 12.787 6.903h145.235c5.274 0 10.148-2.265 12.785-6.834l72.617-125.502c2.64-4.567 2.64-9.922.001-14.49m-60.131 60.749c0 1.857-1.118 3.575-2.728 4.505l-92.498 53.367a5.26 5.26 0 0 1-5.233 0l-92.57-53.367c-1.609-.93-2.734-2.647-2.734-4.505V90.284c0-1.858 1.109-3.575 2.719-4.505l92.494-53.367a5.25 5.25 0 0 1 5.23 0l92.576 53.367c1.61.93 2.743 2.647 2.743 4.505z" fill="#4b32c3"/></svg>