<svg xmlns="http://www.w3.org/2000/svg" xmlns:xlink="http://www.w3.org/1999/xlink" viewBox="0 0 210 210" width="2500" height="2500" xmlns:v="https://vecta.io/nano"><style><![CDATA[.M{opacity:.5}.N{fill:#56b3b4}.O{fill:#f7ba3e}.P{fill:#ea5e5e}.Q{fill:#bf85bf}.R{enable-background:new}]]></style><use xlink:href="#A" class="N"/><path d="M5 200h50a4.95 4.95 0 1 1 0 10H5a4.95 4.95 0 1 1 0-10z" class="P"/><path d="M125 120h30a4.95 4.95 0 1 1 0 10h-30a4.95 4.95 0 1 1 0-10z" class="Q"/><path d="M65 120h40a4.95 4.95 0 1 1 0 10H65a4.95 4.95 0 1 1 0-10z" class="P"/><path d="M5 120h40a4.95 4.95 0 1 1 0 10H5a4.95 4.95 0 1 1 0-10z" class="N"/><path d="M5 160h50a5 5 0 1 1 0 10H5a5 5 0 1 1 0-10zm0-80h50a4.95 4.95 0 0 1 5 5 4.95 4.95 0 0 1-5 5H5a4.95 4.95 0 0 1-5-5 4.95 4.95 0 0 1 5-5z" class="Q"/><path d="M55 20h100c2.8 0 5 2.2 5 5s-2.2 5-5 5H55c-2.8 0-5-2.2-5-5s2.2-5 5-5z" class="O"/><path d="M5 20h30c2.8 0 5 2.2 5 5s-2.2 5-5 5H5c-2.8 0-5-2.2-5-5s2.2-5 5-5z" class="P"/><path d="M45 180h10a4.95 4.95 0 1 1 0 10H45a4.95 4.95 0 1 1 0-10z" class="O"/><path d="M45 60h10a4.95 4.95 0 0 1 5 5 4.95 4.95 0 0 1-5 5H45a4.95 4.95 0 0 1-5-5 4.95 4.95 0 0 1 5-5zM5 180h20a5 5 0 1 1 0 10H5a5 5 0 1 1 0-10z" class="N"/><path d="M5 60h20c2.8 0 5 2.2 5 5s-2.2 5-5 5H5c-2.8 0-5-2.2-5-5s2.2-5 5-5z" class="O"/><path d="M135 180h10a5 5 0 1 1 0 10h-10a5 5 0 1 1 0-10zm-60 0h40a5 5 0 1 1 0 10H75a5 5 0 1 1 0-10zm90 0h40a5 5 0 1 1 0 10h-40a5 5 0 1 1 0-10z" fill="#4d616e" class="M R"/><path d="M85 100h80a4.95 4.95 0 1 1 0 10H85a4.95 4.95 0 1 1 0-10z" class="N"/><path d="M35 100h30a4.95 4.95 0 1 1 0 10H35a4.95 4.95 0 1 1 0-10z" class="O"/><use xlink:href="#C" class="P"/><path d="M95 40h40c2.8 0 5 2.2 5 5s-2.2 5-5 5H95c-2.8 0-5-2.2-5-5s2.2-5 5-5z" class="Q"/><path d="M5 40h70c2.8 0 5 2.2 5 5s-2.2 5-5 5H5c-2.8 0-5-2.2-5-5s2.2-5 5-5z" class="N"/><path d="M35 140h90a4.95 4.95 0 1 1 0 10H35a4.95 4.95 0 1 1 0-10z" class="O"/><use xlink:href="#C" y="40" class="Q"/><use xlink:href="#D" class="P"/><use xlink:href="#D" y="20" class="O"/><path d="M5 0h120c2.8 0 5 2.2 5 5s-2.2 5-5 5H5c-2.8 0-5-2.2-5-5s2.2-5 5-5z" class="N"/><g fill="#4d616e" class="R"><path d="M145 0h60c2.8 0 5 2.2 5 5s-2.2 5-5 5h-60c-2.8 0-5-2.2-5-5s2.2-5 5-5z" class="M"/><use xlink:href="#B" class="M"/><use xlink:href="#B" x="40" class="M"/><path d="M175 120h30a5 5 0 1 1 0 10h-30a5 5 0 1 1 0-10zm0-100h30a4.95 4.95 0 0 1 5 5 4.95 4.95 0 0 1-5 5h-30a4.95 4.95 0 0 1-5-5 4.95 4.95 0 0 1 5-5z" class="M"/><use xlink:href="#B" x="40" y="-40" class="M"/><path d="M185 40h20c2.8 0 5 2.2 5 5s-2.2 5-5 5h-20c-2.8 0-5-2.2-5-5s2.2-5 5-5z" class="M"/><use xlink:href="#A" x="40" y="20" class="M"/><use xlink:href="#A" x="40" y="40" class="M"/><path d="M115 160h90a5 5 0 1 1 0 10h-90a5 5 0 1 1 0-10zm-40 0h20a5 5 0 1 1 0 10H75a5 5 0 1 1 0-10zm80 40h50a5 5 0 1 1 0 10h-50a5 5 0 1 1 0-10zm-80 0h60a5 5 0 1 1 0 10H75a5 5 0 1 1 0-10zm0-140h30a4.95 4.95 0 0 1 5 5 4.95 4.95 0 0 1-5 5H75a4.95 4.95 0 0 1-5-5 4.95 4.95 0 0 1 5-5zm0 20h30a4.95 4.95 0 0 1 5 5 4.95 4.95 0 0 1-5 5H75a4.95 4.95 0 0 1-5-5 4.95 4.95 0 0 1 5-5z" class="M"/></g><defs><path id="A" d="M155 40h10c2.8 0 5 2.2 5 5s-2.2 5-5 5h-10c-2.8 0-5-2.2-5-5s2.2-5 5-5z"/><path id="B" d="M145 140h20a4.95 4.95 0 1 1 0 10h-20a4.95 4.95 0 1 1 0-10z"/><path id="C" d="M5 100h10a4.95 4.95 0 1 1 0 10H5a4.95 4.95 0 1 1 0-10z"/><path id="D" d="M125 60h50c2.8 0 5 2.2 5 5s-2.2 5-5 5h-50c-2.8 0-5-2.2-5-5s2.2-5 5-5z"/></defs></svg>