<svg xmlns="http://www.w3.org/2000/svg" width="656" height="337" fill="none" xmlns:v="https://vecta.io/nano"><g filter="url(#A)"><path d="M585.304 336.301c20.415.486 40.773-2.181 60.397-7.92 6.914-2.18 9.49-3.988 8.971-9.716V261.77c0-5.728-2.203-8.371-7.355-8.371h-.802c-20.054 2.429-40.209 3.762-60.397 3.999-23.387 0-44.129-11.083-44.129-66.769v-45.213c0-56.149 20.81-66.69 44.129-66.69a556.49 556.49 0 0 1 60.397 3.909h1.322c4.778 0 7.354-2.632 7.354-8.36v-56.59c0-6.18-2.576-7.468-9.49-9.727A200.84 200.84 0 0 0 585.304.05c-79.366 0-132.837 44.162-132.837 145.661v45.224c0 101.204 53.471 145.367 132.837 145.367z" fill="#fff" fill-opacity=".1"/><path d="M232.076 329.285c-19.421 3.095-73.559 7.016-92.315 7.016C56.493 336.301 0 314.892 0 207.733V12.409c.019-1.13.258-2.248.703-3.288a8.45 8.45 0 0 1 1.888-2.745 8.19 8.19 0 0 1 2.778-1.785c1.034-.407 2.134-.587 3.238-.554h70.321a8.19 8.19 0 0 1 3.249.531c1.037.395 1.986 1.006 2.789 1.785a8.42 8.42 0 0 1 1.886 2.757c.442 1.039.673 2.158.682 3.299v195.325c0 39.791 12.946 52.749 43.62 52.749 13.846-.045 27.68-.949 41.417-2.711V12.409a8.46 8.46 0 0 1 .678-3.299 8.45 8.45 0 0 1 1.887-2.757c.802-.78 1.751-1.39 2.791-1.785s2.135-.576 3.242-.531h69.887c2.271-.102 4.508.723 6.191 2.282 1.695 1.57 2.723 3.751 2.859 6.089v282.814c0 24.72-7.355 30.979-28.03 34.063z" fill="#fff" fill-opacity=".1"/><path d="M395.516 332.379h-70.757c-2.271-.068-4.417-1.028-5.999-2.689s-2.463-3.887-2.463-6.203V12.407a8.72 8.72 0 0 1 .689-3.254c.441-1.028 1.062-1.954 1.853-2.723a8.32 8.32 0 0 1 2.723-1.808 8.15 8.15 0 0 1 3.197-.588h70.757c1.107-.045 2.214.136 3.254.531s1.988.994 2.79 1.785a8.45 8.45 0 0 1 1.887 2.757c.441 1.039.667 2.158.678 3.299v311.08c.011 1.164-.203 2.316-.633 3.39a8.78 8.78 0 0 1-1.864 2.892c-.802.825-1.751 1.48-2.802 1.932-1.05.441-2.169.678-3.31.678z" fill="#fff" fill-opacity=".1"/><path d="M231.997 328.791l.005-.001c10.325-1.54 17.17-3.858 21.466-8.753s6.138-12.479 6.138-24.815V12.423c-.132-2.205-1.103-4.259-2.699-5.737-1.586-1.469-3.693-2.245-5.828-2.149h-.012-.011-69.887-.01-.01a7.66 7.66 0 0 0-3.045.499c-.974.371-1.865.943-2.62 1.676s-1.36 1.615-1.774 2.593a7.94 7.94 0 0 0-.639 3.104v245.363.44l-.436.056c-13.758 1.765-27.613 2.67-41.479 2.715h-.002c-15.393 0-26.48-3.25-33.691-11.627-7.193-8.355-10.428-21.698-10.428-41.622V12.411c-.009-1.075-.227-2.128-.642-3.105h0a7.92 7.92 0 0 0-1.773-2.593 7.73 7.73 0 0 0-2.619-1.677l149.998 323.756zm0 0c-19.391 3.091-73.503 7.01-92.236 7.01-41.617 0-76.411-5.357-100.802-23.997C14.599 293.189.5 261.23.5 207.733V12.413a8.24 8.24 0 0 1 .662-3.095h0m230.834 319.474L1.163 9.317m0 0a7.95 7.95 0 0 1 1.776-2.583h0M1.163 9.317L2.94 6.734m0 0a7.69 7.69 0 0 1 2.608-1.676h0M2.939 6.734l2.608-1.676m0 0l.004-.002m-.004.002l.004-.002m0 0c.968-.381 2.001-.551 3.04-.519h.008m-3.047.519l3.047-.519m0 0h.008m-.008 0h.008m0 0h70.321.01m-70.331 0h70.331m0 0h.01m-.01 0h.01m0 0a7.69 7.69 0 0 1 3.051.499l-3.051-.499zm325.177 7.87v311.08m0-311.08c-.011-1.141-.237-2.259-.678-3.299a8.45 8.45 0 0 0-1.887-2.757c-.802-.791-1.751-1.39-2.79-1.785l5.355 318.921m0-311.08l-.5.005v311.075.005c.011 1.099-.192 2.187-.597 3.199l-.001.002c-.405 1.024-1.002 1.951-1.757 2.727s-1.651 1.395-2.64 1.821c-.992.416-2.044.638-3.114.638h-70.749a8.13 8.13 0 0 1-5.645-2.534c-1.492-1.566-2.325-3.668-2.325-5.858V12.413c.022-1.056.236-2.098.649-3.062.416-.972 1.001-1.842 1.742-2.561l.005-.005c.731-.731 1.6-1.304 2.557-1.698a7.65 7.65 0 0 1 2.999-.551h.01 70.757.01.011a7.71 7.71 0 0 1 3.055.499c.977.372 1.866.933 2.617 1.674l.003.003a7.95 7.95 0 0 1 1.775 2.593 8.17 8.17 0 0 1 .638 3.106v-.002h.5zm0 311.08c.011 1.164-.203 2.316-.633 3.39l.633-3.39zm181.191 12.314h-.012c-39.593 0-72.656-11.014-95.824-34.583s-36.513-59.766-36.513-110.284V145.71c0-50.665 13.344-86.937 36.513-110.542S545.711.549 585.304.549h.011c20.35-.451 40.655 2.208 60.239 7.886 3.477 1.136 5.735 1.995 7.148 3.285 1.362 1.244 1.989 2.946 1.989 5.964v56.59c0 2.799-.63 4.747-1.756 5.993-1.117 1.236-2.799 1.867-5.098 1.867h-1.292c-20.062-2.395-40.225-3.706-60.422-3.909h-.005c-11.732 0-22.94 2.653-31.192 12.467-8.23 9.789-13.437 26.606-13.437 54.723v45.213c0 27.886 5.19 44.722 13.41 54.587 8.242 9.89 19.448 12.682 31.219 12.682h.005a556.95 556.95 0 0 0 60.422-3.999h.772c2.495 0 4.167.638 5.232 1.865 1.078 1.243 1.623 3.19 1.623 6.006v56.895.023l.002.022c.252 2.78-.253 4.492-1.553 5.79-1.346 1.342-3.603 2.311-7.065 3.403a197.82 197.82 0 0 1-60.24 7.898z" stroke="#fff" stroke-opacity=".2"/></g><defs><filter id="A" x="-24" y="-24" width="703.191" height="384.357" filterUnits="userSpaceOnUse" color-interpolation-filters="sRGB"><feFlood flood-opacity="0"/><feGaussianBlur in="BackgroundImage" stdDeviation="12"/><feComposite in2="SourceAlpha" operator="in"/><feBlend in="SourceGraphic"/></filter></defs></svg>